G75*
%MOIN*%
%OFA0B0*%
%FSLAX25Y25*%
%IPPOS*%
%LPD*%
%AMOC8*
5,1,8,0,0,1.08239X$1,22.5*
%
%ADD10C,0.00000*%
%ADD11C,0.05200*%
%ADD12OC8,0.05200*%
%ADD13C,0.05937*%
%ADD14C,0.07800*%
%ADD15C,0.07087*%
%ADD16C,0.01600*%
%ADD17C,0.06600*%
%ADD18C,0.05600*%
%ADD19R,0.03962X0.03962*%
D10*
X0004167Y0001800D02*
X0004167Y0301800D01*
X0599088Y0301800D01*
X0599088Y0001800D01*
X0004167Y0001800D01*
X0194167Y0316800D02*
X0194167Y0616800D01*
X0599088Y0616800D01*
X0599088Y0316800D01*
X0194167Y0316800D01*
D11*
X0209167Y0146800D02*
X0214367Y0146800D01*
X0214367Y0136800D02*
X0209167Y0136800D01*
X0209167Y0126800D02*
X0214367Y0126800D01*
X0214367Y0116800D02*
X0209167Y0116800D01*
X0209167Y0106800D02*
X0214367Y0106800D01*
X0214367Y0096800D02*
X0209167Y0096800D01*
X0209167Y0086800D02*
X0214367Y0086800D01*
X0214367Y0076800D02*
X0209167Y0076800D01*
X0179167Y0076800D02*
X0173967Y0076800D01*
X0173967Y0086800D02*
X0179167Y0086800D01*
X0179167Y0096800D02*
X0173967Y0096800D01*
X0173967Y0106800D02*
X0179167Y0106800D01*
X0179167Y0116800D02*
X0173967Y0116800D01*
X0173967Y0126800D02*
X0179167Y0126800D01*
X0179167Y0136800D02*
X0173967Y0136800D01*
X0173967Y0146800D02*
X0179167Y0146800D01*
X0084167Y0134400D02*
X0084167Y0129200D01*
X0074167Y0129200D02*
X0074167Y0134400D01*
X0064167Y0134400D02*
X0064167Y0129200D01*
X0054167Y0129200D02*
X0054167Y0134400D01*
X0044167Y0134400D02*
X0044167Y0129200D01*
X0034167Y0129200D02*
X0034167Y0134400D01*
X0024167Y0134400D02*
X0024167Y0129200D01*
X0014167Y0129200D02*
X0014167Y0134400D01*
X0014167Y0104400D02*
X0014167Y0099200D01*
X0024167Y0099200D02*
X0024167Y0104400D01*
X0034167Y0104400D02*
X0034167Y0099200D01*
X0044167Y0099200D02*
X0044167Y0104400D01*
X0054167Y0104400D02*
X0054167Y0099200D01*
X0064167Y0099200D02*
X0064167Y0104400D01*
X0074167Y0104400D02*
X0074167Y0099200D01*
X0084167Y0099200D02*
X0084167Y0104400D01*
X0383967Y0101800D02*
X0389167Y0101800D01*
X0389167Y0091800D02*
X0383967Y0091800D01*
X0383967Y0081800D02*
X0389167Y0081800D01*
X0389167Y0071800D02*
X0383967Y0071800D01*
X0419167Y0071800D02*
X0424367Y0071800D01*
X0424367Y0081800D02*
X0419167Y0081800D01*
X0419167Y0091800D02*
X0424367Y0091800D01*
X0424367Y0101800D02*
X0419167Y0101800D01*
X0419167Y0111800D02*
X0424367Y0111800D01*
X0424367Y0121800D02*
X0419167Y0121800D01*
X0419167Y0131800D02*
X0424367Y0131800D01*
X0424367Y0141800D02*
X0419167Y0141800D01*
X0389167Y0141800D02*
X0383967Y0141800D01*
X0383967Y0131800D02*
X0389167Y0131800D01*
X0389167Y0121800D02*
X0383967Y0121800D01*
X0383967Y0111800D02*
X0389167Y0111800D01*
X0519167Y0099400D02*
X0519167Y0094200D01*
X0529167Y0094200D02*
X0529167Y0099400D01*
X0539167Y0099400D02*
X0539167Y0094200D01*
X0549167Y0094200D02*
X0549167Y0099400D01*
X0559167Y0099400D02*
X0559167Y0094200D01*
X0569167Y0094200D02*
X0569167Y0099400D01*
X0579167Y0099400D02*
X0579167Y0094200D01*
X0589167Y0094200D02*
X0589167Y0099400D01*
X0589167Y0124200D02*
X0589167Y0129400D01*
X0579167Y0129400D02*
X0579167Y0124200D01*
X0569167Y0124200D02*
X0569167Y0129400D01*
X0559167Y0129400D02*
X0559167Y0124200D01*
X0549167Y0124200D02*
X0549167Y0129400D01*
X0539167Y0129400D02*
X0539167Y0124200D01*
X0529167Y0124200D02*
X0529167Y0129400D01*
X0519167Y0129400D02*
X0519167Y0124200D01*
X0424367Y0386800D02*
X0419167Y0386800D01*
X0419167Y0396800D02*
X0424367Y0396800D01*
X0424367Y0406800D02*
X0419167Y0406800D01*
X0419167Y0416800D02*
X0424367Y0416800D01*
X0424367Y0426800D02*
X0419167Y0426800D01*
X0419167Y0436800D02*
X0424367Y0436800D01*
X0424367Y0446800D02*
X0419167Y0446800D01*
X0419167Y0456800D02*
X0424367Y0456800D01*
X0389167Y0456800D02*
X0383967Y0456800D01*
X0383967Y0446800D02*
X0389167Y0446800D01*
X0389167Y0436800D02*
X0383967Y0436800D01*
X0383967Y0426800D02*
X0389167Y0426800D01*
X0389167Y0416800D02*
X0383967Y0416800D01*
X0383967Y0406800D02*
X0389167Y0406800D01*
X0389167Y0396800D02*
X0383967Y0396800D01*
X0383967Y0386800D02*
X0389167Y0386800D01*
X0479167Y0409200D02*
X0479167Y0414400D01*
X0479167Y0449200D02*
X0479167Y0454400D01*
X0429167Y0539200D02*
X0429167Y0544400D01*
X0429167Y0579200D02*
X0429167Y0584400D01*
D12*
X0264167Y0541800D03*
X0214167Y0541800D03*
X0359167Y0406800D03*
X0334167Y0386800D03*
X0359167Y0356800D03*
X0334167Y0336800D03*
X0264167Y0341800D03*
X0214167Y0341800D03*
X0264167Y0196800D03*
X0239167Y0176800D03*
X0264167Y0146800D03*
X0239167Y0126800D03*
X0239167Y0106800D03*
X0264167Y0086800D03*
X0239167Y0056800D03*
X0264167Y0036800D03*
X0334167Y0021800D03*
X0359167Y0041800D03*
X0334167Y0071800D03*
X0359167Y0091800D03*
X0359167Y0111800D03*
X0334167Y0131800D03*
X0359167Y0161800D03*
X0334167Y0181800D03*
X0454167Y0181800D03*
X0484167Y0161800D03*
X0454167Y0131800D03*
X0484167Y0111800D03*
X0484167Y0091800D03*
X0454167Y0071800D03*
X0484167Y0041800D03*
X0454167Y0021800D03*
X0154167Y0036800D03*
X0119167Y0056800D03*
X0154167Y0086800D03*
X0119167Y0106800D03*
X0119167Y0126800D03*
X0154167Y0146800D03*
X0119167Y0176800D03*
X0154167Y0196800D03*
D13*
X0294167Y0191800D03*
X0304167Y0191800D03*
X0304167Y0201800D03*
X0294167Y0201800D03*
X0294167Y0211800D03*
X0304167Y0211800D03*
X0304167Y0221800D03*
X0294167Y0221800D03*
X0294167Y0231800D03*
X0304167Y0231800D03*
X0304167Y0241800D03*
X0294167Y0241800D03*
X0294167Y0181800D03*
X0304167Y0181800D03*
X0304167Y0171800D03*
X0304167Y0161800D03*
X0294167Y0161800D03*
X0294167Y0171800D03*
X0294167Y0151800D03*
X0304167Y0151800D03*
X0304167Y0141800D03*
X0304167Y0131800D03*
X0294167Y0131800D03*
X0294167Y0141800D03*
X0294167Y0121800D03*
X0304167Y0121800D03*
X0304167Y0111800D03*
X0294167Y0111800D03*
X0294167Y0101800D03*
X0304167Y0101800D03*
X0304167Y0091800D03*
X0304167Y0081800D03*
X0294167Y0081800D03*
X0294167Y0091800D03*
X0294167Y0071800D03*
X0304167Y0071800D03*
X0304167Y0061800D03*
X0304167Y0051800D03*
X0294167Y0051800D03*
X0294167Y0061800D03*
X0294167Y0366800D03*
X0304167Y0366800D03*
X0304167Y0376800D03*
X0294167Y0376800D03*
X0294167Y0386800D03*
X0304167Y0386800D03*
X0304167Y0396800D03*
X0304167Y0406800D03*
X0294167Y0406800D03*
X0294167Y0396800D03*
X0294167Y0416800D03*
X0304167Y0416800D03*
X0304167Y0426800D03*
X0294167Y0426800D03*
X0294167Y0436800D03*
X0304167Y0436800D03*
X0304167Y0446800D03*
X0304167Y0456800D03*
X0294167Y0456800D03*
X0294167Y0446800D03*
X0294167Y0466800D03*
X0304167Y0466800D03*
X0304167Y0476800D03*
X0304167Y0486800D03*
X0294167Y0486800D03*
X0294167Y0476800D03*
X0294167Y0496800D03*
X0304167Y0496800D03*
X0304167Y0506800D03*
X0294167Y0506800D03*
X0294167Y0516800D03*
X0304167Y0516800D03*
X0304167Y0526800D03*
X0304167Y0536800D03*
X0294167Y0536800D03*
X0294167Y0526800D03*
X0294167Y0546800D03*
X0304167Y0546800D03*
X0304167Y0556800D03*
X0294167Y0556800D03*
D14*
X0223067Y0491700D02*
X0215267Y0491700D01*
X0215267Y0472000D02*
X0223067Y0472000D01*
X0223067Y0406700D02*
X0215267Y0406700D01*
X0215267Y0387000D02*
X0223067Y0387000D01*
X0154067Y0280700D02*
X0154067Y0272900D01*
X0134367Y0272900D02*
X0134367Y0280700D01*
X0038067Y0251700D02*
X0030267Y0251700D01*
X0030267Y0232000D02*
X0038067Y0232000D01*
X0038067Y0036700D02*
X0030267Y0036700D01*
X0030267Y0017000D02*
X0038067Y0017000D01*
X0454367Y0337900D02*
X0454367Y0345700D01*
X0474067Y0345700D02*
X0474067Y0337900D01*
X0565267Y0256600D02*
X0573067Y0256600D01*
X0573067Y0236900D02*
X0565267Y0236900D01*
X0570267Y0347000D02*
X0578067Y0347000D01*
X0578067Y0366700D02*
X0570267Y0366700D01*
X0570267Y0487000D02*
X0578067Y0487000D01*
X0578067Y0506700D02*
X0570267Y0506700D01*
X0570267Y0551900D02*
X0578067Y0551900D01*
X0578067Y0571600D02*
X0570267Y0571600D01*
X0568067Y0041600D02*
X0560267Y0041600D01*
X0560267Y0021900D02*
X0568067Y0021900D01*
D15*
X0559167Y0416800D03*
X0579167Y0416800D03*
X0579167Y0446800D03*
X0559167Y0446800D03*
X0539167Y0446800D03*
X0539167Y0416800D03*
X0509167Y0416800D03*
X0509167Y0446800D03*
X0504167Y0546800D03*
X0524167Y0546800D03*
X0524167Y0576800D03*
X0504167Y0576800D03*
X0484167Y0576800D03*
X0484167Y0546800D03*
X0454167Y0546800D03*
X0454167Y0576800D03*
D16*
X0463413Y0580461D02*
X0474921Y0580461D01*
X0475583Y0582060D02*
X0462751Y0582060D01*
X0462596Y0582432D02*
X0459799Y0585230D01*
X0456145Y0586743D01*
X0452189Y0586743D01*
X0448534Y0585230D01*
X0445737Y0582432D01*
X0444223Y0578778D01*
X0444223Y0574822D01*
X0445737Y0571168D01*
X0448534Y0568370D01*
X0452189Y0566857D01*
X0456145Y0566857D01*
X0459799Y0568370D01*
X0462596Y0571168D01*
X0464110Y0574822D01*
X0464110Y0578778D01*
X0462596Y0582432D01*
X0461370Y0583658D02*
X0476963Y0583658D01*
X0475737Y0582432D02*
X0478534Y0585230D01*
X0482189Y0586743D01*
X0486145Y0586743D01*
X0489799Y0585230D01*
X0492596Y0582432D01*
X0494110Y0578778D01*
X0494110Y0574822D01*
X0492596Y0571168D01*
X0489799Y0568370D01*
X0486145Y0566857D01*
X0482189Y0566857D01*
X0478534Y0568370D01*
X0475737Y0571168D01*
X0474223Y0574822D01*
X0474223Y0578778D01*
X0475737Y0582432D01*
X0474258Y0578863D02*
X0464075Y0578863D01*
X0464110Y0577264D02*
X0474223Y0577264D01*
X0474223Y0575666D02*
X0464110Y0575666D01*
X0463797Y0574067D02*
X0474536Y0574067D01*
X0475198Y0572469D02*
X0463135Y0572469D01*
X0462299Y0570870D02*
X0476035Y0570870D01*
X0477633Y0569272D02*
X0460700Y0569272D01*
X0458115Y0567673D02*
X0480218Y0567673D01*
X0488115Y0567673D02*
X0500218Y0567673D01*
X0498534Y0568370D02*
X0502189Y0566857D01*
X0506145Y0566857D01*
X0509799Y0568370D01*
X0512596Y0571168D01*
X0514110Y0574822D01*
X0514110Y0578778D01*
X0512596Y0582432D01*
X0509799Y0585230D01*
X0506145Y0586743D01*
X0502189Y0586743D01*
X0498534Y0585230D01*
X0495737Y0582432D01*
X0494223Y0578778D01*
X0494223Y0574822D01*
X0495737Y0571168D01*
X0498534Y0568370D01*
X0497633Y0569272D02*
X0490700Y0569272D01*
X0492299Y0570870D02*
X0496035Y0570870D01*
X0495198Y0572469D02*
X0493135Y0572469D01*
X0493797Y0574067D02*
X0494536Y0574067D01*
X0494223Y0575666D02*
X0494110Y0575666D01*
X0494110Y0577264D02*
X0494223Y0577264D01*
X0494258Y0578863D02*
X0494075Y0578863D01*
X0493413Y0580461D02*
X0494921Y0580461D01*
X0495583Y0582060D02*
X0492751Y0582060D01*
X0491370Y0583658D02*
X0496963Y0583658D01*
X0498600Y0585257D02*
X0489734Y0585257D01*
X0478600Y0585257D02*
X0459734Y0585257D01*
X0448600Y0585257D02*
X0438167Y0585257D01*
X0438167Y0586190D02*
X0436796Y0589498D01*
X0434265Y0592030D01*
X0430957Y0593400D01*
X0427376Y0593400D01*
X0424069Y0592030D01*
X0421537Y0589498D01*
X0420167Y0586190D01*
X0420167Y0577410D01*
X0421537Y0574102D01*
X0424069Y0571570D01*
X0427376Y0570200D01*
X0430957Y0570200D01*
X0434265Y0571570D01*
X0436796Y0574102D01*
X0438167Y0577410D01*
X0438167Y0586190D01*
X0437891Y0586855D02*
X0592688Y0586855D01*
X0592688Y0585257D02*
X0509734Y0585257D01*
X0511370Y0583658D02*
X0592688Y0583658D01*
X0592688Y0582060D02*
X0512751Y0582060D01*
X0513413Y0580461D02*
X0565015Y0580461D01*
X0563942Y0579842D02*
X0562025Y0577924D01*
X0560669Y0575576D01*
X0559967Y0572956D01*
X0559967Y0570244D01*
X0560669Y0567624D01*
X0562025Y0565276D01*
X0563942Y0563358D01*
X0566291Y0562002D01*
X0567231Y0561750D01*
X0566291Y0561498D01*
X0563942Y0560142D01*
X0562025Y0558224D01*
X0560669Y0555876D01*
X0559967Y0553256D01*
X0559967Y0550544D01*
X0560669Y0547924D01*
X0562025Y0545576D01*
X0563942Y0543658D01*
X0566291Y0542302D01*
X0568911Y0541600D01*
X0579423Y0541600D01*
X0582042Y0542302D01*
X0584391Y0543658D01*
X0586309Y0545576D01*
X0587665Y0547924D01*
X0588367Y0550544D01*
X0588367Y0553256D01*
X0587665Y0555876D01*
X0586309Y0558224D01*
X0584391Y0560142D01*
X0582042Y0561498D01*
X0581102Y0561750D01*
X0582042Y0562002D01*
X0584391Y0563358D01*
X0586309Y0565276D01*
X0587665Y0567624D01*
X0588367Y0570244D01*
X0588367Y0572956D01*
X0587665Y0575576D01*
X0586309Y0577924D01*
X0584391Y0579842D01*
X0582042Y0581198D01*
X0579423Y0581900D01*
X0568911Y0581900D01*
X0566291Y0581198D01*
X0563942Y0579842D01*
X0562963Y0578863D02*
X0514075Y0578863D01*
X0514110Y0577264D02*
X0561643Y0577264D01*
X0560721Y0575666D02*
X0514110Y0575666D01*
X0513797Y0574067D02*
X0560264Y0574067D01*
X0559967Y0572469D02*
X0513135Y0572469D01*
X0512299Y0570870D02*
X0559967Y0570870D01*
X0560227Y0569272D02*
X0510700Y0569272D01*
X0508115Y0567673D02*
X0560656Y0567673D01*
X0561563Y0566074D02*
X0409167Y0566074D01*
X0409167Y0564476D02*
X0562824Y0564476D01*
X0564775Y0562877D02*
X0409167Y0562877D01*
X0409167Y0561279D02*
X0565912Y0561279D01*
X0563481Y0559680D02*
X0409167Y0559680D01*
X0409167Y0558082D02*
X0561942Y0558082D01*
X0561020Y0556483D02*
X0526772Y0556483D01*
X0526145Y0556743D02*
X0529799Y0555230D01*
X0532596Y0552432D01*
X0534110Y0548778D01*
X0534110Y0544822D01*
X0532596Y0541168D01*
X0529799Y0538370D01*
X0526145Y0536857D01*
X0522189Y0536857D01*
X0518534Y0538370D01*
X0515737Y0541168D01*
X0514223Y0544822D01*
X0514223Y0548778D01*
X0515737Y0552432D01*
X0518534Y0555230D01*
X0522189Y0556743D01*
X0526145Y0556743D01*
X0530144Y0554885D02*
X0560403Y0554885D01*
X0559975Y0553286D02*
X0531742Y0553286D01*
X0532905Y0551688D02*
X0559967Y0551688D01*
X0560088Y0550089D02*
X0533567Y0550089D01*
X0534110Y0548491D02*
X0560517Y0548491D01*
X0561264Y0546892D02*
X0534110Y0546892D01*
X0534110Y0545294D02*
X0562306Y0545294D01*
X0563905Y0543695D02*
X0533643Y0543695D01*
X0532981Y0542097D02*
X0567056Y0542097D01*
X0581277Y0542097D02*
X0592688Y0542097D01*
X0592688Y0543695D02*
X0584428Y0543695D01*
X0586027Y0545294D02*
X0592688Y0545294D01*
X0592688Y0546892D02*
X0587069Y0546892D01*
X0587817Y0548491D02*
X0592688Y0548491D01*
X0592688Y0550089D02*
X0588245Y0550089D01*
X0588367Y0551688D02*
X0592688Y0551688D01*
X0592688Y0553286D02*
X0588359Y0553286D01*
X0587930Y0554885D02*
X0592688Y0554885D01*
X0592688Y0556483D02*
X0587314Y0556483D01*
X0586391Y0558082D02*
X0592688Y0558082D01*
X0592688Y0559680D02*
X0584853Y0559680D01*
X0582422Y0561279D02*
X0592688Y0561279D01*
X0592688Y0562877D02*
X0583559Y0562877D01*
X0585509Y0564476D02*
X0592688Y0564476D01*
X0592688Y0566074D02*
X0586770Y0566074D01*
X0587678Y0567673D02*
X0592688Y0567673D01*
X0592688Y0569272D02*
X0588106Y0569272D01*
X0588367Y0570870D02*
X0592688Y0570870D01*
X0592688Y0572469D02*
X0588367Y0572469D01*
X0588069Y0574067D02*
X0592688Y0574067D01*
X0592688Y0575666D02*
X0587613Y0575666D01*
X0586690Y0577264D02*
X0592688Y0577264D01*
X0592688Y0578863D02*
X0585370Y0578863D01*
X0583319Y0580461D02*
X0592688Y0580461D01*
X0592688Y0588454D02*
X0437229Y0588454D01*
X0436242Y0590052D02*
X0592688Y0590052D01*
X0592688Y0591651D02*
X0434644Y0591651D01*
X0431321Y0593249D02*
X0592688Y0593249D01*
X0592688Y0594848D02*
X0200567Y0594848D01*
X0200567Y0596446D02*
X0592688Y0596446D01*
X0592688Y0598045D02*
X0200567Y0598045D01*
X0200567Y0599643D02*
X0592688Y0599643D01*
X0592688Y0601242D02*
X0200567Y0601242D01*
X0200567Y0602840D02*
X0592688Y0602840D01*
X0592688Y0604439D02*
X0200567Y0604439D01*
X0200567Y0606037D02*
X0592688Y0606037D01*
X0592688Y0607636D02*
X0200567Y0607636D01*
X0200567Y0609234D02*
X0592688Y0609234D01*
X0592688Y0610400D02*
X0592688Y0323200D01*
X0409167Y0323200D01*
X0409167Y0586800D01*
X0200567Y0586800D01*
X0200567Y0610400D01*
X0592688Y0610400D01*
X0592688Y0540498D02*
X0531927Y0540498D01*
X0530328Y0538900D02*
X0592688Y0538900D01*
X0592688Y0537301D02*
X0527218Y0537301D01*
X0521115Y0537301D02*
X0507218Y0537301D01*
X0506145Y0536857D02*
X0509799Y0538370D01*
X0512596Y0541168D01*
X0514110Y0544822D01*
X0514110Y0548778D01*
X0512596Y0552432D01*
X0509799Y0555230D01*
X0506145Y0556743D01*
X0502189Y0556743D01*
X0498534Y0555230D01*
X0495737Y0552432D01*
X0494223Y0548778D01*
X0494223Y0544822D01*
X0495737Y0541168D01*
X0498534Y0538370D01*
X0502189Y0536857D01*
X0506145Y0536857D01*
X0510328Y0538900D02*
X0518005Y0538900D01*
X0516406Y0540498D02*
X0511927Y0540498D01*
X0512981Y0542097D02*
X0515352Y0542097D01*
X0514690Y0543695D02*
X0513643Y0543695D01*
X0514110Y0545294D02*
X0514223Y0545294D01*
X0514223Y0546892D02*
X0514110Y0546892D01*
X0514110Y0548491D02*
X0514223Y0548491D01*
X0514767Y0550089D02*
X0513567Y0550089D01*
X0512905Y0551688D02*
X0515429Y0551688D01*
X0516591Y0553286D02*
X0511742Y0553286D01*
X0510144Y0554885D02*
X0518190Y0554885D01*
X0521561Y0556483D02*
X0506772Y0556483D01*
X0501561Y0556483D02*
X0486772Y0556483D01*
X0486145Y0556743D02*
X0482189Y0556743D01*
X0478534Y0555230D01*
X0475737Y0552432D01*
X0474223Y0548778D01*
X0474223Y0544822D01*
X0475737Y0541168D01*
X0478534Y0538370D01*
X0482189Y0536857D01*
X0486145Y0536857D01*
X0489799Y0538370D01*
X0492596Y0541168D01*
X0494110Y0544822D01*
X0494110Y0548778D01*
X0492596Y0552432D01*
X0489799Y0555230D01*
X0486145Y0556743D01*
X0490144Y0554885D02*
X0498190Y0554885D01*
X0496591Y0553286D02*
X0491742Y0553286D01*
X0492905Y0551688D02*
X0495429Y0551688D01*
X0494767Y0550089D02*
X0493567Y0550089D01*
X0494110Y0548491D02*
X0494223Y0548491D01*
X0494223Y0546892D02*
X0494110Y0546892D01*
X0494110Y0545294D02*
X0494223Y0545294D01*
X0494690Y0543695D02*
X0493643Y0543695D01*
X0492981Y0542097D02*
X0495352Y0542097D01*
X0496406Y0540498D02*
X0491927Y0540498D01*
X0490328Y0538900D02*
X0498005Y0538900D01*
X0501115Y0537301D02*
X0487218Y0537301D01*
X0481115Y0537301D02*
X0457218Y0537301D01*
X0456145Y0536857D02*
X0459799Y0538370D01*
X0462596Y0541168D01*
X0464110Y0544822D01*
X0464110Y0548778D01*
X0462596Y0552432D01*
X0459799Y0555230D01*
X0456145Y0556743D01*
X0452189Y0556743D01*
X0448534Y0555230D01*
X0445737Y0552432D01*
X0444223Y0548778D01*
X0444223Y0544822D01*
X0445737Y0541168D01*
X0448534Y0538370D01*
X0452189Y0536857D01*
X0456145Y0536857D01*
X0460328Y0538900D02*
X0478005Y0538900D01*
X0476406Y0540498D02*
X0461927Y0540498D01*
X0462981Y0542097D02*
X0475352Y0542097D01*
X0474690Y0543695D02*
X0463643Y0543695D01*
X0464110Y0545294D02*
X0474223Y0545294D01*
X0474223Y0546892D02*
X0464110Y0546892D01*
X0464110Y0548491D02*
X0474223Y0548491D01*
X0474767Y0550089D02*
X0463567Y0550089D01*
X0462905Y0551688D02*
X0475429Y0551688D01*
X0476591Y0553286D02*
X0461742Y0553286D01*
X0460144Y0554885D02*
X0478190Y0554885D01*
X0481561Y0556483D02*
X0456772Y0556483D01*
X0451561Y0556483D02*
X0409167Y0556483D01*
X0409167Y0554885D02*
X0448190Y0554885D01*
X0446591Y0553286D02*
X0431231Y0553286D01*
X0430957Y0553400D02*
X0427376Y0553400D01*
X0424069Y0552030D01*
X0421537Y0549498D01*
X0420167Y0546190D01*
X0420167Y0537410D01*
X0421537Y0534102D01*
X0424069Y0531570D01*
X0427376Y0530200D01*
X0430957Y0530200D01*
X0434265Y0531570D01*
X0436796Y0534102D01*
X0438167Y0537410D01*
X0438167Y0546190D01*
X0436796Y0549498D01*
X0434265Y0552030D01*
X0430957Y0553400D01*
X0427102Y0553286D02*
X0409167Y0553286D01*
X0409167Y0551688D02*
X0423727Y0551688D01*
X0422128Y0550089D02*
X0409167Y0550089D01*
X0409167Y0548491D02*
X0421120Y0548491D01*
X0420458Y0546892D02*
X0409167Y0546892D01*
X0409167Y0545294D02*
X0420167Y0545294D01*
X0420167Y0543695D02*
X0409167Y0543695D01*
X0409167Y0542097D02*
X0420167Y0542097D01*
X0420167Y0540498D02*
X0409167Y0540498D01*
X0409167Y0538900D02*
X0420167Y0538900D01*
X0420212Y0537301D02*
X0409167Y0537301D01*
X0409167Y0535703D02*
X0420874Y0535703D01*
X0421536Y0534104D02*
X0409167Y0534104D01*
X0409167Y0532506D02*
X0423133Y0532506D01*
X0425669Y0530907D02*
X0409167Y0530907D01*
X0409167Y0529309D02*
X0592688Y0529309D01*
X0592688Y0530907D02*
X0432664Y0530907D01*
X0435200Y0532506D02*
X0592688Y0532506D01*
X0592688Y0534104D02*
X0436797Y0534104D01*
X0437460Y0535703D02*
X0592688Y0535703D01*
X0592688Y0527710D02*
X0409167Y0527710D01*
X0409167Y0526112D02*
X0592688Y0526112D01*
X0592688Y0524513D02*
X0409167Y0524513D01*
X0409167Y0522915D02*
X0592688Y0522915D01*
X0592688Y0521316D02*
X0409167Y0521316D01*
X0409167Y0519718D02*
X0592688Y0519718D01*
X0592688Y0518119D02*
X0409167Y0518119D01*
X0409167Y0516521D02*
X0567122Y0516521D01*
X0566291Y0516298D02*
X0563942Y0514942D01*
X0562025Y0513024D01*
X0560669Y0510676D01*
X0559967Y0508056D01*
X0559967Y0505344D01*
X0560669Y0502724D01*
X0562025Y0500376D01*
X0563942Y0498458D01*
X0566291Y0497102D01*
X0567231Y0496850D01*
X0566291Y0496598D01*
X0563942Y0495242D01*
X0562025Y0493324D01*
X0560669Y0490976D01*
X0559967Y0488356D01*
X0559967Y0485644D01*
X0560669Y0483024D01*
X0562025Y0480676D01*
X0563942Y0478758D01*
X0566291Y0477402D01*
X0568911Y0476700D01*
X0579423Y0476700D01*
X0582042Y0477402D01*
X0584391Y0478758D01*
X0586309Y0480676D01*
X0587665Y0483024D01*
X0588367Y0485644D01*
X0588367Y0488356D01*
X0587665Y0490976D01*
X0586309Y0493324D01*
X0584391Y0495242D01*
X0582042Y0496598D01*
X0581102Y0496850D01*
X0582042Y0497102D01*
X0584391Y0498458D01*
X0586309Y0500376D01*
X0587665Y0502724D01*
X0588367Y0505344D01*
X0588367Y0508056D01*
X0587665Y0510676D01*
X0586309Y0513024D01*
X0584391Y0514942D01*
X0582042Y0516298D01*
X0579423Y0517000D01*
X0568911Y0517000D01*
X0566291Y0516298D01*
X0563922Y0514922D02*
X0409167Y0514922D01*
X0409167Y0513324D02*
X0562324Y0513324D01*
X0561275Y0511725D02*
X0409167Y0511725D01*
X0409167Y0510127D02*
X0560521Y0510127D01*
X0560093Y0508528D02*
X0409167Y0508528D01*
X0409167Y0506930D02*
X0559967Y0506930D01*
X0559970Y0505331D02*
X0409167Y0505331D01*
X0409167Y0503733D02*
X0560398Y0503733D01*
X0561009Y0502134D02*
X0409167Y0502134D01*
X0409167Y0500536D02*
X0561932Y0500536D01*
X0563463Y0498937D02*
X0409167Y0498937D01*
X0409167Y0497339D02*
X0565881Y0497339D01*
X0564805Y0495740D02*
X0409167Y0495740D01*
X0409167Y0494141D02*
X0562842Y0494141D01*
X0561573Y0492543D02*
X0409167Y0492543D01*
X0409167Y0490944D02*
X0560660Y0490944D01*
X0560232Y0489346D02*
X0409167Y0489346D01*
X0409167Y0487747D02*
X0559967Y0487747D01*
X0559967Y0486149D02*
X0409167Y0486149D01*
X0409167Y0484550D02*
X0560260Y0484550D01*
X0560710Y0482952D02*
X0409167Y0482952D01*
X0409167Y0481353D02*
X0561633Y0481353D01*
X0562945Y0479755D02*
X0409167Y0479755D01*
X0409167Y0478156D02*
X0564984Y0478156D01*
X0583349Y0478156D02*
X0592688Y0478156D01*
X0592688Y0476558D02*
X0409167Y0476558D01*
X0409167Y0474959D02*
X0592688Y0474959D01*
X0592688Y0473361D02*
X0409167Y0473361D01*
X0409167Y0471762D02*
X0592688Y0471762D01*
X0592688Y0470164D02*
X0409167Y0470164D01*
X0409167Y0468565D02*
X0592688Y0468565D01*
X0592688Y0466967D02*
X0409167Y0466967D01*
X0409167Y0465368D02*
X0416334Y0465368D01*
X0417376Y0465800D02*
X0414069Y0464430D01*
X0411537Y0461898D01*
X0410167Y0458590D01*
X0410167Y0455010D01*
X0411496Y0451800D01*
X0410167Y0448590D01*
X0410167Y0445010D01*
X0411496Y0441800D01*
X0410167Y0438590D01*
X0410167Y0435010D01*
X0411496Y0431800D01*
X0410167Y0428590D01*
X0410167Y0425010D01*
X0411496Y0421800D01*
X0410167Y0418590D01*
X0410167Y0415010D01*
X0411537Y0411702D01*
X0414069Y0409170D01*
X0417376Y0407800D01*
X0426157Y0407800D01*
X0429465Y0409170D01*
X0431996Y0411702D01*
X0433367Y0415010D01*
X0433367Y0418590D01*
X0432037Y0421800D01*
X0433367Y0425010D01*
X0433367Y0428590D01*
X0432037Y0431800D01*
X0433367Y0435010D01*
X0433367Y0438590D01*
X0432037Y0441800D01*
X0433367Y0445010D01*
X0433367Y0448590D01*
X0432037Y0451800D01*
X0433367Y0455010D01*
X0433367Y0458590D01*
X0431996Y0461898D01*
X0429465Y0464430D01*
X0426157Y0465800D01*
X0417376Y0465800D01*
X0413409Y0463770D02*
X0409167Y0463770D01*
X0409167Y0462171D02*
X0411810Y0462171D01*
X0410988Y0460573D02*
X0409167Y0460573D01*
X0409167Y0458974D02*
X0410326Y0458974D01*
X0410167Y0457376D02*
X0409167Y0457376D01*
X0409167Y0455777D02*
X0410167Y0455777D01*
X0410511Y0454179D02*
X0409167Y0454179D01*
X0409167Y0452580D02*
X0411173Y0452580D01*
X0411157Y0450982D02*
X0409167Y0450982D01*
X0409167Y0449383D02*
X0410495Y0449383D01*
X0410167Y0447785D02*
X0409167Y0447785D01*
X0409167Y0446186D02*
X0410167Y0446186D01*
X0410342Y0444588D02*
X0409167Y0444588D01*
X0409167Y0442989D02*
X0411004Y0442989D01*
X0411327Y0441391D02*
X0409167Y0441391D01*
X0409167Y0439792D02*
X0410665Y0439792D01*
X0410167Y0438194D02*
X0409167Y0438194D01*
X0409167Y0436595D02*
X0410167Y0436595D01*
X0410172Y0434997D02*
X0409167Y0434997D01*
X0409167Y0433398D02*
X0410834Y0433398D01*
X0411496Y0431800D02*
X0409167Y0431800D01*
X0409167Y0430201D02*
X0410834Y0430201D01*
X0410172Y0428603D02*
X0409167Y0428603D01*
X0409167Y0427004D02*
X0410167Y0427004D01*
X0410167Y0425405D02*
X0409167Y0425405D01*
X0409167Y0423807D02*
X0410665Y0423807D01*
X0411327Y0422208D02*
X0409167Y0422208D01*
X0409167Y0420610D02*
X0411003Y0420610D01*
X0410341Y0419011D02*
X0409167Y0419011D01*
X0409167Y0417413D02*
X0410167Y0417413D01*
X0410167Y0415814D02*
X0409167Y0415814D01*
X0409167Y0414216D02*
X0410495Y0414216D01*
X0411158Y0412617D02*
X0409167Y0412617D01*
X0409167Y0411019D02*
X0412220Y0411019D01*
X0413818Y0409420D02*
X0409167Y0409420D01*
X0409167Y0407822D02*
X0417324Y0407822D01*
X0417376Y0405800D02*
X0414069Y0404430D01*
X0411537Y0401898D01*
X0410167Y0398590D01*
X0410167Y0395010D01*
X0411537Y0391702D01*
X0414069Y0389170D01*
X0417376Y0387800D01*
X0426157Y0387800D01*
X0429465Y0389170D01*
X0431996Y0391702D01*
X0433367Y0395010D01*
X0433367Y0398590D01*
X0431996Y0401898D01*
X0429465Y0404430D01*
X0426157Y0405800D01*
X0417376Y0405800D01*
X0414539Y0404625D02*
X0409167Y0404625D01*
X0409167Y0406223D02*
X0470658Y0406223D01*
X0470167Y0407410D02*
X0471537Y0404102D01*
X0474069Y0401570D01*
X0477376Y0400200D01*
X0480957Y0400200D01*
X0484265Y0401570D01*
X0486796Y0404102D01*
X0488167Y0407410D01*
X0488167Y0416190D01*
X0486796Y0419498D01*
X0484265Y0422030D01*
X0480957Y0423400D01*
X0477376Y0423400D01*
X0474069Y0422030D01*
X0471537Y0419498D01*
X0470167Y0416190D01*
X0470167Y0407410D01*
X0470167Y0407822D02*
X0426210Y0407822D01*
X0429715Y0409420D02*
X0470167Y0409420D01*
X0470167Y0411019D02*
X0431313Y0411019D01*
X0432376Y0412617D02*
X0470167Y0412617D01*
X0470167Y0414216D02*
X0433038Y0414216D01*
X0433367Y0415814D02*
X0470167Y0415814D01*
X0470673Y0417413D02*
X0433367Y0417413D01*
X0433192Y0419011D02*
X0471335Y0419011D01*
X0472649Y0420610D02*
X0432530Y0420610D01*
X0432206Y0422208D02*
X0474500Y0422208D01*
X0483833Y0422208D02*
X0500644Y0422208D01*
X0500737Y0422432D02*
X0499223Y0418778D01*
X0499223Y0414822D01*
X0500737Y0411168D01*
X0503534Y0408370D01*
X0507189Y0406857D01*
X0511145Y0406857D01*
X0514799Y0408370D01*
X0517596Y0411168D01*
X0519110Y0414822D01*
X0519110Y0418778D01*
X0517596Y0422432D01*
X0514799Y0425230D01*
X0511145Y0426743D01*
X0507189Y0426743D01*
X0503534Y0425230D01*
X0500737Y0422432D01*
X0502112Y0423807D02*
X0432868Y0423807D01*
X0433367Y0425405D02*
X0503959Y0425405D01*
X0499982Y0420610D02*
X0485685Y0420610D01*
X0486998Y0419011D02*
X0499320Y0419011D01*
X0499223Y0417413D02*
X0487660Y0417413D01*
X0488167Y0415814D02*
X0499223Y0415814D01*
X0499474Y0414216D02*
X0488167Y0414216D01*
X0488167Y0412617D02*
X0500137Y0412617D01*
X0500886Y0411019D02*
X0488167Y0411019D01*
X0488167Y0409420D02*
X0502484Y0409420D01*
X0504859Y0407822D02*
X0488167Y0407822D01*
X0487675Y0406223D02*
X0592688Y0406223D01*
X0592688Y0404625D02*
X0487013Y0404625D01*
X0485721Y0403026D02*
X0592688Y0403026D01*
X0592688Y0401428D02*
X0483921Y0401428D01*
X0474412Y0401428D02*
X0432191Y0401428D01*
X0432853Y0399829D02*
X0592688Y0399829D01*
X0592688Y0398231D02*
X0433367Y0398231D01*
X0433367Y0396632D02*
X0592688Y0396632D01*
X0592688Y0395034D02*
X0433367Y0395034D01*
X0432714Y0393435D02*
X0592688Y0393435D01*
X0592688Y0391837D02*
X0432052Y0391837D01*
X0430533Y0390238D02*
X0592688Y0390238D01*
X0592688Y0388640D02*
X0428184Y0388640D01*
X0415349Y0388640D02*
X0409167Y0388640D01*
X0409167Y0390238D02*
X0413000Y0390238D01*
X0411481Y0391837D02*
X0409167Y0391837D01*
X0409167Y0393435D02*
X0410819Y0393435D01*
X0410167Y0395034D02*
X0409167Y0395034D01*
X0409167Y0396632D02*
X0410167Y0396632D01*
X0410167Y0398231D02*
X0409167Y0398231D01*
X0409167Y0399829D02*
X0410680Y0399829D01*
X0411342Y0401428D02*
X0409167Y0401428D01*
X0409167Y0403026D02*
X0412665Y0403026D01*
X0404167Y0403026D02*
X0397345Y0403026D01*
X0396837Y0401800D02*
X0398167Y0405010D01*
X0398167Y0408590D01*
X0396837Y0411800D01*
X0398167Y0415010D01*
X0398167Y0418590D01*
X0396837Y0421800D01*
X0398167Y0425010D01*
X0398167Y0428590D01*
X0396837Y0431800D01*
X0398167Y0435010D01*
X0398167Y0438590D01*
X0396837Y0441800D01*
X0398167Y0445010D01*
X0398167Y0448590D01*
X0396837Y0451800D01*
X0398167Y0455010D01*
X0398167Y0458590D01*
X0396796Y0461898D01*
X0394265Y0464430D01*
X0390957Y0465800D01*
X0382176Y0465800D01*
X0378869Y0464430D01*
X0376337Y0461898D01*
X0374967Y0458590D01*
X0374967Y0455010D01*
X0376296Y0451800D01*
X0374967Y0448590D01*
X0374967Y0445010D01*
X0376296Y0441800D01*
X0374967Y0438590D01*
X0374967Y0435010D01*
X0376296Y0431800D01*
X0374967Y0428590D01*
X0374967Y0425010D01*
X0376296Y0421800D01*
X0374967Y0418590D01*
X0374967Y0415010D01*
X0376296Y0411800D01*
X0374967Y0408590D01*
X0374967Y0405010D01*
X0376296Y0401800D01*
X0374967Y0398590D01*
X0374967Y0395010D01*
X0376296Y0391800D01*
X0374967Y0388590D01*
X0374967Y0385010D01*
X0376337Y0381702D01*
X0378869Y0379170D01*
X0382176Y0377800D01*
X0390957Y0377800D01*
X0394265Y0379170D01*
X0396796Y0381702D01*
X0398167Y0385010D01*
X0398167Y0388590D01*
X0396837Y0391800D01*
X0398167Y0395010D01*
X0398167Y0398590D01*
X0396837Y0401800D01*
X0396991Y0401428D02*
X0404167Y0401428D01*
X0404167Y0399829D02*
X0397653Y0399829D01*
X0398167Y0398231D02*
X0404167Y0398231D01*
X0404167Y0396632D02*
X0398167Y0396632D01*
X0398167Y0395034D02*
X0404167Y0395034D01*
X0404167Y0393435D02*
X0397514Y0393435D01*
X0396852Y0391837D02*
X0404167Y0391837D01*
X0404167Y0390238D02*
X0397484Y0390238D01*
X0398146Y0388640D02*
X0404167Y0388640D01*
X0404167Y0387041D02*
X0398167Y0387041D01*
X0398167Y0385443D02*
X0404167Y0385443D01*
X0404167Y0383844D02*
X0397684Y0383844D01*
X0397022Y0382246D02*
X0404167Y0382246D01*
X0404167Y0380647D02*
X0395742Y0380647D01*
X0393971Y0379049D02*
X0404167Y0379049D01*
X0404167Y0377450D02*
X0313535Y0377450D01*
X0313535Y0378664D02*
X0312236Y0381800D01*
X0313535Y0384936D01*
X0313535Y0388664D01*
X0312236Y0391800D01*
X0313535Y0394936D01*
X0313535Y0398664D01*
X0312109Y0402107D01*
X0309473Y0404742D01*
X0306030Y0406168D01*
X0303535Y0406168D01*
X0303535Y0407431D01*
X0306030Y0407431D01*
X0309473Y0408858D01*
X0312109Y0411493D01*
X0313535Y0414936D01*
X0313535Y0418664D01*
X0312236Y0421800D01*
X0313535Y0424936D01*
X0313535Y0428664D01*
X0312236Y0431800D01*
X0313535Y0434936D01*
X0313535Y0438664D01*
X0312236Y0441800D01*
X0313535Y0444936D01*
X0313535Y0448664D01*
X0312236Y0451800D01*
X0313535Y0454936D01*
X0313535Y0458664D01*
X0312236Y0461800D01*
X0313535Y0464936D01*
X0313535Y0468664D01*
X0312236Y0471800D01*
X0313535Y0474936D01*
X0313535Y0478664D01*
X0312109Y0482107D01*
X0309473Y0484742D01*
X0306030Y0486168D01*
X0303535Y0486168D01*
X0303535Y0487431D01*
X0306030Y0487431D01*
X0309473Y0488858D01*
X0312109Y0491493D01*
X0313535Y0494936D01*
X0313535Y0498664D01*
X0312236Y0501800D01*
X0313535Y0504936D01*
X0313535Y0508664D01*
X0312236Y0511800D01*
X0313535Y0514936D01*
X0313535Y0518664D01*
X0312236Y0521800D01*
X0313535Y0524936D01*
X0313535Y0528664D01*
X0312236Y0531800D01*
X0313535Y0534936D01*
X0313535Y0538664D01*
X0312236Y0541800D01*
X0313535Y0544936D01*
X0313535Y0548664D01*
X0312109Y0552107D01*
X0309473Y0554742D01*
X0306030Y0556168D01*
X0303535Y0556168D01*
X0303535Y0558664D01*
X0302109Y0562107D01*
X0299473Y0564742D01*
X0296030Y0566168D01*
X0292303Y0566168D01*
X0288860Y0564742D01*
X0286224Y0562107D01*
X0284798Y0558664D01*
X0284798Y0554936D01*
X0286097Y0551800D01*
X0284798Y0548664D01*
X0284798Y0544936D01*
X0286097Y0541800D01*
X0284798Y0538664D01*
X0284798Y0534936D01*
X0285332Y0533648D01*
X0284773Y0534207D01*
X0284769Y0534208D01*
X0284378Y0534599D01*
X0280997Y0536000D01*
X0277337Y0536000D01*
X0273955Y0534599D01*
X0273564Y0534208D01*
X0273560Y0534207D01*
X0273367Y0534013D01*
X0273367Y0543630D01*
X0273167Y0544113D01*
X0273167Y0545528D01*
X0272166Y0546529D01*
X0271966Y0547011D01*
X0269378Y0549599D01*
X0268895Y0549799D01*
X0267895Y0550800D01*
X0266479Y0550800D01*
X0265997Y0551000D01*
X0262337Y0551000D01*
X0261854Y0550800D01*
X0260439Y0550800D01*
X0259438Y0549799D01*
X0258955Y0549599D01*
X0256367Y0547011D01*
X0256167Y0546529D01*
X0255167Y0545528D01*
X0255167Y0544113D01*
X0254967Y0543630D01*
X0254967Y0339970D01*
X0255167Y0339487D01*
X0255167Y0338072D01*
X0256167Y0337071D01*
X0256367Y0336589D01*
X0258955Y0334001D01*
X0259438Y0333801D01*
X0260439Y0332800D01*
X0261854Y0332800D01*
X0262337Y0332600D01*
X0265997Y0332600D01*
X0266479Y0332800D01*
X0267895Y0332800D01*
X0268895Y0333801D01*
X0269378Y0334001D01*
X0271966Y0336589D01*
X0272166Y0337071D01*
X0273167Y0338072D01*
X0273167Y0339487D01*
X0273367Y0339970D01*
X0273367Y0434587D01*
X0273560Y0434393D01*
X0273564Y0434392D01*
X0273955Y0434001D01*
X0277337Y0432600D01*
X0280997Y0432600D01*
X0284378Y0434001D01*
X0284769Y0434392D01*
X0284773Y0434393D01*
X0284950Y0434570D01*
X0286224Y0431493D01*
X0288860Y0428858D01*
X0292303Y0427431D01*
X0294798Y0427431D01*
X0294798Y0426168D01*
X0292303Y0426168D01*
X0288860Y0424742D01*
X0286224Y0422107D01*
X0284798Y0418664D01*
X0284798Y0414936D01*
X0286097Y0411800D01*
X0284798Y0408664D01*
X0284798Y0404936D01*
X0286097Y0401800D01*
X0284798Y0398664D01*
X0284798Y0394936D01*
X0286224Y0391493D01*
X0288860Y0388858D01*
X0292303Y0387431D01*
X0294798Y0387431D01*
X0294798Y0386168D01*
X0292303Y0386168D01*
X0288860Y0384742D01*
X0286224Y0382107D01*
X0284798Y0378664D01*
X0284798Y0374936D01*
X0286097Y0371800D01*
X0284798Y0368664D01*
X0284798Y0364936D01*
X0286224Y0361493D01*
X0288860Y0358858D01*
X0292303Y0357431D01*
X0296030Y0357431D01*
X0299167Y0358731D01*
X0302303Y0357431D01*
X0306030Y0357431D01*
X0309473Y0358858D01*
X0312109Y0361493D01*
X0313535Y0364936D01*
X0313535Y0368664D01*
X0312236Y0371800D01*
X0313535Y0374936D01*
X0313535Y0378664D01*
X0313376Y0379049D02*
X0329190Y0379049D01*
X0330439Y0377800D02*
X0325167Y0383072D01*
X0325167Y0390528D01*
X0330439Y0395800D01*
X0337895Y0395800D01*
X0343167Y0390528D01*
X0343167Y0383072D01*
X0337895Y0377800D01*
X0330439Y0377800D01*
X0327592Y0380647D02*
X0312713Y0380647D01*
X0312421Y0382246D02*
X0325993Y0382246D01*
X0325167Y0383844D02*
X0313083Y0383844D01*
X0313535Y0385443D02*
X0325167Y0385443D01*
X0325167Y0387041D02*
X0313535Y0387041D01*
X0313535Y0388640D02*
X0325167Y0388640D01*
X0325167Y0390238D02*
X0312883Y0390238D01*
X0312251Y0391837D02*
X0326476Y0391837D01*
X0328074Y0393435D02*
X0312913Y0393435D01*
X0313535Y0395034D02*
X0329673Y0395034D01*
X0338661Y0395034D02*
X0374967Y0395034D01*
X0374967Y0396632D02*
X0313535Y0396632D01*
X0313535Y0398231D02*
X0355008Y0398231D01*
X0355439Y0397800D02*
X0362895Y0397800D01*
X0368167Y0403072D01*
X0368167Y0410528D01*
X0362895Y0415800D01*
X0355439Y0415800D01*
X0350167Y0410528D01*
X0350167Y0403072D01*
X0355439Y0397800D01*
X0353409Y0399829D02*
X0313052Y0399829D01*
X0312390Y0401428D02*
X0351811Y0401428D01*
X0350212Y0403026D02*
X0311189Y0403026D01*
X0309591Y0404625D02*
X0350167Y0404625D01*
X0350167Y0406223D02*
X0303535Y0406223D01*
X0306973Y0407822D02*
X0350167Y0407822D01*
X0350167Y0409420D02*
X0310036Y0409420D01*
X0311635Y0411019D02*
X0350658Y0411019D01*
X0352256Y0412617D02*
X0312575Y0412617D01*
X0313237Y0414216D02*
X0353855Y0414216D01*
X0364479Y0414216D02*
X0375295Y0414216D01*
X0374967Y0415814D02*
X0313535Y0415814D01*
X0313535Y0417413D02*
X0374967Y0417413D01*
X0375141Y0419011D02*
X0313391Y0419011D01*
X0312729Y0420610D02*
X0375803Y0420610D01*
X0376127Y0422208D02*
X0312405Y0422208D01*
X0313067Y0423807D02*
X0375465Y0423807D01*
X0374967Y0425405D02*
X0313535Y0425405D01*
X0313535Y0427004D02*
X0374967Y0427004D01*
X0374972Y0428603D02*
X0313535Y0428603D01*
X0312898Y0430201D02*
X0375634Y0430201D01*
X0376296Y0431800D02*
X0312236Y0431800D01*
X0312898Y0433398D02*
X0375634Y0433398D01*
X0374972Y0434997D02*
X0313535Y0434997D01*
X0313535Y0436595D02*
X0374967Y0436595D01*
X0374967Y0438194D02*
X0313535Y0438194D01*
X0313068Y0439792D02*
X0375465Y0439792D01*
X0376127Y0441391D02*
X0312406Y0441391D01*
X0312729Y0442989D02*
X0375804Y0442989D01*
X0375142Y0444588D02*
X0313391Y0444588D01*
X0313535Y0446186D02*
X0374967Y0446186D01*
X0374967Y0447785D02*
X0313535Y0447785D01*
X0313237Y0449383D02*
X0375295Y0449383D01*
X0375957Y0450982D02*
X0312575Y0450982D01*
X0312559Y0452580D02*
X0375973Y0452580D01*
X0375311Y0454179D02*
X0313221Y0454179D01*
X0313535Y0455777D02*
X0374967Y0455777D01*
X0374967Y0457376D02*
X0313535Y0457376D01*
X0313406Y0458974D02*
X0375126Y0458974D01*
X0375788Y0460573D02*
X0312744Y0460573D01*
X0312390Y0462171D02*
X0376610Y0462171D01*
X0378209Y0463770D02*
X0313052Y0463770D01*
X0313535Y0465368D02*
X0381134Y0465368D01*
X0391999Y0465368D02*
X0404167Y0465368D01*
X0404167Y0463770D02*
X0394925Y0463770D01*
X0396523Y0462171D02*
X0404167Y0462171D01*
X0404167Y0460573D02*
X0397345Y0460573D01*
X0398008Y0458974D02*
X0404167Y0458974D01*
X0404167Y0457376D02*
X0398167Y0457376D01*
X0398167Y0455777D02*
X0404167Y0455777D01*
X0404167Y0454179D02*
X0397822Y0454179D01*
X0397160Y0452580D02*
X0404167Y0452580D01*
X0404167Y0450982D02*
X0397176Y0450982D01*
X0397838Y0449383D02*
X0404167Y0449383D01*
X0404167Y0447785D02*
X0398167Y0447785D01*
X0398167Y0446186D02*
X0404167Y0446186D01*
X0404167Y0444588D02*
X0397992Y0444588D01*
X0397330Y0442989D02*
X0404167Y0442989D01*
X0404167Y0441391D02*
X0397007Y0441391D01*
X0397669Y0439792D02*
X0404167Y0439792D01*
X0404167Y0438194D02*
X0398167Y0438194D01*
X0398167Y0436595D02*
X0404167Y0436595D01*
X0404167Y0434997D02*
X0398161Y0434997D01*
X0397499Y0433398D02*
X0404167Y0433398D01*
X0404167Y0431800D02*
X0396837Y0431800D01*
X0397499Y0430201D02*
X0404167Y0430201D01*
X0404167Y0428603D02*
X0398162Y0428603D01*
X0398167Y0427004D02*
X0404167Y0427004D01*
X0404167Y0425405D02*
X0398167Y0425405D01*
X0397668Y0423807D02*
X0404167Y0423807D01*
X0404167Y0422208D02*
X0397006Y0422208D01*
X0397330Y0420610D02*
X0404167Y0420610D01*
X0404167Y0419011D02*
X0397992Y0419011D01*
X0398167Y0417413D02*
X0404167Y0417413D01*
X0404167Y0415814D02*
X0398167Y0415814D01*
X0397838Y0414216D02*
X0404167Y0414216D01*
X0404167Y0412617D02*
X0397176Y0412617D01*
X0397161Y0411019D02*
X0404167Y0411019D01*
X0404167Y0409420D02*
X0397823Y0409420D01*
X0398167Y0407822D02*
X0404167Y0407822D01*
X0404167Y0406223D02*
X0398167Y0406223D01*
X0398007Y0404625D02*
X0404167Y0404625D01*
X0409167Y0387041D02*
X0592688Y0387041D01*
X0592688Y0385443D02*
X0409167Y0385443D01*
X0409167Y0383844D02*
X0592688Y0383844D01*
X0592688Y0382246D02*
X0409167Y0382246D01*
X0409167Y0380647D02*
X0592688Y0380647D01*
X0592688Y0379049D02*
X0409167Y0379049D01*
X0409167Y0377450D02*
X0592688Y0377450D01*
X0592688Y0375852D02*
X0582816Y0375852D01*
X0582042Y0376298D02*
X0579423Y0377000D01*
X0568911Y0377000D01*
X0566291Y0376298D01*
X0563942Y0374942D01*
X0562025Y0373024D01*
X0560669Y0370676D01*
X0559967Y0368056D01*
X0559967Y0365344D01*
X0560669Y0362724D01*
X0562025Y0360376D01*
X0563942Y0358458D01*
X0566291Y0357102D01*
X0567231Y0356850D01*
X0566291Y0356598D01*
X0563942Y0355242D01*
X0562025Y0353324D01*
X0560669Y0350976D01*
X0559967Y0348356D01*
X0559967Y0345644D01*
X0560669Y0343024D01*
X0562025Y0340676D01*
X0563942Y0338758D01*
X0566291Y0337402D01*
X0568911Y0336700D01*
X0579423Y0336700D01*
X0582042Y0337402D01*
X0584391Y0338758D01*
X0586309Y0340676D01*
X0587665Y0343024D01*
X0588367Y0345644D01*
X0588367Y0348356D01*
X0587665Y0350976D01*
X0586309Y0353324D01*
X0584391Y0355242D01*
X0582042Y0356598D01*
X0581102Y0356850D01*
X0582042Y0357102D01*
X0584391Y0358458D01*
X0586309Y0360376D01*
X0587665Y0362724D01*
X0588367Y0365344D01*
X0588367Y0368056D01*
X0587665Y0370676D01*
X0586309Y0373024D01*
X0584391Y0374942D01*
X0582042Y0376298D01*
X0585080Y0374253D02*
X0592688Y0374253D01*
X0592688Y0372655D02*
X0586522Y0372655D01*
X0587445Y0371056D02*
X0592688Y0371056D01*
X0592688Y0369458D02*
X0587991Y0369458D01*
X0588367Y0367859D02*
X0592688Y0367859D01*
X0592688Y0366261D02*
X0588367Y0366261D01*
X0588184Y0364662D02*
X0592688Y0364662D01*
X0592688Y0363064D02*
X0587756Y0363064D01*
X0586938Y0361465D02*
X0592688Y0361465D01*
X0592688Y0359867D02*
X0585800Y0359867D01*
X0584062Y0358268D02*
X0592688Y0358268D01*
X0592688Y0356670D02*
X0581776Y0356670D01*
X0584562Y0355071D02*
X0592688Y0355071D01*
X0592688Y0353472D02*
X0586161Y0353472D01*
X0587146Y0351874D02*
X0592688Y0351874D01*
X0592688Y0350275D02*
X0587852Y0350275D01*
X0588281Y0348677D02*
X0592688Y0348677D01*
X0592688Y0347078D02*
X0588367Y0347078D01*
X0588323Y0345480D02*
X0592688Y0345480D01*
X0592688Y0343881D02*
X0587894Y0343881D01*
X0587237Y0342283D02*
X0592688Y0342283D01*
X0592688Y0340684D02*
X0586314Y0340684D01*
X0584719Y0339086D02*
X0592688Y0339086D01*
X0592688Y0337487D02*
X0582190Y0337487D01*
X0592688Y0335889D02*
X0484191Y0335889D01*
X0484367Y0336544D02*
X0483665Y0333924D01*
X0482309Y0331576D01*
X0480391Y0329658D01*
X0478042Y0328302D01*
X0475423Y0327600D01*
X0472711Y0327600D01*
X0470091Y0328302D01*
X0467742Y0329658D01*
X0465825Y0331576D01*
X0464469Y0333924D01*
X0463767Y0336544D01*
X0463767Y0347056D01*
X0464469Y0349676D01*
X0465825Y0352024D01*
X0467742Y0353942D01*
X0470091Y0355298D01*
X0472711Y0356000D01*
X0475423Y0356000D01*
X0478042Y0355298D01*
X0480391Y0353942D01*
X0482309Y0352024D01*
X0483665Y0349676D01*
X0484367Y0347056D01*
X0484367Y0336544D01*
X0484367Y0337487D02*
X0566143Y0337487D01*
X0563614Y0339086D02*
X0484367Y0339086D01*
X0484367Y0340684D02*
X0562020Y0340684D01*
X0561097Y0342283D02*
X0484367Y0342283D01*
X0484367Y0343881D02*
X0560439Y0343881D01*
X0560011Y0345480D02*
X0484367Y0345480D01*
X0484361Y0347078D02*
X0559967Y0347078D01*
X0560053Y0348677D02*
X0483932Y0348677D01*
X0483318Y0350275D02*
X0560481Y0350275D01*
X0561187Y0351874D02*
X0482396Y0351874D01*
X0480861Y0353472D02*
X0562173Y0353472D01*
X0563771Y0355071D02*
X0478436Y0355071D01*
X0469698Y0355071D02*
X0409167Y0355071D01*
X0409167Y0356670D02*
X0566558Y0356670D01*
X0564271Y0358268D02*
X0409167Y0358268D01*
X0409167Y0359867D02*
X0562534Y0359867D01*
X0561396Y0361465D02*
X0409167Y0361465D01*
X0409167Y0363064D02*
X0560578Y0363064D01*
X0560149Y0364662D02*
X0409167Y0364662D01*
X0409167Y0366261D02*
X0559967Y0366261D01*
X0559967Y0367859D02*
X0409167Y0367859D01*
X0409167Y0369458D02*
X0560342Y0369458D01*
X0560888Y0371056D02*
X0409167Y0371056D01*
X0409167Y0372655D02*
X0561811Y0372655D01*
X0563253Y0374253D02*
X0409167Y0374253D01*
X0409167Y0375852D02*
X0565518Y0375852D01*
X0561145Y0406857D02*
X0564799Y0408370D01*
X0567596Y0411168D01*
X0569110Y0414822D01*
X0569110Y0418778D01*
X0567596Y0422432D01*
X0564799Y0425230D01*
X0561145Y0426743D01*
X0557189Y0426743D01*
X0553534Y0425230D01*
X0550737Y0422432D01*
X0549223Y0418778D01*
X0549223Y0414822D01*
X0550737Y0411168D01*
X0553534Y0408370D01*
X0557189Y0406857D01*
X0561145Y0406857D01*
X0563475Y0407822D02*
X0574859Y0407822D01*
X0573534Y0408370D02*
X0577189Y0406857D01*
X0581145Y0406857D01*
X0584799Y0408370D01*
X0587596Y0411168D01*
X0589110Y0414822D01*
X0589110Y0418778D01*
X0587596Y0422432D01*
X0584799Y0425230D01*
X0581145Y0426743D01*
X0577189Y0426743D01*
X0573534Y0425230D01*
X0570737Y0422432D01*
X0569223Y0418778D01*
X0569223Y0414822D01*
X0570737Y0411168D01*
X0573534Y0408370D01*
X0572484Y0409420D02*
X0565849Y0409420D01*
X0567448Y0411019D02*
X0570886Y0411019D01*
X0570137Y0412617D02*
X0568197Y0412617D01*
X0568859Y0414216D02*
X0569474Y0414216D01*
X0569223Y0415814D02*
X0569110Y0415814D01*
X0569110Y0417413D02*
X0569223Y0417413D01*
X0569320Y0419011D02*
X0569013Y0419011D01*
X0568351Y0420610D02*
X0569982Y0420610D01*
X0570644Y0422208D02*
X0567689Y0422208D01*
X0566222Y0423807D02*
X0572112Y0423807D01*
X0573959Y0425405D02*
X0564374Y0425405D01*
X0553959Y0425405D02*
X0544374Y0425405D01*
X0544799Y0425230D02*
X0541145Y0426743D01*
X0537189Y0426743D01*
X0533534Y0425230D01*
X0530737Y0422432D01*
X0529223Y0418778D01*
X0529223Y0414822D01*
X0530737Y0411168D01*
X0533534Y0408370D01*
X0537189Y0406857D01*
X0541145Y0406857D01*
X0544799Y0408370D01*
X0547596Y0411168D01*
X0549110Y0414822D01*
X0549110Y0418778D01*
X0547596Y0422432D01*
X0544799Y0425230D01*
X0546222Y0423807D02*
X0552112Y0423807D01*
X0550644Y0422208D02*
X0547689Y0422208D01*
X0548351Y0420610D02*
X0549982Y0420610D01*
X0549320Y0419011D02*
X0549013Y0419011D01*
X0549110Y0417413D02*
X0549223Y0417413D01*
X0549223Y0415814D02*
X0549110Y0415814D01*
X0548859Y0414216D02*
X0549474Y0414216D01*
X0550137Y0412617D02*
X0548197Y0412617D01*
X0547448Y0411019D02*
X0550886Y0411019D01*
X0552484Y0409420D02*
X0545849Y0409420D01*
X0543475Y0407822D02*
X0554859Y0407822D01*
X0534859Y0407822D02*
X0513475Y0407822D01*
X0515849Y0409420D02*
X0532484Y0409420D01*
X0530886Y0411019D02*
X0517448Y0411019D01*
X0518197Y0412617D02*
X0530137Y0412617D01*
X0529474Y0414216D02*
X0518859Y0414216D01*
X0519110Y0415814D02*
X0529223Y0415814D01*
X0529223Y0417413D02*
X0519110Y0417413D01*
X0519013Y0419011D02*
X0529320Y0419011D01*
X0529982Y0420610D02*
X0518351Y0420610D01*
X0517689Y0422208D02*
X0530644Y0422208D01*
X0532112Y0423807D02*
X0516222Y0423807D01*
X0514374Y0425405D02*
X0533959Y0425405D01*
X0537189Y0436857D02*
X0541145Y0436857D01*
X0544799Y0438370D01*
X0547596Y0441168D01*
X0549110Y0444822D01*
X0549110Y0448778D01*
X0547596Y0452432D01*
X0544799Y0455230D01*
X0541145Y0456743D01*
X0537189Y0456743D01*
X0533534Y0455230D01*
X0530737Y0452432D01*
X0529223Y0448778D01*
X0529223Y0444822D01*
X0530737Y0441168D01*
X0533534Y0438370D01*
X0537189Y0436857D01*
X0533961Y0438194D02*
X0514372Y0438194D01*
X0514799Y0438370D02*
X0517596Y0441168D01*
X0519110Y0444822D01*
X0519110Y0448778D01*
X0517596Y0452432D01*
X0514799Y0455230D01*
X0511145Y0456743D01*
X0507189Y0456743D01*
X0503534Y0455230D01*
X0500737Y0452432D01*
X0499223Y0448778D01*
X0499223Y0444822D01*
X0500737Y0441168D01*
X0503534Y0438370D01*
X0507189Y0436857D01*
X0511145Y0436857D01*
X0514799Y0438370D01*
X0516221Y0439792D02*
X0532113Y0439792D01*
X0530645Y0441391D02*
X0517689Y0441391D01*
X0518351Y0442989D02*
X0529983Y0442989D01*
X0529320Y0444588D02*
X0519013Y0444588D01*
X0519110Y0446186D02*
X0529223Y0446186D01*
X0529223Y0447785D02*
X0519110Y0447785D01*
X0518859Y0449383D02*
X0529474Y0449383D01*
X0530136Y0450982D02*
X0518197Y0450982D01*
X0517448Y0452580D02*
X0530885Y0452580D01*
X0532483Y0454179D02*
X0515850Y0454179D01*
X0513477Y0455777D02*
X0534856Y0455777D01*
X0543477Y0455777D02*
X0554856Y0455777D01*
X0553534Y0455230D02*
X0550737Y0452432D01*
X0549223Y0448778D01*
X0549223Y0444822D01*
X0550737Y0441168D01*
X0553534Y0438370D01*
X0557189Y0436857D01*
X0561145Y0436857D01*
X0564799Y0438370D01*
X0567596Y0441168D01*
X0569110Y0444822D01*
X0569110Y0448778D01*
X0567596Y0452432D01*
X0564799Y0455230D01*
X0561145Y0456743D01*
X0557189Y0456743D01*
X0553534Y0455230D01*
X0552483Y0454179D02*
X0545850Y0454179D01*
X0547448Y0452580D02*
X0550885Y0452580D01*
X0550136Y0450982D02*
X0548197Y0450982D01*
X0548859Y0449383D02*
X0549474Y0449383D01*
X0549223Y0447785D02*
X0549110Y0447785D01*
X0549110Y0446186D02*
X0549223Y0446186D01*
X0549320Y0444588D02*
X0549013Y0444588D01*
X0548351Y0442989D02*
X0549983Y0442989D01*
X0550645Y0441391D02*
X0547689Y0441391D01*
X0546221Y0439792D02*
X0552113Y0439792D01*
X0553961Y0438194D02*
X0544372Y0438194D01*
X0564372Y0438194D02*
X0573961Y0438194D01*
X0573534Y0438370D02*
X0577189Y0436857D01*
X0581145Y0436857D01*
X0584799Y0438370D01*
X0587596Y0441168D01*
X0589110Y0444822D01*
X0589110Y0448778D01*
X0587596Y0452432D01*
X0584799Y0455230D01*
X0581145Y0456743D01*
X0577189Y0456743D01*
X0573534Y0455230D01*
X0570737Y0452432D01*
X0569223Y0448778D01*
X0569223Y0444822D01*
X0570737Y0441168D01*
X0573534Y0438370D01*
X0572113Y0439792D02*
X0566221Y0439792D01*
X0567689Y0441391D02*
X0570645Y0441391D01*
X0569983Y0442989D02*
X0568351Y0442989D01*
X0569013Y0444588D02*
X0569320Y0444588D01*
X0569223Y0446186D02*
X0569110Y0446186D01*
X0569110Y0447785D02*
X0569223Y0447785D01*
X0569474Y0449383D02*
X0568859Y0449383D01*
X0568197Y0450982D02*
X0570136Y0450982D01*
X0570885Y0452580D02*
X0567448Y0452580D01*
X0565850Y0454179D02*
X0572483Y0454179D01*
X0574856Y0455777D02*
X0563477Y0455777D01*
X0583477Y0455777D02*
X0592688Y0455777D01*
X0592688Y0454179D02*
X0585850Y0454179D01*
X0587448Y0452580D02*
X0592688Y0452580D01*
X0592688Y0450982D02*
X0588197Y0450982D01*
X0588859Y0449383D02*
X0592688Y0449383D01*
X0592688Y0447785D02*
X0589110Y0447785D01*
X0589110Y0446186D02*
X0592688Y0446186D01*
X0592688Y0444588D02*
X0589013Y0444588D01*
X0588351Y0442989D02*
X0592688Y0442989D01*
X0592688Y0441391D02*
X0587689Y0441391D01*
X0586221Y0439792D02*
X0592688Y0439792D01*
X0592688Y0438194D02*
X0584372Y0438194D01*
X0592688Y0436595D02*
X0433367Y0436595D01*
X0433361Y0434997D02*
X0592688Y0434997D01*
X0592688Y0433398D02*
X0432699Y0433398D01*
X0432037Y0431800D02*
X0592688Y0431800D01*
X0592688Y0430201D02*
X0432699Y0430201D01*
X0433362Y0428603D02*
X0592688Y0428603D01*
X0592688Y0427004D02*
X0433367Y0427004D01*
X0433367Y0438194D02*
X0503961Y0438194D01*
X0502113Y0439792D02*
X0432869Y0439792D01*
X0432207Y0441391D02*
X0474502Y0441391D01*
X0474069Y0441570D02*
X0477376Y0440200D01*
X0480957Y0440200D01*
X0484265Y0441570D01*
X0486796Y0444102D01*
X0488167Y0447410D01*
X0488167Y0456190D01*
X0486796Y0459498D01*
X0484265Y0462030D01*
X0480957Y0463400D01*
X0477376Y0463400D01*
X0474069Y0462030D01*
X0471537Y0459498D01*
X0470167Y0456190D01*
X0470167Y0447410D01*
X0471537Y0444102D01*
X0474069Y0441570D01*
X0472650Y0442989D02*
X0432530Y0442989D01*
X0433192Y0444588D02*
X0471336Y0444588D01*
X0470673Y0446186D02*
X0433367Y0446186D01*
X0433367Y0447785D02*
X0470167Y0447785D01*
X0470167Y0449383D02*
X0433038Y0449383D01*
X0432376Y0450982D02*
X0470167Y0450982D01*
X0470167Y0452580D02*
X0432360Y0452580D01*
X0433022Y0454179D02*
X0470167Y0454179D01*
X0470167Y0455777D02*
X0433367Y0455777D01*
X0433367Y0457376D02*
X0470658Y0457376D01*
X0471320Y0458974D02*
X0433208Y0458974D01*
X0432545Y0460573D02*
X0472611Y0460573D01*
X0474410Y0462171D02*
X0431723Y0462171D01*
X0430125Y0463770D02*
X0592688Y0463770D01*
X0592688Y0465368D02*
X0427199Y0465368D01*
X0404167Y0466967D02*
X0313535Y0466967D01*
X0313535Y0468565D02*
X0404167Y0468565D01*
X0404167Y0470164D02*
X0312914Y0470164D01*
X0312252Y0471762D02*
X0404167Y0471762D01*
X0404167Y0473361D02*
X0312882Y0473361D01*
X0313535Y0474959D02*
X0404167Y0474959D01*
X0404167Y0476558D02*
X0313535Y0476558D01*
X0313535Y0478156D02*
X0404167Y0478156D01*
X0404167Y0479755D02*
X0313083Y0479755D01*
X0312421Y0481353D02*
X0404167Y0481353D01*
X0404167Y0482952D02*
X0311264Y0482952D01*
X0309665Y0484550D02*
X0404167Y0484550D01*
X0404167Y0486149D02*
X0306077Y0486149D01*
X0306793Y0487747D02*
X0404167Y0487747D01*
X0404167Y0489346D02*
X0309962Y0489346D01*
X0311560Y0490944D02*
X0404167Y0490944D01*
X0404167Y0492543D02*
X0312544Y0492543D01*
X0313206Y0494141D02*
X0404167Y0494141D01*
X0404167Y0495740D02*
X0313535Y0495740D01*
X0313535Y0497339D02*
X0404167Y0497339D01*
X0404167Y0498937D02*
X0313422Y0498937D01*
X0312760Y0500536D02*
X0404167Y0500536D01*
X0404167Y0502134D02*
X0312374Y0502134D01*
X0313036Y0503733D02*
X0404167Y0503733D01*
X0404167Y0505331D02*
X0313535Y0505331D01*
X0313535Y0506930D02*
X0404167Y0506930D01*
X0404167Y0508528D02*
X0313535Y0508528D01*
X0312929Y0510127D02*
X0404167Y0510127D01*
X0404167Y0511725D02*
X0312267Y0511725D01*
X0312867Y0513324D02*
X0404167Y0513324D01*
X0404167Y0514922D02*
X0313529Y0514922D01*
X0313535Y0516521D02*
X0404167Y0516521D01*
X0404167Y0518119D02*
X0313535Y0518119D01*
X0313099Y0519718D02*
X0404167Y0519718D01*
X0404167Y0521316D02*
X0312436Y0521316D01*
X0312698Y0522915D02*
X0404167Y0522915D01*
X0404167Y0524513D02*
X0313360Y0524513D01*
X0313535Y0526112D02*
X0404167Y0526112D01*
X0404167Y0527710D02*
X0313535Y0527710D01*
X0313268Y0529309D02*
X0404167Y0529309D01*
X0404167Y0530907D02*
X0312606Y0530907D01*
X0312528Y0532506D02*
X0404167Y0532506D01*
X0404167Y0534104D02*
X0313190Y0534104D01*
X0313535Y0535703D02*
X0404167Y0535703D01*
X0404167Y0537301D02*
X0313535Y0537301D01*
X0313437Y0538900D02*
X0404167Y0538900D01*
X0404167Y0540498D02*
X0312775Y0540498D01*
X0312359Y0542097D02*
X0404167Y0542097D01*
X0404167Y0543695D02*
X0313021Y0543695D01*
X0313535Y0545294D02*
X0404167Y0545294D01*
X0404167Y0546892D02*
X0313535Y0546892D01*
X0313535Y0548491D02*
X0404167Y0548491D01*
X0404167Y0550089D02*
X0312945Y0550089D01*
X0312282Y0551688D02*
X0404167Y0551688D01*
X0404167Y0553286D02*
X0310929Y0553286D01*
X0309129Y0554885D02*
X0404167Y0554885D01*
X0404167Y0556483D02*
X0303535Y0556483D01*
X0303535Y0558082D02*
X0404167Y0558082D01*
X0404167Y0559680D02*
X0303114Y0559680D01*
X0302452Y0561279D02*
X0404167Y0561279D01*
X0404167Y0562877D02*
X0301338Y0562877D01*
X0299740Y0564476D02*
X0404167Y0564476D01*
X0404167Y0566074D02*
X0296257Y0566074D01*
X0292076Y0566074D02*
X0200567Y0566074D01*
X0200567Y0564476D02*
X0288594Y0564476D01*
X0286995Y0562877D02*
X0200567Y0562877D01*
X0200567Y0561279D02*
X0285882Y0561279D01*
X0285219Y0559680D02*
X0200567Y0559680D01*
X0200567Y0558082D02*
X0284798Y0558082D01*
X0284798Y0556483D02*
X0200567Y0556483D01*
X0200567Y0554885D02*
X0284820Y0554885D01*
X0285482Y0553286D02*
X0200567Y0553286D01*
X0200567Y0551688D02*
X0286051Y0551688D01*
X0285389Y0550089D02*
X0268605Y0550089D01*
X0270487Y0548491D02*
X0284798Y0548491D01*
X0284798Y0546892D02*
X0272015Y0546892D01*
X0273167Y0545294D02*
X0284798Y0545294D01*
X0285312Y0543695D02*
X0273340Y0543695D01*
X0273367Y0542097D02*
X0285974Y0542097D01*
X0285558Y0540498D02*
X0273367Y0540498D01*
X0273367Y0538900D02*
X0284896Y0538900D01*
X0284798Y0537301D02*
X0273367Y0537301D01*
X0273367Y0535703D02*
X0276619Y0535703D01*
X0273458Y0534104D02*
X0273367Y0534104D01*
X0281714Y0535703D02*
X0284798Y0535703D01*
X0284876Y0534104D02*
X0285143Y0534104D01*
X0287857Y0529861D02*
X0288860Y0528858D01*
X0292303Y0527431D01*
X0294798Y0527431D01*
X0294798Y0526168D01*
X0292303Y0526168D01*
X0288860Y0524742D01*
X0288367Y0524249D01*
X0288367Y0528630D01*
X0287857Y0529861D01*
X0288086Y0529309D02*
X0288409Y0529309D01*
X0288367Y0527710D02*
X0291630Y0527710D01*
X0292166Y0526112D02*
X0288367Y0526112D01*
X0288367Y0524513D02*
X0288631Y0524513D01*
X0288367Y0509351D02*
X0288860Y0508858D01*
X0292303Y0507431D01*
X0294798Y0507431D01*
X0294798Y0506168D01*
X0292303Y0506168D01*
X0288860Y0504742D01*
X0288367Y0504249D01*
X0288367Y0509351D01*
X0288367Y0508528D02*
X0289656Y0508528D01*
X0288367Y0506930D02*
X0294798Y0506930D01*
X0290281Y0505331D02*
X0288367Y0505331D01*
X0254967Y0505331D02*
X0200567Y0505331D01*
X0200567Y0503733D02*
X0254967Y0503733D01*
X0254967Y0502134D02*
X0200567Y0502134D01*
X0200567Y0500536D02*
X0209970Y0500536D01*
X0208942Y0499942D02*
X0207025Y0498024D01*
X0205669Y0495676D01*
X0204967Y0493056D01*
X0204967Y0490344D01*
X0205669Y0487724D01*
X0207025Y0485376D01*
X0208942Y0483458D01*
X0211291Y0482102D01*
X0213911Y0481400D01*
X0224423Y0481400D01*
X0227042Y0482102D01*
X0229391Y0483458D01*
X0231309Y0485376D01*
X0232665Y0487724D01*
X0233367Y0490344D01*
X0233367Y0493056D01*
X0232665Y0495676D01*
X0231309Y0498024D01*
X0229391Y0499942D01*
X0227042Y0501298D01*
X0224423Y0502000D01*
X0213911Y0502000D01*
X0211291Y0501298D01*
X0208942Y0499942D01*
X0207937Y0498937D02*
X0200567Y0498937D01*
X0200567Y0497339D02*
X0206629Y0497339D01*
X0205706Y0495740D02*
X0200567Y0495740D01*
X0200567Y0494141D02*
X0205258Y0494141D01*
X0204967Y0492543D02*
X0200567Y0492543D01*
X0200567Y0490944D02*
X0204967Y0490944D01*
X0205234Y0489346D02*
X0200567Y0489346D01*
X0200567Y0487747D02*
X0205662Y0487747D01*
X0206578Y0486149D02*
X0200567Y0486149D01*
X0200567Y0484550D02*
X0207850Y0484550D01*
X0209819Y0482952D02*
X0200567Y0482952D01*
X0200567Y0481353D02*
X0254967Y0481353D01*
X0254967Y0479755D02*
X0200567Y0479755D01*
X0200567Y0478156D02*
X0254967Y0478156D01*
X0254967Y0476558D02*
X0200567Y0476558D01*
X0200567Y0474959D02*
X0254967Y0474959D01*
X0254967Y0473361D02*
X0200567Y0473361D01*
X0200567Y0471762D02*
X0254967Y0471762D01*
X0254967Y0470164D02*
X0200567Y0470164D01*
X0200567Y0468565D02*
X0254967Y0468565D01*
X0254967Y0466967D02*
X0200567Y0466967D01*
X0200567Y0465368D02*
X0254967Y0465368D01*
X0254967Y0463770D02*
X0200567Y0463770D01*
X0200567Y0462171D02*
X0254967Y0462171D01*
X0254967Y0460573D02*
X0200567Y0460573D01*
X0200567Y0458974D02*
X0254967Y0458974D01*
X0254967Y0457376D02*
X0200567Y0457376D01*
X0200567Y0455777D02*
X0254967Y0455777D01*
X0254967Y0454179D02*
X0200567Y0454179D01*
X0200567Y0452580D02*
X0254967Y0452580D01*
X0254967Y0450982D02*
X0200567Y0450982D01*
X0200567Y0449383D02*
X0254967Y0449383D01*
X0254967Y0447785D02*
X0200567Y0447785D01*
X0200567Y0446186D02*
X0254967Y0446186D01*
X0254967Y0444588D02*
X0200567Y0444588D01*
X0200567Y0442989D02*
X0254967Y0442989D01*
X0254967Y0441391D02*
X0200567Y0441391D01*
X0200567Y0439792D02*
X0254967Y0439792D01*
X0254967Y0438194D02*
X0200567Y0438194D01*
X0200567Y0436595D02*
X0254967Y0436595D01*
X0254967Y0434997D02*
X0200567Y0434997D01*
X0200567Y0433398D02*
X0254967Y0433398D01*
X0254967Y0431800D02*
X0200567Y0431800D01*
X0200567Y0430201D02*
X0254967Y0430201D01*
X0254967Y0428603D02*
X0200567Y0428603D01*
X0200567Y0427004D02*
X0254967Y0427004D01*
X0254967Y0425405D02*
X0200567Y0425405D01*
X0200567Y0423807D02*
X0254967Y0423807D01*
X0254967Y0422208D02*
X0200567Y0422208D01*
X0200567Y0420610D02*
X0254967Y0420610D01*
X0254967Y0419011D02*
X0200567Y0419011D01*
X0200567Y0417413D02*
X0254967Y0417413D01*
X0254967Y0415814D02*
X0227880Y0415814D01*
X0227042Y0416298D02*
X0224423Y0417000D01*
X0213911Y0417000D01*
X0211291Y0416298D01*
X0208942Y0414942D01*
X0207025Y0413024D01*
X0205669Y0410676D01*
X0204967Y0408056D01*
X0204967Y0405344D01*
X0205669Y0402724D01*
X0207025Y0400376D01*
X0208942Y0398458D01*
X0211291Y0397102D01*
X0213911Y0396400D01*
X0224423Y0396400D01*
X0227042Y0397102D01*
X0229391Y0398458D01*
X0231309Y0400376D01*
X0232665Y0402724D01*
X0233367Y0405344D01*
X0233367Y0408056D01*
X0232665Y0410676D01*
X0231309Y0413024D01*
X0229391Y0414942D01*
X0227042Y0416298D01*
X0230117Y0414216D02*
X0254967Y0414216D01*
X0254967Y0412617D02*
X0231544Y0412617D01*
X0232467Y0411019D02*
X0254967Y0411019D01*
X0254967Y0409420D02*
X0233001Y0409420D01*
X0233367Y0407822D02*
X0254967Y0407822D01*
X0254967Y0406223D02*
X0233367Y0406223D01*
X0233174Y0404625D02*
X0254967Y0404625D01*
X0254967Y0403026D02*
X0232746Y0403026D01*
X0231916Y0401428D02*
X0254967Y0401428D01*
X0254967Y0399829D02*
X0230762Y0399829D01*
X0228998Y0398231D02*
X0254967Y0398231D01*
X0254967Y0396632D02*
X0225290Y0396632D01*
X0213044Y0396632D02*
X0200567Y0396632D01*
X0200567Y0395034D02*
X0254967Y0395034D01*
X0254967Y0393435D02*
X0200567Y0393435D01*
X0200567Y0391837D02*
X0254967Y0391837D01*
X0254967Y0390238D02*
X0200567Y0390238D01*
X0200567Y0388640D02*
X0254967Y0388640D01*
X0254967Y0387041D02*
X0200567Y0387041D01*
X0200567Y0385443D02*
X0254967Y0385443D01*
X0254967Y0383844D02*
X0200567Y0383844D01*
X0200567Y0382246D02*
X0254967Y0382246D01*
X0254967Y0380647D02*
X0200567Y0380647D01*
X0200567Y0379049D02*
X0254967Y0379049D01*
X0254967Y0377450D02*
X0200567Y0377450D01*
X0200567Y0375852D02*
X0254967Y0375852D01*
X0254967Y0374253D02*
X0200567Y0374253D01*
X0200567Y0372655D02*
X0254967Y0372655D01*
X0254967Y0371056D02*
X0200567Y0371056D01*
X0200567Y0369458D02*
X0254967Y0369458D01*
X0254967Y0367859D02*
X0200567Y0367859D01*
X0200567Y0366261D02*
X0254967Y0366261D01*
X0254967Y0364662D02*
X0200567Y0364662D01*
X0200567Y0363064D02*
X0254967Y0363064D01*
X0254967Y0361465D02*
X0200567Y0361465D01*
X0200567Y0359867D02*
X0254967Y0359867D01*
X0254967Y0358268D02*
X0200567Y0358268D01*
X0200567Y0356670D02*
X0254967Y0356670D01*
X0254967Y0355071D02*
X0200567Y0355071D01*
X0200567Y0353472D02*
X0254967Y0353472D01*
X0254967Y0351874D02*
X0200567Y0351874D01*
X0200567Y0350275D02*
X0209914Y0350275D01*
X0210439Y0350800D02*
X0205167Y0345528D01*
X0205167Y0338072D01*
X0210439Y0332800D01*
X0217895Y0332800D01*
X0223167Y0338072D01*
X0223167Y0345528D01*
X0217895Y0350800D01*
X0210439Y0350800D01*
X0208316Y0348677D02*
X0200567Y0348677D01*
X0200567Y0347078D02*
X0206717Y0347078D01*
X0205167Y0345480D02*
X0200567Y0345480D01*
X0200567Y0343881D02*
X0205167Y0343881D01*
X0205167Y0342283D02*
X0200567Y0342283D01*
X0200567Y0340684D02*
X0205167Y0340684D01*
X0205167Y0339086D02*
X0200567Y0339086D01*
X0200567Y0337487D02*
X0205751Y0337487D01*
X0207350Y0335889D02*
X0200567Y0335889D01*
X0200567Y0334290D02*
X0208948Y0334290D01*
X0219385Y0334290D02*
X0258666Y0334290D01*
X0257067Y0335889D02*
X0220983Y0335889D01*
X0222582Y0337487D02*
X0255751Y0337487D01*
X0255167Y0339086D02*
X0223167Y0339086D01*
X0223167Y0340684D02*
X0254967Y0340684D01*
X0254967Y0342283D02*
X0223167Y0342283D01*
X0223167Y0343881D02*
X0254967Y0343881D01*
X0254967Y0345480D02*
X0223167Y0345480D01*
X0221616Y0347078D02*
X0254967Y0347078D01*
X0254967Y0348677D02*
X0220018Y0348677D01*
X0218419Y0350275D02*
X0254967Y0350275D01*
X0273367Y0350275D02*
X0404167Y0350275D01*
X0404167Y0348677D02*
X0273367Y0348677D01*
X0273367Y0347078D02*
X0404167Y0347078D01*
X0404167Y0345480D02*
X0273367Y0345480D01*
X0273367Y0343881D02*
X0404167Y0343881D01*
X0404167Y0342283D02*
X0273367Y0342283D01*
X0273367Y0340684D02*
X0404167Y0340684D01*
X0404167Y0339086D02*
X0273167Y0339086D01*
X0272582Y0337487D02*
X0404167Y0337487D01*
X0404167Y0335889D02*
X0271266Y0335889D01*
X0269668Y0334290D02*
X0404167Y0334290D01*
X0404167Y0332692D02*
X0266218Y0332692D01*
X0262115Y0332692D02*
X0200567Y0332692D01*
X0200567Y0331093D02*
X0404167Y0331093D01*
X0404167Y0329495D02*
X0200567Y0329495D01*
X0200567Y0327896D02*
X0404167Y0327896D01*
X0404167Y0326800D02*
X0200567Y0326800D01*
X0200567Y0581800D01*
X0404167Y0581800D01*
X0404167Y0326800D01*
X0409167Y0326298D02*
X0592688Y0326298D01*
X0592688Y0327896D02*
X0476529Y0327896D01*
X0480108Y0329495D02*
X0592688Y0329495D01*
X0592688Y0331093D02*
X0481826Y0331093D01*
X0482953Y0332692D02*
X0592688Y0332692D01*
X0592688Y0334290D02*
X0483763Y0334290D01*
X0471605Y0327896D02*
X0409167Y0327896D01*
X0409167Y0329495D02*
X0468025Y0329495D01*
X0466307Y0331093D02*
X0409167Y0331093D01*
X0409167Y0332692D02*
X0465180Y0332692D01*
X0464371Y0334290D02*
X0409167Y0334290D01*
X0409167Y0335889D02*
X0463942Y0335889D01*
X0463767Y0337487D02*
X0409167Y0337487D01*
X0409167Y0339086D02*
X0463767Y0339086D01*
X0463767Y0340684D02*
X0409167Y0340684D01*
X0409167Y0342283D02*
X0463767Y0342283D01*
X0463767Y0343881D02*
X0409167Y0343881D01*
X0409167Y0345480D02*
X0463767Y0345480D01*
X0463773Y0347078D02*
X0409167Y0347078D01*
X0409167Y0348677D02*
X0464201Y0348677D01*
X0464815Y0350275D02*
X0409167Y0350275D01*
X0409167Y0351874D02*
X0465738Y0351874D01*
X0467273Y0353472D02*
X0409167Y0353472D01*
X0404167Y0353472D02*
X0273367Y0353472D01*
X0273367Y0351874D02*
X0404167Y0351874D01*
X0404167Y0355071D02*
X0273367Y0355071D01*
X0273367Y0356670D02*
X0404167Y0356670D01*
X0404167Y0358268D02*
X0308050Y0358268D01*
X0310482Y0359867D02*
X0404167Y0359867D01*
X0404167Y0361465D02*
X0312081Y0361465D01*
X0312759Y0363064D02*
X0404167Y0363064D01*
X0404167Y0364662D02*
X0313421Y0364662D01*
X0313535Y0366261D02*
X0404167Y0366261D01*
X0404167Y0367859D02*
X0313535Y0367859D01*
X0313206Y0369458D02*
X0404167Y0369458D01*
X0404167Y0371056D02*
X0312544Y0371056D01*
X0312590Y0372655D02*
X0404167Y0372655D01*
X0404167Y0374253D02*
X0313252Y0374253D01*
X0313535Y0375852D02*
X0404167Y0375852D01*
X0379162Y0379049D02*
X0339143Y0379049D01*
X0340742Y0380647D02*
X0377392Y0380647D01*
X0376112Y0382246D02*
X0342340Y0382246D01*
X0343167Y0383844D02*
X0375449Y0383844D01*
X0374967Y0385443D02*
X0343167Y0385443D01*
X0343167Y0387041D02*
X0374967Y0387041D01*
X0374987Y0388640D02*
X0343167Y0388640D01*
X0343167Y0390238D02*
X0375649Y0390238D01*
X0376281Y0391837D02*
X0341858Y0391837D01*
X0340259Y0393435D02*
X0375619Y0393435D01*
X0374967Y0398231D02*
X0363325Y0398231D01*
X0364924Y0399829D02*
X0375480Y0399829D01*
X0376142Y0401428D02*
X0366522Y0401428D01*
X0368121Y0403026D02*
X0375788Y0403026D01*
X0375126Y0404625D02*
X0368167Y0404625D01*
X0368167Y0406223D02*
X0374967Y0406223D01*
X0374967Y0407822D02*
X0368167Y0407822D01*
X0368167Y0409420D02*
X0375311Y0409420D01*
X0375973Y0411019D02*
X0367676Y0411019D01*
X0366077Y0412617D02*
X0375958Y0412617D01*
X0428994Y0404625D02*
X0471320Y0404625D01*
X0472612Y0403026D02*
X0430868Y0403026D01*
X0483831Y0441391D02*
X0500645Y0441391D01*
X0499983Y0442989D02*
X0485684Y0442989D01*
X0486998Y0444588D02*
X0499320Y0444588D01*
X0499223Y0446186D02*
X0487660Y0446186D01*
X0488167Y0447785D02*
X0499223Y0447785D01*
X0499474Y0449383D02*
X0488167Y0449383D01*
X0488167Y0450982D02*
X0500136Y0450982D01*
X0500885Y0452580D02*
X0488167Y0452580D01*
X0488167Y0454179D02*
X0502483Y0454179D01*
X0504856Y0455777D02*
X0488167Y0455777D01*
X0487676Y0457376D02*
X0592688Y0457376D01*
X0592688Y0458974D02*
X0487013Y0458974D01*
X0485722Y0460573D02*
X0592688Y0460573D01*
X0592688Y0462171D02*
X0483923Y0462171D01*
X0451115Y0537301D02*
X0438122Y0537301D01*
X0438167Y0538900D02*
X0448005Y0538900D01*
X0446406Y0540498D02*
X0438167Y0540498D01*
X0438167Y0542097D02*
X0445352Y0542097D01*
X0444690Y0543695D02*
X0438167Y0543695D01*
X0438167Y0545294D02*
X0444223Y0545294D01*
X0444223Y0546892D02*
X0437876Y0546892D01*
X0437214Y0548491D02*
X0444223Y0548491D01*
X0444767Y0550089D02*
X0436205Y0550089D01*
X0434607Y0551688D02*
X0445429Y0551688D01*
X0450218Y0567673D02*
X0409167Y0567673D01*
X0409167Y0569272D02*
X0447633Y0569272D01*
X0446035Y0570870D02*
X0432574Y0570870D01*
X0435163Y0572469D02*
X0445198Y0572469D01*
X0444536Y0574067D02*
X0436762Y0574067D01*
X0437444Y0575666D02*
X0444223Y0575666D01*
X0444223Y0577264D02*
X0438106Y0577264D01*
X0438167Y0578863D02*
X0444258Y0578863D01*
X0444921Y0580461D02*
X0438167Y0580461D01*
X0438167Y0582060D02*
X0445583Y0582060D01*
X0446963Y0583658D02*
X0438167Y0583658D01*
X0427012Y0593249D02*
X0200567Y0593249D01*
X0200567Y0591651D02*
X0423689Y0591651D01*
X0422091Y0590052D02*
X0200567Y0590052D01*
X0200567Y0588454D02*
X0421104Y0588454D01*
X0420442Y0586855D02*
X0200567Y0586855D01*
X0200567Y0580461D02*
X0404167Y0580461D01*
X0404167Y0578863D02*
X0200567Y0578863D01*
X0200567Y0577264D02*
X0404167Y0577264D01*
X0404167Y0575666D02*
X0200567Y0575666D01*
X0200567Y0574067D02*
X0404167Y0574067D01*
X0404167Y0572469D02*
X0200567Y0572469D01*
X0200567Y0570870D02*
X0404167Y0570870D01*
X0404167Y0569272D02*
X0200567Y0569272D01*
X0200567Y0567673D02*
X0404167Y0567673D01*
X0409167Y0570870D02*
X0425759Y0570870D01*
X0423170Y0572469D02*
X0409167Y0572469D01*
X0409167Y0574067D02*
X0421572Y0574067D01*
X0420889Y0575666D02*
X0409167Y0575666D01*
X0409167Y0577264D02*
X0420227Y0577264D01*
X0420167Y0578863D02*
X0409167Y0578863D01*
X0409167Y0580461D02*
X0420167Y0580461D01*
X0420167Y0582060D02*
X0409167Y0582060D01*
X0409167Y0583658D02*
X0420167Y0583658D01*
X0420167Y0585257D02*
X0409167Y0585257D01*
X0292303Y0457431D02*
X0288860Y0458858D01*
X0288367Y0459351D01*
X0288367Y0454249D01*
X0288860Y0454742D01*
X0292303Y0456168D01*
X0294798Y0456168D01*
X0294798Y0457431D01*
X0292303Y0457431D01*
X0291359Y0455777D02*
X0288367Y0455777D01*
X0288367Y0457376D02*
X0294798Y0457376D01*
X0288743Y0458974D02*
X0288367Y0458974D01*
X0285435Y0433398D02*
X0282923Y0433398D01*
X0286098Y0431800D02*
X0273367Y0431800D01*
X0273367Y0433398D02*
X0275410Y0433398D01*
X0273367Y0430201D02*
X0287517Y0430201D01*
X0289476Y0428603D02*
X0273367Y0428603D01*
X0273367Y0427004D02*
X0294798Y0427004D01*
X0290461Y0425405D02*
X0273367Y0425405D01*
X0273367Y0423807D02*
X0287925Y0423807D01*
X0286326Y0422208D02*
X0273367Y0422208D01*
X0273367Y0420610D02*
X0285604Y0420610D01*
X0284942Y0419011D02*
X0273367Y0419011D01*
X0273367Y0417413D02*
X0284798Y0417413D01*
X0284798Y0415814D02*
X0273367Y0415814D01*
X0273367Y0414216D02*
X0285097Y0414216D01*
X0285759Y0412617D02*
X0273367Y0412617D01*
X0273367Y0411019D02*
X0285774Y0411019D01*
X0285112Y0409420D02*
X0273367Y0409420D01*
X0273367Y0407822D02*
X0284798Y0407822D01*
X0284798Y0406223D02*
X0273367Y0406223D01*
X0273367Y0404625D02*
X0284927Y0404625D01*
X0285589Y0403026D02*
X0273367Y0403026D01*
X0273367Y0401428D02*
X0285943Y0401428D01*
X0285281Y0399829D02*
X0273367Y0399829D01*
X0273367Y0398231D02*
X0284798Y0398231D01*
X0284798Y0396632D02*
X0273367Y0396632D01*
X0273367Y0395034D02*
X0284798Y0395034D01*
X0285420Y0393435D02*
X0273367Y0393435D01*
X0273367Y0391837D02*
X0286082Y0391837D01*
X0287479Y0390238D02*
X0273367Y0390238D01*
X0273367Y0388640D02*
X0289386Y0388640D01*
X0290551Y0385443D02*
X0273367Y0385443D01*
X0273367Y0387041D02*
X0294798Y0387041D01*
X0287962Y0383844D02*
X0273367Y0383844D01*
X0273367Y0382246D02*
X0286363Y0382246D01*
X0285620Y0380647D02*
X0273367Y0380647D01*
X0273367Y0379049D02*
X0284958Y0379049D01*
X0284798Y0377450D02*
X0273367Y0377450D01*
X0273367Y0375852D02*
X0284798Y0375852D01*
X0285081Y0374253D02*
X0273367Y0374253D01*
X0273367Y0372655D02*
X0285743Y0372655D01*
X0285789Y0371056D02*
X0273367Y0371056D01*
X0273367Y0369458D02*
X0285127Y0369458D01*
X0284798Y0367859D02*
X0273367Y0367859D01*
X0273367Y0366261D02*
X0284798Y0366261D01*
X0284912Y0364662D02*
X0273367Y0364662D01*
X0273367Y0363064D02*
X0285574Y0363064D01*
X0286253Y0361465D02*
X0273367Y0361465D01*
X0273367Y0359867D02*
X0287851Y0359867D01*
X0290284Y0358268D02*
X0273367Y0358268D01*
X0298050Y0358268D02*
X0300284Y0358268D01*
X0209336Y0398231D02*
X0200567Y0398231D01*
X0200567Y0399829D02*
X0207571Y0399829D01*
X0206417Y0401428D02*
X0200567Y0401428D01*
X0200567Y0403026D02*
X0205588Y0403026D01*
X0205159Y0404625D02*
X0200567Y0404625D01*
X0200567Y0406223D02*
X0204967Y0406223D01*
X0204967Y0407822D02*
X0200567Y0407822D01*
X0200567Y0409420D02*
X0205332Y0409420D01*
X0205867Y0411019D02*
X0200567Y0411019D01*
X0200567Y0412617D02*
X0206790Y0412617D01*
X0208216Y0414216D02*
X0200567Y0414216D01*
X0200567Y0415814D02*
X0210453Y0415814D01*
X0228515Y0482952D02*
X0254967Y0482952D01*
X0254967Y0484550D02*
X0230483Y0484550D01*
X0231755Y0486149D02*
X0254967Y0486149D01*
X0254967Y0487747D02*
X0232671Y0487747D01*
X0233099Y0489346D02*
X0254967Y0489346D01*
X0254967Y0490944D02*
X0233367Y0490944D01*
X0233367Y0492543D02*
X0254967Y0492543D01*
X0254967Y0494141D02*
X0233076Y0494141D01*
X0232628Y0495740D02*
X0254967Y0495740D01*
X0254967Y0497339D02*
X0231705Y0497339D01*
X0230396Y0498937D02*
X0254967Y0498937D01*
X0254967Y0500536D02*
X0228363Y0500536D01*
X0254967Y0506930D02*
X0200567Y0506930D01*
X0200567Y0508528D02*
X0254967Y0508528D01*
X0254967Y0510127D02*
X0200567Y0510127D01*
X0200567Y0511725D02*
X0254967Y0511725D01*
X0254967Y0513324D02*
X0200567Y0513324D01*
X0200567Y0514922D02*
X0254967Y0514922D01*
X0254967Y0516521D02*
X0200567Y0516521D01*
X0200567Y0518119D02*
X0254967Y0518119D01*
X0254967Y0519718D02*
X0200567Y0519718D01*
X0200567Y0521316D02*
X0254967Y0521316D01*
X0254967Y0522915D02*
X0200567Y0522915D01*
X0200567Y0524513D02*
X0254967Y0524513D01*
X0254967Y0526112D02*
X0200567Y0526112D01*
X0200567Y0527710D02*
X0254967Y0527710D01*
X0254967Y0529309D02*
X0200567Y0529309D01*
X0200567Y0530907D02*
X0254967Y0530907D01*
X0254967Y0532506D02*
X0200567Y0532506D01*
X0200567Y0534104D02*
X0209134Y0534104D01*
X0210439Y0532800D02*
X0217895Y0532800D01*
X0223167Y0538072D01*
X0223167Y0545528D01*
X0217895Y0550800D01*
X0210439Y0550800D01*
X0205167Y0545528D01*
X0205167Y0538072D01*
X0210439Y0532800D01*
X0207536Y0535703D02*
X0200567Y0535703D01*
X0200567Y0537301D02*
X0205937Y0537301D01*
X0205167Y0538900D02*
X0200567Y0538900D01*
X0200567Y0540498D02*
X0205167Y0540498D01*
X0205167Y0542097D02*
X0200567Y0542097D01*
X0200567Y0543695D02*
X0205167Y0543695D01*
X0205167Y0545294D02*
X0200567Y0545294D01*
X0200567Y0546892D02*
X0206531Y0546892D01*
X0208130Y0548491D02*
X0200567Y0548491D01*
X0200567Y0550089D02*
X0209728Y0550089D01*
X0218605Y0550089D02*
X0259728Y0550089D01*
X0257847Y0548491D02*
X0220204Y0548491D01*
X0221802Y0546892D02*
X0256318Y0546892D01*
X0255167Y0545294D02*
X0223167Y0545294D01*
X0223167Y0543695D02*
X0254994Y0543695D01*
X0254967Y0542097D02*
X0223167Y0542097D01*
X0223167Y0540498D02*
X0254967Y0540498D01*
X0254967Y0538900D02*
X0223167Y0538900D01*
X0222396Y0537301D02*
X0254967Y0537301D01*
X0254967Y0535703D02*
X0220797Y0535703D01*
X0219199Y0534104D02*
X0254967Y0534104D01*
X0409167Y0324699D02*
X0592688Y0324699D01*
X0592688Y0295400D02*
X0592688Y0181997D01*
X0492390Y0282295D01*
X0489661Y0285023D01*
X0486096Y0286500D01*
X0162611Y0286500D01*
X0162309Y0287024D01*
X0160391Y0288942D01*
X0158042Y0290298D01*
X0155423Y0291000D01*
X0152711Y0291000D01*
X0150091Y0290298D01*
X0147742Y0288942D01*
X0145825Y0287024D01*
X0144469Y0284676D01*
X0143767Y0282056D01*
X0143767Y0271544D01*
X0144469Y0268924D01*
X0145825Y0266576D01*
X0147742Y0264658D01*
X0150091Y0263302D01*
X0152711Y0262600D01*
X0155423Y0262600D01*
X0158042Y0263302D01*
X0160391Y0264658D01*
X0162309Y0266576D01*
X0162611Y0267100D01*
X0179467Y0267100D01*
X0179467Y0155800D01*
X0172176Y0155800D01*
X0168869Y0154430D01*
X0166337Y0151898D01*
X0164967Y0148590D01*
X0164967Y0145010D01*
X0166048Y0142399D01*
X0165943Y0142295D01*
X0164467Y0138729D01*
X0164467Y0134871D01*
X0165943Y0131305D01*
X0166048Y0131201D01*
X0164967Y0128590D01*
X0164967Y0125010D01*
X0166048Y0122399D01*
X0165943Y0122295D01*
X0164467Y0118729D01*
X0164467Y0114871D01*
X0165943Y0111305D01*
X0166048Y0111201D01*
X0164967Y0108590D01*
X0164967Y0105010D01*
X0166048Y0102399D01*
X0165943Y0102295D01*
X0164467Y0098729D01*
X0164467Y0094871D01*
X0165943Y0091305D01*
X0166048Y0091201D01*
X0164967Y0088590D01*
X0164967Y0085010D01*
X0166048Y0082399D01*
X0165943Y0082295D01*
X0164467Y0078729D01*
X0164467Y0074871D01*
X0165943Y0071305D01*
X0168672Y0068577D01*
X0172237Y0067100D01*
X0184167Y0067100D01*
X0184167Y0008200D01*
X0047445Y0008200D01*
X0049378Y0009001D01*
X0051966Y0011589D01*
X0071966Y0031589D01*
X0073367Y0034970D01*
X0073367Y0090200D01*
X0075957Y0090200D01*
X0079167Y0091530D01*
X0082376Y0090200D01*
X0085957Y0090200D01*
X0089265Y0091570D01*
X0091796Y0094102D01*
X0093167Y0097410D01*
X0093167Y0106190D01*
X0091796Y0109498D01*
X0089265Y0112030D01*
X0085957Y0113400D01*
X0082376Y0113400D01*
X0079167Y0112070D01*
X0075957Y0113400D01*
X0072376Y0113400D01*
X0069167Y0112070D01*
X0065957Y0113400D01*
X0062376Y0113400D01*
X0059069Y0112030D01*
X0056537Y0109498D01*
X0055167Y0106190D01*
X0055167Y0104113D01*
X0054967Y0103630D01*
X0054967Y0040611D01*
X0047879Y0033523D01*
X0048367Y0035344D01*
X0048367Y0038056D01*
X0047665Y0040676D01*
X0046309Y0043024D01*
X0044391Y0044942D01*
X0043367Y0045533D01*
X0043367Y0103630D01*
X0043167Y0104113D01*
X0043167Y0106190D01*
X0041796Y0109498D01*
X0039265Y0112030D01*
X0035957Y0113400D01*
X0032376Y0113400D01*
X0029167Y0112070D01*
X0025957Y0113400D01*
X0022376Y0113400D01*
X0019167Y0112070D01*
X0015957Y0113400D01*
X0012376Y0113400D01*
X0010567Y0112650D01*
X0010567Y0120950D01*
X0012376Y0120200D01*
X0015957Y0120200D01*
X0019167Y0121530D01*
X0022376Y0120200D01*
X0025957Y0120200D01*
X0029167Y0121530D01*
X0032376Y0120200D01*
X0035957Y0120200D01*
X0039265Y0121570D01*
X0041796Y0124102D01*
X0043167Y0127410D01*
X0043167Y0129487D01*
X0043367Y0129970D01*
X0043367Y0223167D01*
X0044391Y0223758D01*
X0046309Y0225676D01*
X0047665Y0228024D01*
X0048367Y0230644D01*
X0048367Y0233356D01*
X0047915Y0235041D01*
X0054967Y0227989D01*
X0054967Y0129970D01*
X0055167Y0129487D01*
X0055167Y0127410D01*
X0056537Y0124102D01*
X0059069Y0121570D01*
X0062376Y0120200D01*
X0065957Y0120200D01*
X0069167Y0121530D01*
X0072376Y0120200D01*
X0075957Y0120200D01*
X0079167Y0121530D01*
X0082376Y0120200D01*
X0085957Y0120200D01*
X0089265Y0121570D01*
X0091796Y0124102D01*
X0093167Y0127410D01*
X0093167Y0136190D01*
X0091796Y0139498D01*
X0089265Y0142030D01*
X0085957Y0143400D01*
X0082376Y0143400D01*
X0079167Y0142070D01*
X0075957Y0143400D01*
X0073367Y0143400D01*
X0073367Y0233630D01*
X0071966Y0237011D01*
X0069378Y0239599D01*
X0049478Y0259499D01*
X0046097Y0260900D01*
X0042732Y0260900D01*
X0042042Y0261298D01*
X0039423Y0262000D01*
X0028911Y0262000D01*
X0026291Y0261298D01*
X0023942Y0259942D01*
X0022025Y0258024D01*
X0020669Y0255676D01*
X0019967Y0253056D01*
X0019967Y0250344D01*
X0020669Y0247724D01*
X0022025Y0245376D01*
X0023942Y0243458D01*
X0026291Y0242102D01*
X0027231Y0241850D01*
X0026291Y0241598D01*
X0023942Y0240242D01*
X0022025Y0238324D01*
X0020669Y0235976D01*
X0019967Y0233356D01*
X0019967Y0230644D01*
X0020669Y0228024D01*
X0022025Y0225676D01*
X0023942Y0223758D01*
X0024967Y0223167D01*
X0024967Y0143400D01*
X0022376Y0143400D01*
X0019167Y0142070D01*
X0015957Y0143400D01*
X0012376Y0143400D01*
X0010567Y0142650D01*
X0010567Y0295400D01*
X0592688Y0295400D01*
X0592688Y0294328D02*
X0010567Y0294328D01*
X0010567Y0292729D02*
X0592688Y0292729D01*
X0592688Y0291131D02*
X0010567Y0291131D01*
X0010567Y0289532D02*
X0148764Y0289532D01*
X0146734Y0287934D02*
X0010567Y0287934D01*
X0010567Y0286335D02*
X0145427Y0286335D01*
X0144504Y0284737D02*
X0010567Y0284737D01*
X0010567Y0283138D02*
X0144057Y0283138D01*
X0143767Y0281539D02*
X0010567Y0281539D01*
X0010567Y0279941D02*
X0143767Y0279941D01*
X0143767Y0278342D02*
X0010567Y0278342D01*
X0010567Y0276744D02*
X0143767Y0276744D01*
X0143767Y0275145D02*
X0010567Y0275145D01*
X0010567Y0273547D02*
X0143767Y0273547D01*
X0143767Y0271948D02*
X0010567Y0271948D01*
X0010567Y0270350D02*
X0144087Y0270350D01*
X0144568Y0268751D02*
X0010567Y0268751D01*
X0010567Y0267153D02*
X0145491Y0267153D01*
X0146846Y0265554D02*
X0010567Y0265554D01*
X0010567Y0263956D02*
X0148958Y0263956D01*
X0159175Y0263956D02*
X0179467Y0263956D01*
X0179467Y0265554D02*
X0161287Y0265554D01*
X0179467Y0262357D02*
X0010567Y0262357D01*
X0010567Y0260759D02*
X0025357Y0260759D01*
X0023161Y0259160D02*
X0010567Y0259160D01*
X0010567Y0257562D02*
X0021758Y0257562D01*
X0020835Y0255963D02*
X0010567Y0255963D01*
X0010567Y0254365D02*
X0020317Y0254365D01*
X0019967Y0252766D02*
X0010567Y0252766D01*
X0010567Y0251168D02*
X0019967Y0251168D01*
X0020174Y0249569D02*
X0010567Y0249569D01*
X0010567Y0247971D02*
X0020603Y0247971D01*
X0021449Y0246372D02*
X0010567Y0246372D01*
X0010567Y0244774D02*
X0022627Y0244774D01*
X0024432Y0243175D02*
X0010567Y0243175D01*
X0010567Y0241577D02*
X0026254Y0241577D01*
X0023678Y0239978D02*
X0010567Y0239978D01*
X0010567Y0238380D02*
X0022080Y0238380D01*
X0021134Y0236781D02*
X0010567Y0236781D01*
X0010567Y0235183D02*
X0020456Y0235183D01*
X0020028Y0233584D02*
X0010567Y0233584D01*
X0010567Y0231986D02*
X0019967Y0231986D01*
X0020035Y0230387D02*
X0010567Y0230387D01*
X0010567Y0228789D02*
X0020464Y0228789D01*
X0021150Y0227190D02*
X0010567Y0227190D01*
X0010567Y0225592D02*
X0022109Y0225592D01*
X0023707Y0223993D02*
X0010567Y0223993D01*
X0010567Y0222395D02*
X0024967Y0222395D01*
X0024967Y0220796D02*
X0010567Y0220796D01*
X0010567Y0219198D02*
X0024967Y0219198D01*
X0024967Y0217599D02*
X0010567Y0217599D01*
X0010567Y0216001D02*
X0024967Y0216001D01*
X0024967Y0214402D02*
X0010567Y0214402D01*
X0010567Y0212803D02*
X0024967Y0212803D01*
X0024967Y0211205D02*
X0010567Y0211205D01*
X0010567Y0209606D02*
X0024967Y0209606D01*
X0024967Y0208008D02*
X0010567Y0208008D01*
X0010567Y0206409D02*
X0024967Y0206409D01*
X0024967Y0204811D02*
X0010567Y0204811D01*
X0010567Y0203212D02*
X0024967Y0203212D01*
X0024967Y0201614D02*
X0010567Y0201614D01*
X0010567Y0200015D02*
X0024967Y0200015D01*
X0024967Y0198417D02*
X0010567Y0198417D01*
X0010567Y0196818D02*
X0024967Y0196818D01*
X0024967Y0195220D02*
X0010567Y0195220D01*
X0010567Y0193621D02*
X0024967Y0193621D01*
X0024967Y0192023D02*
X0010567Y0192023D01*
X0010567Y0190424D02*
X0024967Y0190424D01*
X0024967Y0188826D02*
X0010567Y0188826D01*
X0010567Y0187227D02*
X0024967Y0187227D01*
X0024967Y0185629D02*
X0010567Y0185629D01*
X0010567Y0184030D02*
X0024967Y0184030D01*
X0024967Y0182432D02*
X0010567Y0182432D01*
X0010567Y0180833D02*
X0024967Y0180833D01*
X0024967Y0179235D02*
X0010567Y0179235D01*
X0010567Y0177636D02*
X0024967Y0177636D01*
X0024967Y0176038D02*
X0010567Y0176038D01*
X0010567Y0174439D02*
X0024967Y0174439D01*
X0024967Y0172841D02*
X0010567Y0172841D01*
X0010567Y0171242D02*
X0024967Y0171242D01*
X0024967Y0169644D02*
X0010567Y0169644D01*
X0010567Y0168045D02*
X0024967Y0168045D01*
X0024967Y0166447D02*
X0010567Y0166447D01*
X0010567Y0164848D02*
X0024967Y0164848D01*
X0024967Y0163250D02*
X0010567Y0163250D01*
X0010567Y0161651D02*
X0024967Y0161651D01*
X0024967Y0160053D02*
X0010567Y0160053D01*
X0010567Y0158454D02*
X0024967Y0158454D01*
X0024967Y0156856D02*
X0010567Y0156856D01*
X0010567Y0155257D02*
X0024967Y0155257D01*
X0024967Y0153659D02*
X0010567Y0153659D01*
X0010567Y0152060D02*
X0024967Y0152060D01*
X0024967Y0150462D02*
X0010567Y0150462D01*
X0010567Y0148863D02*
X0024967Y0148863D01*
X0024967Y0147265D02*
X0010567Y0147265D01*
X0010567Y0145666D02*
X0024967Y0145666D01*
X0024967Y0144068D02*
X0010567Y0144068D01*
X0018204Y0142469D02*
X0020129Y0142469D01*
X0042121Y0124885D02*
X0056212Y0124885D01*
X0055550Y0126484D02*
X0042783Y0126484D01*
X0043167Y0128082D02*
X0055167Y0128082D01*
X0055086Y0129681D02*
X0043247Y0129681D01*
X0043367Y0131279D02*
X0054967Y0131279D01*
X0054967Y0132878D02*
X0043367Y0132878D01*
X0043367Y0134476D02*
X0054967Y0134476D01*
X0054967Y0136075D02*
X0043367Y0136075D01*
X0043367Y0137673D02*
X0054967Y0137673D01*
X0054967Y0139272D02*
X0043367Y0139272D01*
X0043367Y0140870D02*
X0054967Y0140870D01*
X0054967Y0142469D02*
X0043367Y0142469D01*
X0043367Y0144068D02*
X0054967Y0144068D01*
X0054967Y0145666D02*
X0043367Y0145666D01*
X0043367Y0147265D02*
X0054967Y0147265D01*
X0054967Y0148863D02*
X0043367Y0148863D01*
X0043367Y0150462D02*
X0054967Y0150462D01*
X0054967Y0152060D02*
X0043367Y0152060D01*
X0043367Y0153659D02*
X0054967Y0153659D01*
X0054967Y0155257D02*
X0043367Y0155257D01*
X0043367Y0156856D02*
X0054967Y0156856D01*
X0054967Y0158454D02*
X0043367Y0158454D01*
X0043367Y0160053D02*
X0054967Y0160053D01*
X0054967Y0161651D02*
X0043367Y0161651D01*
X0043367Y0163250D02*
X0054967Y0163250D01*
X0054967Y0164848D02*
X0043367Y0164848D01*
X0043367Y0166447D02*
X0054967Y0166447D01*
X0054967Y0168045D02*
X0043367Y0168045D01*
X0043367Y0169644D02*
X0054967Y0169644D01*
X0054967Y0171242D02*
X0043367Y0171242D01*
X0043367Y0172841D02*
X0054967Y0172841D01*
X0054967Y0174439D02*
X0043367Y0174439D01*
X0043367Y0176038D02*
X0054967Y0176038D01*
X0054967Y0177636D02*
X0043367Y0177636D01*
X0043367Y0179235D02*
X0054967Y0179235D01*
X0054967Y0180833D02*
X0043367Y0180833D01*
X0043367Y0182432D02*
X0054967Y0182432D01*
X0054967Y0184030D02*
X0043367Y0184030D01*
X0043367Y0185629D02*
X0054967Y0185629D01*
X0054967Y0187227D02*
X0043367Y0187227D01*
X0043367Y0188826D02*
X0054967Y0188826D01*
X0054967Y0190424D02*
X0043367Y0190424D01*
X0043367Y0192023D02*
X0054967Y0192023D01*
X0054967Y0193621D02*
X0043367Y0193621D01*
X0043367Y0195220D02*
X0054967Y0195220D01*
X0054967Y0196818D02*
X0043367Y0196818D01*
X0043367Y0198417D02*
X0054967Y0198417D01*
X0054967Y0200015D02*
X0043367Y0200015D01*
X0043367Y0201614D02*
X0054967Y0201614D01*
X0054967Y0203212D02*
X0043367Y0203212D01*
X0043367Y0204811D02*
X0054967Y0204811D01*
X0054967Y0206409D02*
X0043367Y0206409D01*
X0043367Y0208008D02*
X0054967Y0208008D01*
X0054967Y0209606D02*
X0043367Y0209606D01*
X0043367Y0211205D02*
X0054967Y0211205D01*
X0054967Y0212803D02*
X0043367Y0212803D01*
X0043367Y0214402D02*
X0054967Y0214402D01*
X0054967Y0216001D02*
X0043367Y0216001D01*
X0043367Y0217599D02*
X0054967Y0217599D01*
X0054967Y0219198D02*
X0043367Y0219198D01*
X0043367Y0220796D02*
X0054967Y0220796D01*
X0054967Y0222395D02*
X0043367Y0222395D01*
X0044626Y0223993D02*
X0054967Y0223993D01*
X0054967Y0225592D02*
X0046225Y0225592D01*
X0047183Y0227190D02*
X0054967Y0227190D01*
X0054167Y0228789D02*
X0047870Y0228789D01*
X0048298Y0230387D02*
X0052569Y0230387D01*
X0050970Y0231986D02*
X0048367Y0231986D01*
X0048306Y0233584D02*
X0049372Y0233584D01*
X0062605Y0246372D02*
X0179467Y0246372D01*
X0179467Y0244774D02*
X0064204Y0244774D01*
X0065802Y0243175D02*
X0179467Y0243175D01*
X0179467Y0241577D02*
X0067401Y0241577D01*
X0068999Y0239978D02*
X0179467Y0239978D01*
X0179467Y0238380D02*
X0070598Y0238380D01*
X0072061Y0236781D02*
X0179467Y0236781D01*
X0179467Y0235183D02*
X0072724Y0235183D01*
X0073367Y0233584D02*
X0179467Y0233584D01*
X0179467Y0231986D02*
X0073367Y0231986D01*
X0073367Y0230387D02*
X0179467Y0230387D01*
X0179467Y0228789D02*
X0073367Y0228789D01*
X0073367Y0227190D02*
X0179467Y0227190D01*
X0179467Y0225592D02*
X0073367Y0225592D01*
X0073367Y0223993D02*
X0179467Y0223993D01*
X0179467Y0222395D02*
X0073367Y0222395D01*
X0073367Y0220796D02*
X0179467Y0220796D01*
X0179467Y0219198D02*
X0073367Y0219198D01*
X0073367Y0217599D02*
X0179467Y0217599D01*
X0179467Y0216001D02*
X0073367Y0216001D01*
X0073367Y0214402D02*
X0179467Y0214402D01*
X0179467Y0212803D02*
X0073367Y0212803D01*
X0073367Y0211205D02*
X0179467Y0211205D01*
X0179467Y0209606D02*
X0073367Y0209606D01*
X0073367Y0208008D02*
X0179467Y0208008D01*
X0179467Y0206409D02*
X0073367Y0206409D01*
X0073367Y0204811D02*
X0179467Y0204811D01*
X0179467Y0203212D02*
X0073367Y0203212D01*
X0073367Y0201614D02*
X0179467Y0201614D01*
X0179467Y0200015D02*
X0073367Y0200015D01*
X0073367Y0198417D02*
X0179467Y0198417D01*
X0179467Y0196818D02*
X0073367Y0196818D01*
X0073367Y0195220D02*
X0179467Y0195220D01*
X0179467Y0193621D02*
X0073367Y0193621D01*
X0073367Y0192023D02*
X0179467Y0192023D01*
X0179467Y0190424D02*
X0073367Y0190424D01*
X0073367Y0188826D02*
X0179467Y0188826D01*
X0179467Y0187227D02*
X0073367Y0187227D01*
X0073367Y0185629D02*
X0179467Y0185629D01*
X0179467Y0184030D02*
X0073367Y0184030D01*
X0073367Y0182432D02*
X0179467Y0182432D01*
X0179467Y0180833D02*
X0073367Y0180833D01*
X0073367Y0179235D02*
X0179467Y0179235D01*
X0179467Y0177636D02*
X0073367Y0177636D01*
X0073367Y0176038D02*
X0179467Y0176038D01*
X0179467Y0174439D02*
X0073367Y0174439D01*
X0073367Y0172841D02*
X0179467Y0172841D01*
X0179467Y0171242D02*
X0073367Y0171242D01*
X0073367Y0169644D02*
X0179467Y0169644D01*
X0179467Y0168045D02*
X0073367Y0168045D01*
X0073367Y0166447D02*
X0179467Y0166447D01*
X0179467Y0164848D02*
X0073367Y0164848D01*
X0073367Y0163250D02*
X0179467Y0163250D01*
X0179467Y0161651D02*
X0073367Y0161651D01*
X0073367Y0160053D02*
X0179467Y0160053D01*
X0179467Y0158454D02*
X0073367Y0158454D01*
X0073367Y0156856D02*
X0179467Y0156856D01*
X0170866Y0155257D02*
X0158437Y0155257D01*
X0157895Y0155800D02*
X0150439Y0155800D01*
X0145167Y0150528D01*
X0145167Y0143072D01*
X0150439Y0137800D01*
X0157895Y0137800D01*
X0163167Y0143072D01*
X0163167Y0150528D01*
X0157895Y0155800D01*
X0160036Y0153659D02*
X0168097Y0153659D01*
X0166499Y0152060D02*
X0161634Y0152060D01*
X0163167Y0150462D02*
X0165742Y0150462D01*
X0165080Y0148863D02*
X0163167Y0148863D01*
X0163167Y0147265D02*
X0164967Y0147265D01*
X0164967Y0145666D02*
X0163167Y0145666D01*
X0163167Y0144068D02*
X0165357Y0144068D01*
X0166019Y0142469D02*
X0162564Y0142469D01*
X0160965Y0140870D02*
X0165354Y0140870D01*
X0164691Y0139272D02*
X0159367Y0139272D01*
X0164467Y0137673D02*
X0092552Y0137673D01*
X0093167Y0136075D02*
X0164467Y0136075D01*
X0164630Y0134476D02*
X0124218Y0134476D01*
X0122895Y0135800D02*
X0115439Y0135800D01*
X0110167Y0130528D01*
X0110167Y0123072D01*
X0115439Y0117800D01*
X0122895Y0117800D01*
X0128167Y0123072D01*
X0128167Y0130528D01*
X0122895Y0135800D01*
X0125817Y0132878D02*
X0165292Y0132878D01*
X0165969Y0131279D02*
X0127415Y0131279D01*
X0128167Y0129681D02*
X0165418Y0129681D01*
X0164967Y0128082D02*
X0128167Y0128082D01*
X0128167Y0126484D02*
X0164967Y0126484D01*
X0165018Y0124885D02*
X0128167Y0124885D01*
X0128167Y0123287D02*
X0165680Y0123287D01*
X0165692Y0121688D02*
X0126783Y0121688D01*
X0125184Y0120090D02*
X0165030Y0120090D01*
X0164467Y0118491D02*
X0123586Y0118491D01*
X0122895Y0115800D02*
X0115439Y0115800D01*
X0110167Y0110528D01*
X0110167Y0103072D01*
X0115439Y0097800D01*
X0122895Y0097800D01*
X0128167Y0103072D01*
X0128167Y0110528D01*
X0122895Y0115800D01*
X0123400Y0115294D02*
X0164467Y0115294D01*
X0164467Y0116893D02*
X0010567Y0116893D01*
X0010567Y0118491D02*
X0114747Y0118491D01*
X0113149Y0120090D02*
X0010567Y0120090D01*
X0010567Y0115294D02*
X0114933Y0115294D01*
X0113335Y0113696D02*
X0010567Y0113696D01*
X0019102Y0112097D02*
X0019231Y0112097D01*
X0029102Y0112097D02*
X0029231Y0112097D01*
X0039102Y0112097D02*
X0059231Y0112097D01*
X0057538Y0110499D02*
X0040796Y0110499D01*
X0042044Y0108900D02*
X0056289Y0108900D01*
X0055627Y0107302D02*
X0042706Y0107302D01*
X0043167Y0105703D02*
X0055167Y0105703D01*
X0055163Y0104105D02*
X0043170Y0104105D01*
X0043367Y0102506D02*
X0054967Y0102506D01*
X0054967Y0100908D02*
X0043367Y0100908D01*
X0043367Y0099309D02*
X0054967Y0099309D01*
X0054967Y0097711D02*
X0043367Y0097711D01*
X0043367Y0096112D02*
X0054967Y0096112D01*
X0054967Y0094514D02*
X0043367Y0094514D01*
X0043367Y0092915D02*
X0054967Y0092915D01*
X0054967Y0091317D02*
X0043367Y0091317D01*
X0043367Y0089718D02*
X0054967Y0089718D01*
X0054967Y0088120D02*
X0043367Y0088120D01*
X0043367Y0086521D02*
X0054967Y0086521D01*
X0054967Y0084923D02*
X0043367Y0084923D01*
X0043367Y0083324D02*
X0054967Y0083324D01*
X0054967Y0081726D02*
X0043367Y0081726D01*
X0043367Y0080127D02*
X0054967Y0080127D01*
X0054967Y0078529D02*
X0043367Y0078529D01*
X0043367Y0076930D02*
X0054967Y0076930D01*
X0054967Y0075332D02*
X0043367Y0075332D01*
X0043367Y0073733D02*
X0054967Y0073733D01*
X0054967Y0072134D02*
X0043367Y0072134D01*
X0043367Y0070536D02*
X0054967Y0070536D01*
X0054967Y0068937D02*
X0043367Y0068937D01*
X0043367Y0067339D02*
X0054967Y0067339D01*
X0054967Y0065740D02*
X0043367Y0065740D01*
X0043367Y0064142D02*
X0054967Y0064142D01*
X0054967Y0062543D02*
X0043367Y0062543D01*
X0043367Y0060945D02*
X0054967Y0060945D01*
X0054967Y0059346D02*
X0043367Y0059346D01*
X0043367Y0057748D02*
X0054967Y0057748D01*
X0054967Y0056149D02*
X0043367Y0056149D01*
X0043367Y0054551D02*
X0054967Y0054551D01*
X0054967Y0052952D02*
X0043367Y0052952D01*
X0043367Y0051354D02*
X0054967Y0051354D01*
X0054967Y0049755D02*
X0043367Y0049755D01*
X0043367Y0048157D02*
X0054967Y0048157D01*
X0054967Y0046558D02*
X0043367Y0046558D01*
X0044360Y0044960D02*
X0054967Y0044960D01*
X0054967Y0043361D02*
X0045972Y0043361D01*
X0047037Y0041763D02*
X0054967Y0041763D01*
X0054520Y0040164D02*
X0047802Y0040164D01*
X0048230Y0038566D02*
X0052922Y0038566D01*
X0051323Y0036967D02*
X0048367Y0036967D01*
X0048367Y0035369D02*
X0049725Y0035369D01*
X0048126Y0033770D02*
X0047945Y0033770D01*
X0059761Y0019384D02*
X0184167Y0019384D01*
X0184167Y0020982D02*
X0061360Y0020982D01*
X0062958Y0022581D02*
X0184167Y0022581D01*
X0184167Y0024179D02*
X0064557Y0024179D01*
X0066155Y0025778D02*
X0184167Y0025778D01*
X0184167Y0027376D02*
X0067754Y0027376D01*
X0069352Y0028975D02*
X0184167Y0028975D01*
X0184167Y0030573D02*
X0070951Y0030573D01*
X0072208Y0032172D02*
X0184167Y0032172D01*
X0184167Y0033770D02*
X0072870Y0033770D01*
X0073367Y0035369D02*
X0184167Y0035369D01*
X0184167Y0036967D02*
X0073367Y0036967D01*
X0073367Y0038566D02*
X0184167Y0038566D01*
X0184167Y0040164D02*
X0073367Y0040164D01*
X0073367Y0041763D02*
X0184167Y0041763D01*
X0184167Y0043361D02*
X0073367Y0043361D01*
X0073367Y0044960D02*
X0184167Y0044960D01*
X0184167Y0046558D02*
X0073367Y0046558D01*
X0073367Y0048157D02*
X0184167Y0048157D01*
X0184167Y0049755D02*
X0073367Y0049755D01*
X0073367Y0051354D02*
X0184167Y0051354D01*
X0184167Y0052952D02*
X0073367Y0052952D01*
X0073367Y0054551D02*
X0184167Y0054551D01*
X0184167Y0056149D02*
X0073367Y0056149D01*
X0073367Y0057748D02*
X0184167Y0057748D01*
X0184167Y0059346D02*
X0073367Y0059346D01*
X0073367Y0060945D02*
X0184167Y0060945D01*
X0184167Y0062543D02*
X0073367Y0062543D01*
X0073367Y0064142D02*
X0184167Y0064142D01*
X0184167Y0065740D02*
X0073367Y0065740D01*
X0073367Y0067339D02*
X0171660Y0067339D01*
X0168311Y0068937D02*
X0073367Y0068937D01*
X0073367Y0070536D02*
X0166713Y0070536D01*
X0165600Y0072134D02*
X0073367Y0072134D01*
X0073367Y0073733D02*
X0164938Y0073733D01*
X0164467Y0075332D02*
X0073367Y0075332D01*
X0073367Y0076930D02*
X0164467Y0076930D01*
X0164467Y0078529D02*
X0158623Y0078529D01*
X0157895Y0077800D02*
X0163167Y0083072D01*
X0163167Y0090528D01*
X0157895Y0095800D01*
X0150439Y0095800D01*
X0145167Y0090528D01*
X0145167Y0083072D01*
X0150439Y0077800D01*
X0157895Y0077800D01*
X0160222Y0080127D02*
X0165046Y0080127D01*
X0165708Y0081726D02*
X0161820Y0081726D01*
X0163167Y0083324D02*
X0165665Y0083324D01*
X0165003Y0084923D02*
X0163167Y0084923D01*
X0163167Y0086521D02*
X0164967Y0086521D01*
X0164967Y0088120D02*
X0163167Y0088120D01*
X0163167Y0089718D02*
X0165434Y0089718D01*
X0165939Y0091317D02*
X0162378Y0091317D01*
X0160779Y0092915D02*
X0165277Y0092915D01*
X0164614Y0094514D02*
X0159181Y0094514D01*
X0164467Y0096112D02*
X0092629Y0096112D01*
X0093167Y0097711D02*
X0164467Y0097711D01*
X0164707Y0099309D02*
X0124404Y0099309D01*
X0126002Y0100908D02*
X0165369Y0100908D01*
X0166004Y0102506D02*
X0127601Y0102506D01*
X0128167Y0104105D02*
X0165342Y0104105D01*
X0164967Y0105703D02*
X0128167Y0105703D01*
X0128167Y0107302D02*
X0164967Y0107302D01*
X0165095Y0108900D02*
X0128167Y0108900D01*
X0128167Y0110499D02*
X0165757Y0110499D01*
X0165615Y0112097D02*
X0126597Y0112097D01*
X0124999Y0113696D02*
X0164953Y0113696D01*
X0149152Y0094514D02*
X0091967Y0094514D01*
X0090610Y0092915D02*
X0147554Y0092915D01*
X0145955Y0091317D02*
X0088653Y0091317D01*
X0079681Y0091317D02*
X0078653Y0091317D01*
X0073367Y0089718D02*
X0145167Y0089718D01*
X0145167Y0088120D02*
X0073367Y0088120D01*
X0073367Y0086521D02*
X0145167Y0086521D01*
X0145167Y0084923D02*
X0073367Y0084923D01*
X0073367Y0083324D02*
X0145167Y0083324D01*
X0146513Y0081726D02*
X0073367Y0081726D01*
X0073367Y0080127D02*
X0148112Y0080127D01*
X0149710Y0078529D02*
X0073367Y0078529D01*
X0093167Y0099309D02*
X0113930Y0099309D01*
X0112331Y0100908D02*
X0093167Y0100908D01*
X0093167Y0102506D02*
X0110733Y0102506D01*
X0110167Y0104105D02*
X0093167Y0104105D01*
X0093167Y0105703D02*
X0110167Y0105703D01*
X0110167Y0107302D02*
X0092706Y0107302D01*
X0092044Y0108900D02*
X0110167Y0108900D01*
X0110167Y0110499D02*
X0090796Y0110499D01*
X0089102Y0112097D02*
X0111736Y0112097D01*
X0111550Y0121688D02*
X0089383Y0121688D01*
X0090981Y0123287D02*
X0110167Y0123287D01*
X0110167Y0124885D02*
X0092121Y0124885D01*
X0092783Y0126484D02*
X0110167Y0126484D01*
X0110167Y0128082D02*
X0093167Y0128082D01*
X0093167Y0129681D02*
X0110167Y0129681D01*
X0110918Y0131279D02*
X0093167Y0131279D01*
X0093167Y0132878D02*
X0112517Y0132878D01*
X0114115Y0134476D02*
X0093167Y0134476D01*
X0091890Y0139272D02*
X0148967Y0139272D01*
X0147368Y0140870D02*
X0090424Y0140870D01*
X0088204Y0142469D02*
X0145770Y0142469D01*
X0145167Y0144068D02*
X0073367Y0144068D01*
X0073367Y0145666D02*
X0145167Y0145666D01*
X0145167Y0147265D02*
X0073367Y0147265D01*
X0073367Y0148863D02*
X0145167Y0148863D01*
X0145167Y0150462D02*
X0073367Y0150462D01*
X0073367Y0152060D02*
X0146699Y0152060D01*
X0148297Y0153659D02*
X0073367Y0153659D01*
X0073367Y0155257D02*
X0149896Y0155257D01*
X0198867Y0155257D02*
X0206066Y0155257D01*
X0207376Y0155800D02*
X0204069Y0154430D01*
X0201537Y0151898D01*
X0200167Y0148590D01*
X0200167Y0145010D01*
X0201397Y0142041D01*
X0201367Y0142011D01*
X0199967Y0138630D01*
X0199967Y0134970D01*
X0201367Y0131589D01*
X0201397Y0131559D01*
X0200167Y0128590D01*
X0200167Y0125010D01*
X0201397Y0122041D01*
X0201367Y0122011D01*
X0199967Y0118630D01*
X0199967Y0114970D01*
X0201367Y0111589D01*
X0201397Y0111559D01*
X0200167Y0108590D01*
X0200167Y0105010D01*
X0201397Y0102041D01*
X0201367Y0102011D01*
X0199967Y0098630D01*
X0199967Y0094970D01*
X0201367Y0091589D01*
X0201397Y0091559D01*
X0200167Y0088590D01*
X0200167Y0085010D01*
X0201397Y0082041D01*
X0201367Y0082011D01*
X0199967Y0078630D01*
X0199967Y0074970D01*
X0201367Y0071589D01*
X0203955Y0069001D01*
X0207337Y0067600D01*
X0275997Y0067600D01*
X0279378Y0069001D01*
X0284378Y0074001D01*
X0286548Y0076170D01*
X0288860Y0073858D01*
X0292303Y0072431D01*
X0294798Y0072431D01*
X0294798Y0071168D01*
X0292303Y0071168D01*
X0288860Y0069742D01*
X0286224Y0067107D01*
X0284798Y0063664D01*
X0284798Y0059936D01*
X0286097Y0056800D01*
X0284798Y0053664D01*
X0284798Y0049936D01*
X0286224Y0046493D01*
X0288860Y0043858D01*
X0292303Y0042431D01*
X0296030Y0042431D01*
X0299167Y0043731D01*
X0302303Y0042431D01*
X0306030Y0042431D01*
X0309473Y0043858D01*
X0312109Y0046493D01*
X0313535Y0049936D01*
X0313535Y0053664D01*
X0312236Y0056800D01*
X0313535Y0059936D01*
X0313535Y0063664D01*
X0312236Y0066800D01*
X0313535Y0069936D01*
X0313535Y0072600D01*
X0325167Y0072600D01*
X0325167Y0068072D01*
X0330439Y0062800D01*
X0337895Y0062800D01*
X0343167Y0068072D01*
X0343167Y0072600D01*
X0374967Y0072600D01*
X0374967Y0070010D01*
X0376337Y0066702D01*
X0378869Y0064170D01*
X0382176Y0062800D01*
X0390957Y0062800D01*
X0394265Y0064170D01*
X0396796Y0066702D01*
X0398167Y0070010D01*
X0398167Y0073590D01*
X0396937Y0076559D01*
X0396966Y0076589D01*
X0398367Y0079970D01*
X0398367Y0083630D01*
X0396966Y0087011D01*
X0396937Y0087041D01*
X0398167Y0090010D01*
X0398167Y0093590D01*
X0396937Y0096559D01*
X0396966Y0096589D01*
X0398367Y0099970D01*
X0398367Y0103630D01*
X0396966Y0107011D01*
X0396937Y0107041D01*
X0398167Y0110010D01*
X0398167Y0113590D01*
X0396937Y0116559D01*
X0396966Y0116589D01*
X0398367Y0119970D01*
X0398367Y0123630D01*
X0396966Y0127011D01*
X0396937Y0127041D01*
X0398167Y0130010D01*
X0398167Y0133590D01*
X0396937Y0136559D01*
X0396966Y0136589D01*
X0398367Y0139970D01*
X0398367Y0143630D01*
X0396966Y0147011D01*
X0394378Y0149599D01*
X0390997Y0151000D01*
X0352337Y0151000D01*
X0348955Y0149599D01*
X0339025Y0139669D01*
X0337895Y0140800D01*
X0330439Y0140800D01*
X0325167Y0135528D01*
X0325167Y0131000D01*
X0313535Y0131000D01*
X0313535Y0133664D01*
X0312236Y0136800D01*
X0313535Y0139936D01*
X0313535Y0143664D01*
X0312236Y0146800D01*
X0313535Y0149936D01*
X0313535Y0153664D01*
X0312236Y0156800D01*
X0313535Y0159936D01*
X0313535Y0163664D01*
X0312109Y0167107D01*
X0309473Y0169742D01*
X0306030Y0171168D01*
X0303535Y0171168D01*
X0303535Y0172431D01*
X0306030Y0172431D01*
X0309473Y0173858D01*
X0312109Y0176493D01*
X0313535Y0179936D01*
X0313535Y0183664D01*
X0312236Y0186800D01*
X0313535Y0189936D01*
X0313535Y0193664D01*
X0312236Y0196800D01*
X0313535Y0199936D01*
X0313535Y0203664D01*
X0312236Y0206800D01*
X0313535Y0209936D01*
X0313535Y0213664D01*
X0312236Y0216800D01*
X0313535Y0219936D01*
X0313535Y0223664D01*
X0312236Y0226800D01*
X0313535Y0229936D01*
X0313535Y0233664D01*
X0312109Y0237107D01*
X0309473Y0239742D01*
X0306030Y0241168D01*
X0303535Y0241168D01*
X0303535Y0243664D01*
X0302109Y0247107D01*
X0299473Y0249742D01*
X0296030Y0251168D01*
X0292303Y0251168D01*
X0288860Y0249742D01*
X0286224Y0247107D01*
X0284798Y0243664D01*
X0284798Y0239936D01*
X0286097Y0236800D01*
X0284798Y0233664D01*
X0284798Y0229936D01*
X0286097Y0226800D01*
X0284798Y0223664D01*
X0284798Y0219936D01*
X0286224Y0216493D01*
X0288860Y0213858D01*
X0292303Y0212431D01*
X0294798Y0212431D01*
X0294798Y0211168D01*
X0292303Y0211168D01*
X0288860Y0209742D01*
X0286224Y0207107D01*
X0284798Y0203664D01*
X0284798Y0199936D01*
X0286224Y0196493D01*
X0288860Y0193858D01*
X0292303Y0192431D01*
X0294798Y0192431D01*
X0294798Y0191168D01*
X0292303Y0191168D01*
X0288860Y0189742D01*
X0286224Y0187107D01*
X0284798Y0183664D01*
X0284798Y0179936D01*
X0286097Y0176800D01*
X0284798Y0173664D01*
X0284798Y0169936D01*
X0286097Y0166800D01*
X0284798Y0163664D01*
X0284798Y0161000D01*
X0282977Y0161000D01*
X0279378Y0164599D01*
X0275997Y0166000D01*
X0257337Y0166000D01*
X0253955Y0164599D01*
X0251367Y0162011D01*
X0235356Y0146000D01*
X0223367Y0146000D01*
X0223367Y0148590D01*
X0221996Y0151898D01*
X0219465Y0154430D01*
X0216157Y0155800D01*
X0207376Y0155800D01*
X0203297Y0153659D02*
X0198867Y0153659D01*
X0198867Y0152060D02*
X0201699Y0152060D01*
X0200942Y0150462D02*
X0198867Y0150462D01*
X0198867Y0148863D02*
X0200280Y0148863D01*
X0200167Y0147265D02*
X0198867Y0147265D01*
X0198867Y0145666D02*
X0200167Y0145666D01*
X0200557Y0144068D02*
X0198867Y0144068D01*
X0198867Y0142469D02*
X0201219Y0142469D01*
X0200895Y0140870D02*
X0198867Y0140870D01*
X0198867Y0139272D02*
X0200233Y0139272D01*
X0199967Y0137673D02*
X0198867Y0137673D01*
X0198867Y0136075D02*
X0199967Y0136075D01*
X0200171Y0134476D02*
X0198867Y0134476D01*
X0198867Y0132878D02*
X0200833Y0132878D01*
X0201281Y0131279D02*
X0198867Y0131279D01*
X0198867Y0129681D02*
X0200618Y0129681D01*
X0200167Y0128082D02*
X0198867Y0128082D01*
X0198867Y0126484D02*
X0200167Y0126484D01*
X0200218Y0124885D02*
X0198867Y0124885D01*
X0198867Y0123287D02*
X0200880Y0123287D01*
X0201233Y0121688D02*
X0198867Y0121688D01*
X0198867Y0120090D02*
X0200571Y0120090D01*
X0199967Y0118491D02*
X0198867Y0118491D01*
X0198867Y0116893D02*
X0199967Y0116893D01*
X0199967Y0115294D02*
X0198867Y0115294D01*
X0198867Y0113696D02*
X0200494Y0113696D01*
X0201157Y0112097D02*
X0198867Y0112097D01*
X0198867Y0110499D02*
X0200957Y0110499D01*
X0200295Y0108900D02*
X0198867Y0108900D01*
X0198867Y0107302D02*
X0200167Y0107302D01*
X0200167Y0105703D02*
X0198867Y0105703D01*
X0198867Y0104105D02*
X0200542Y0104105D01*
X0201204Y0102506D02*
X0198867Y0102506D01*
X0198867Y0100908D02*
X0200910Y0100908D01*
X0200248Y0099309D02*
X0198867Y0099309D01*
X0198867Y0097711D02*
X0199967Y0097711D01*
X0199967Y0096112D02*
X0198867Y0096112D01*
X0198867Y0094514D02*
X0200156Y0094514D01*
X0200818Y0092915D02*
X0198867Y0092915D01*
X0198867Y0091317D02*
X0201296Y0091317D01*
X0200634Y0089718D02*
X0198867Y0089718D01*
X0198867Y0088120D02*
X0200167Y0088120D01*
X0200167Y0086521D02*
X0198867Y0086521D01*
X0198867Y0084923D02*
X0200203Y0084923D01*
X0200865Y0083324D02*
X0198867Y0083324D01*
X0198867Y0081726D02*
X0201249Y0081726D01*
X0200587Y0080127D02*
X0198867Y0080127D01*
X0198867Y0078529D02*
X0199967Y0078529D01*
X0199967Y0076930D02*
X0198867Y0076930D01*
X0198867Y0075332D02*
X0199967Y0075332D01*
X0198867Y0074871D02*
X0198867Y0266800D01*
X0399467Y0266800D01*
X0399467Y0079871D01*
X0400943Y0076305D01*
X0403672Y0073577D01*
X0404167Y0073372D01*
X0404167Y0011800D01*
X0194167Y0011800D01*
X0194167Y0068372D01*
X0194661Y0068577D01*
X0197390Y0071305D01*
X0198867Y0074871D01*
X0198395Y0073733D02*
X0200479Y0073733D01*
X0201141Y0072134D02*
X0197733Y0072134D01*
X0196621Y0070536D02*
X0202420Y0070536D01*
X0204108Y0068937D02*
X0195022Y0068937D01*
X0194167Y0067339D02*
X0286457Y0067339D01*
X0285658Y0065740D02*
X0194167Y0065740D01*
X0194167Y0064142D02*
X0284996Y0064142D01*
X0284798Y0062543D02*
X0194167Y0062543D01*
X0194167Y0060945D02*
X0284798Y0060945D01*
X0285043Y0059346D02*
X0194167Y0059346D01*
X0194167Y0057748D02*
X0285705Y0057748D01*
X0285828Y0056149D02*
X0194167Y0056149D01*
X0194167Y0054551D02*
X0285166Y0054551D01*
X0284798Y0052952D02*
X0194167Y0052952D01*
X0194167Y0051354D02*
X0284798Y0051354D01*
X0284873Y0049755D02*
X0194167Y0049755D01*
X0194167Y0048157D02*
X0285535Y0048157D01*
X0286197Y0046558D02*
X0194167Y0046558D01*
X0194167Y0044960D02*
X0287758Y0044960D01*
X0290058Y0043361D02*
X0194167Y0043361D01*
X0194167Y0041763D02*
X0404167Y0041763D01*
X0404167Y0043361D02*
X0308275Y0043361D01*
X0310576Y0044960D02*
X0404167Y0044960D01*
X0404167Y0046558D02*
X0312136Y0046558D01*
X0312798Y0048157D02*
X0404167Y0048157D01*
X0404167Y0049755D02*
X0313460Y0049755D01*
X0313535Y0051354D02*
X0404167Y0051354D01*
X0404167Y0052952D02*
X0313535Y0052952D01*
X0313168Y0054551D02*
X0404167Y0054551D01*
X0404167Y0056149D02*
X0312505Y0056149D01*
X0312629Y0057748D02*
X0404167Y0057748D01*
X0404167Y0059346D02*
X0313291Y0059346D01*
X0313535Y0060945D02*
X0404167Y0060945D01*
X0404167Y0062543D02*
X0313535Y0062543D01*
X0313337Y0064142D02*
X0329097Y0064142D01*
X0327498Y0065740D02*
X0312675Y0065740D01*
X0312459Y0067339D02*
X0325900Y0067339D01*
X0325167Y0068937D02*
X0313121Y0068937D01*
X0313535Y0070536D02*
X0325167Y0070536D01*
X0325167Y0072134D02*
X0313535Y0072134D01*
X0294798Y0072134D02*
X0282512Y0072134D01*
X0280913Y0070536D02*
X0290776Y0070536D01*
X0288055Y0068937D02*
X0279226Y0068937D01*
X0284110Y0073733D02*
X0289161Y0073733D01*
X0287386Y0075332D02*
X0285709Y0075332D01*
X0303535Y0091168D02*
X0303535Y0092431D01*
X0306030Y0092431D01*
X0306437Y0092600D01*
X0350167Y0092600D01*
X0350167Y0091000D01*
X0306437Y0091000D01*
X0306030Y0091168D01*
X0303535Y0091168D01*
X0303535Y0091317D02*
X0350167Y0091317D01*
X0343167Y0072134D02*
X0374967Y0072134D01*
X0374967Y0070536D02*
X0343167Y0070536D01*
X0343167Y0068937D02*
X0375411Y0068937D01*
X0376073Y0067339D02*
X0342434Y0067339D01*
X0340835Y0065740D02*
X0377298Y0065740D01*
X0378937Y0064142D02*
X0339237Y0064142D01*
X0300058Y0043361D02*
X0298275Y0043361D01*
X0294798Y0111168D02*
X0292303Y0111168D01*
X0291896Y0111000D01*
X0282337Y0111000D01*
X0280699Y0110322D01*
X0282977Y0112600D01*
X0291896Y0112600D01*
X0292303Y0112431D01*
X0294798Y0112431D01*
X0294798Y0111168D01*
X0294798Y0112097D02*
X0282475Y0112097D01*
X0281127Y0110499D02*
X0280876Y0110499D01*
X0270216Y0140122D02*
X0273167Y0143072D01*
X0273167Y0144789D01*
X0273955Y0144001D01*
X0277337Y0142600D01*
X0291896Y0142600D01*
X0292303Y0142431D01*
X0294798Y0142431D01*
X0294798Y0141168D01*
X0292303Y0141168D01*
X0291896Y0141000D01*
X0272337Y0141000D01*
X0270216Y0140122D01*
X0270965Y0140870D02*
X0272024Y0140870D01*
X0272564Y0142469D02*
X0292213Y0142469D01*
X0273888Y0144068D02*
X0273167Y0144068D01*
X0282326Y0161651D02*
X0284798Y0161651D01*
X0284798Y0163250D02*
X0280728Y0163250D01*
X0278777Y0164848D02*
X0285289Y0164848D01*
X0285951Y0166447D02*
X0198867Y0166447D01*
X0198867Y0168045D02*
X0285582Y0168045D01*
X0284919Y0169644D02*
X0198867Y0169644D01*
X0198867Y0171242D02*
X0284798Y0171242D01*
X0284798Y0172841D02*
X0198867Y0172841D01*
X0198867Y0174439D02*
X0285119Y0174439D01*
X0285782Y0176038D02*
X0198867Y0176038D01*
X0198867Y0177636D02*
X0285751Y0177636D01*
X0285089Y0179235D02*
X0198867Y0179235D01*
X0198867Y0180833D02*
X0284798Y0180833D01*
X0284798Y0182432D02*
X0198867Y0182432D01*
X0198867Y0184030D02*
X0284950Y0184030D01*
X0285612Y0185629D02*
X0198867Y0185629D01*
X0198867Y0187227D02*
X0286345Y0187227D01*
X0287943Y0188826D02*
X0198867Y0188826D01*
X0198867Y0190424D02*
X0290507Y0190424D01*
X0289431Y0193621D02*
X0198867Y0193621D01*
X0198867Y0192023D02*
X0294798Y0192023D01*
X0287498Y0195220D02*
X0198867Y0195220D01*
X0198867Y0196818D02*
X0286090Y0196818D01*
X0285428Y0198417D02*
X0198867Y0198417D01*
X0198867Y0200015D02*
X0284798Y0200015D01*
X0284798Y0201614D02*
X0198867Y0201614D01*
X0198867Y0203212D02*
X0284798Y0203212D01*
X0285273Y0204811D02*
X0198867Y0204811D01*
X0198867Y0206409D02*
X0285936Y0206409D01*
X0287126Y0208008D02*
X0198867Y0208008D01*
X0198867Y0209606D02*
X0288724Y0209606D01*
X0291405Y0212803D02*
X0198867Y0212803D01*
X0198867Y0211205D02*
X0294798Y0211205D01*
X0288316Y0214402D02*
X0198867Y0214402D01*
X0198867Y0216001D02*
X0286717Y0216001D01*
X0285766Y0217599D02*
X0198867Y0217599D01*
X0198867Y0219198D02*
X0285104Y0219198D01*
X0284798Y0220796D02*
X0198867Y0220796D01*
X0198867Y0222395D02*
X0284798Y0222395D01*
X0284935Y0223993D02*
X0198867Y0223993D01*
X0198867Y0225592D02*
X0285597Y0225592D01*
X0285936Y0227190D02*
X0198867Y0227190D01*
X0198867Y0228789D02*
X0285274Y0228789D01*
X0284798Y0230387D02*
X0198867Y0230387D01*
X0198867Y0231986D02*
X0284798Y0231986D01*
X0284798Y0233584D02*
X0198867Y0233584D01*
X0198867Y0235183D02*
X0285427Y0235183D01*
X0286090Y0236781D02*
X0198867Y0236781D01*
X0198867Y0238380D02*
X0285443Y0238380D01*
X0284798Y0239978D02*
X0198867Y0239978D01*
X0198867Y0241577D02*
X0284798Y0241577D01*
X0284798Y0243175D02*
X0198867Y0243175D01*
X0198867Y0244774D02*
X0285258Y0244774D01*
X0285920Y0246372D02*
X0198867Y0246372D01*
X0198867Y0247971D02*
X0287088Y0247971D01*
X0288687Y0249569D02*
X0198867Y0249569D01*
X0198867Y0251168D02*
X0292301Y0251168D01*
X0296032Y0251168D02*
X0399467Y0251168D01*
X0399467Y0252766D02*
X0198867Y0252766D01*
X0198867Y0254365D02*
X0399467Y0254365D01*
X0399467Y0255963D02*
X0198867Y0255963D01*
X0198867Y0257562D02*
X0399467Y0257562D01*
X0399467Y0259160D02*
X0198867Y0259160D01*
X0198867Y0260759D02*
X0399467Y0260759D01*
X0399467Y0262357D02*
X0198867Y0262357D01*
X0198867Y0263956D02*
X0399467Y0263956D01*
X0399467Y0265554D02*
X0198867Y0265554D01*
X0179467Y0260759D02*
X0046437Y0260759D01*
X0049817Y0259160D02*
X0179467Y0259160D01*
X0179467Y0257562D02*
X0051416Y0257562D01*
X0053014Y0255963D02*
X0179467Y0255963D01*
X0179467Y0254365D02*
X0054613Y0254365D01*
X0056211Y0252766D02*
X0179467Y0252766D01*
X0179467Y0251168D02*
X0057810Y0251168D01*
X0059408Y0249569D02*
X0179467Y0249569D01*
X0179467Y0247971D02*
X0061007Y0247971D01*
X0159369Y0289532D02*
X0592688Y0289532D01*
X0592688Y0287934D02*
X0161400Y0287934D01*
X0198867Y0164848D02*
X0254556Y0164848D01*
X0252606Y0163250D02*
X0198867Y0163250D01*
X0198867Y0161651D02*
X0251007Y0161651D01*
X0249409Y0160053D02*
X0198867Y0160053D01*
X0198867Y0158454D02*
X0247810Y0158454D01*
X0246211Y0156856D02*
X0198867Y0156856D01*
X0217468Y0155257D02*
X0244613Y0155257D01*
X0243014Y0153659D02*
X0220236Y0153659D01*
X0221834Y0152060D02*
X0241416Y0152060D01*
X0239817Y0150462D02*
X0222592Y0150462D01*
X0223254Y0148863D02*
X0238219Y0148863D01*
X0236620Y0147265D02*
X0223367Y0147265D01*
X0303535Y0171242D02*
X0399467Y0171242D01*
X0399467Y0169644D02*
X0309572Y0169644D01*
X0311171Y0168045D02*
X0399467Y0168045D01*
X0399467Y0166447D02*
X0312382Y0166447D01*
X0313044Y0164848D02*
X0399467Y0164848D01*
X0399467Y0163250D02*
X0313535Y0163250D01*
X0313535Y0161651D02*
X0399467Y0161651D01*
X0399467Y0160053D02*
X0313535Y0160053D01*
X0312921Y0158454D02*
X0399467Y0158454D01*
X0399467Y0156856D02*
X0312259Y0156856D01*
X0312875Y0155257D02*
X0399467Y0155257D01*
X0399467Y0153659D02*
X0313535Y0153659D01*
X0313535Y0152060D02*
X0399467Y0152060D01*
X0399467Y0150462D02*
X0392297Y0150462D01*
X0395114Y0148863D02*
X0399467Y0148863D01*
X0399467Y0147265D02*
X0396713Y0147265D01*
X0397523Y0145666D02*
X0399467Y0145666D01*
X0399467Y0144068D02*
X0398185Y0144068D01*
X0398367Y0142469D02*
X0399467Y0142469D01*
X0399467Y0140870D02*
X0398367Y0140870D01*
X0398078Y0139272D02*
X0399467Y0139272D01*
X0399467Y0137673D02*
X0397415Y0137673D01*
X0397137Y0136075D02*
X0399467Y0136075D01*
X0399467Y0134476D02*
X0397800Y0134476D01*
X0398167Y0132878D02*
X0399467Y0132878D01*
X0399467Y0131279D02*
X0398167Y0131279D01*
X0398030Y0129681D02*
X0399467Y0129681D01*
X0399467Y0128082D02*
X0397368Y0128082D01*
X0397185Y0126484D02*
X0399467Y0126484D01*
X0399467Y0124885D02*
X0397847Y0124885D01*
X0398367Y0123287D02*
X0399467Y0123287D01*
X0399467Y0121688D02*
X0398367Y0121688D01*
X0398367Y0120090D02*
X0399467Y0120090D01*
X0399467Y0118491D02*
X0397754Y0118491D01*
X0397092Y0116893D02*
X0399467Y0116893D01*
X0399467Y0115294D02*
X0397461Y0115294D01*
X0398123Y0113696D02*
X0399467Y0113696D01*
X0399467Y0112097D02*
X0398167Y0112097D01*
X0398167Y0110499D02*
X0399467Y0110499D01*
X0399467Y0108900D02*
X0397707Y0108900D01*
X0397045Y0107302D02*
X0399467Y0107302D01*
X0399467Y0105703D02*
X0397508Y0105703D01*
X0398170Y0104105D02*
X0399467Y0104105D01*
X0399467Y0102506D02*
X0398367Y0102506D01*
X0398367Y0100908D02*
X0399467Y0100908D01*
X0399467Y0099309D02*
X0398093Y0099309D01*
X0397431Y0097711D02*
X0399467Y0097711D01*
X0399467Y0096112D02*
X0397122Y0096112D01*
X0397784Y0094514D02*
X0399467Y0094514D01*
X0399467Y0092915D02*
X0398167Y0092915D01*
X0398167Y0091317D02*
X0399467Y0091317D01*
X0399467Y0089718D02*
X0398046Y0089718D01*
X0397384Y0088120D02*
X0399467Y0088120D01*
X0399467Y0086521D02*
X0397169Y0086521D01*
X0397831Y0084923D02*
X0399467Y0084923D01*
X0399467Y0083324D02*
X0398367Y0083324D01*
X0398367Y0081726D02*
X0399467Y0081726D01*
X0399467Y0080127D02*
X0398367Y0080127D01*
X0397770Y0078529D02*
X0400023Y0078529D01*
X0400685Y0076930D02*
X0397107Y0076930D01*
X0397445Y0075332D02*
X0401917Y0075332D01*
X0403516Y0073733D02*
X0398108Y0073733D01*
X0398167Y0072134D02*
X0404167Y0072134D01*
X0404167Y0070536D02*
X0398167Y0070536D01*
X0397722Y0068937D02*
X0404167Y0068937D01*
X0404167Y0067339D02*
X0397060Y0067339D01*
X0395835Y0065740D02*
X0404167Y0065740D01*
X0404167Y0064142D02*
X0394197Y0064142D01*
X0414167Y0064130D02*
X0417376Y0062800D01*
X0426157Y0062800D01*
X0429465Y0064170D01*
X0431996Y0066702D01*
X0433367Y0070010D01*
X0433367Y0073590D01*
X0432037Y0076800D01*
X0433367Y0080010D01*
X0433367Y0083590D01*
X0432037Y0086800D01*
X0433367Y0090010D01*
X0433367Y0093590D01*
X0432037Y0096800D01*
X0433367Y0100010D01*
X0433367Y0103590D01*
X0432037Y0106800D01*
X0433367Y0110010D01*
X0433367Y0113590D01*
X0432037Y0116800D01*
X0433367Y0120010D01*
X0433367Y0123590D01*
X0432037Y0126800D01*
X0433367Y0130010D01*
X0433367Y0133590D01*
X0432037Y0136800D01*
X0433367Y0140010D01*
X0433367Y0143590D01*
X0431996Y0146898D01*
X0429465Y0149430D01*
X0426157Y0150800D01*
X0422786Y0150800D01*
X0421096Y0151500D01*
X0418867Y0151500D01*
X0418867Y0267100D01*
X0480149Y0267100D01*
X0579467Y0167782D01*
X0579467Y0138400D01*
X0577376Y0138400D01*
X0574167Y0137070D01*
X0570957Y0138400D01*
X0567376Y0138400D01*
X0564069Y0137030D01*
X0561537Y0134498D01*
X0560167Y0131190D01*
X0560167Y0122410D01*
X0560544Y0121500D01*
X0547790Y0121500D01*
X0548167Y0122410D01*
X0548167Y0131190D01*
X0546796Y0134498D01*
X0544265Y0137030D01*
X0540957Y0138400D01*
X0537376Y0138400D01*
X0534167Y0137070D01*
X0530957Y0138400D01*
X0527376Y0138400D01*
X0524167Y0137070D01*
X0520957Y0138400D01*
X0517376Y0138400D01*
X0514069Y0137030D01*
X0511537Y0134498D01*
X0510167Y0131190D01*
X0510167Y0130419D01*
X0509467Y0128729D01*
X0509467Y0094871D01*
X0510167Y0093181D01*
X0510167Y0092410D01*
X0511537Y0089102D01*
X0514069Y0086570D01*
X0517376Y0085200D01*
X0520957Y0085200D01*
X0524167Y0086530D01*
X0527376Y0085200D01*
X0530957Y0085200D01*
X0534167Y0086530D01*
X0537376Y0085200D01*
X0540957Y0085200D01*
X0544265Y0086570D01*
X0546796Y0089102D01*
X0548167Y0092410D01*
X0548167Y0101190D01*
X0547790Y0102100D01*
X0560544Y0102100D01*
X0560167Y0101190D01*
X0560167Y0092410D01*
X0561537Y0089102D01*
X0564069Y0086570D01*
X0567376Y0085200D01*
X0570957Y0085200D01*
X0574167Y0086530D01*
X0577376Y0085200D01*
X0580957Y0085200D01*
X0581729Y0085520D01*
X0583672Y0083577D01*
X0587237Y0082100D01*
X0591096Y0082100D01*
X0592688Y0082759D01*
X0592688Y0008200D01*
X0414167Y0008200D01*
X0414167Y0064130D01*
X0414167Y0062543D02*
X0592688Y0062543D01*
X0592688Y0060945D02*
X0414167Y0060945D01*
X0414167Y0059346D02*
X0592688Y0059346D01*
X0592688Y0057748D02*
X0414167Y0057748D01*
X0414167Y0056149D02*
X0592688Y0056149D01*
X0592688Y0054551D02*
X0414167Y0054551D01*
X0414167Y0052952D02*
X0592688Y0052952D01*
X0592688Y0051354D02*
X0571461Y0051354D01*
X0572042Y0051198D02*
X0569423Y0051900D01*
X0558911Y0051900D01*
X0556291Y0051198D01*
X0553942Y0049842D01*
X0552025Y0047924D01*
X0550669Y0045576D01*
X0549967Y0042956D01*
X0549967Y0040244D01*
X0550669Y0037624D01*
X0552025Y0035276D01*
X0553942Y0033358D01*
X0556291Y0032002D01*
X0557231Y0031750D01*
X0556291Y0031498D01*
X0553942Y0030142D01*
X0552025Y0028224D01*
X0550669Y0025876D01*
X0549967Y0023256D01*
X0549967Y0020544D01*
X0550669Y0017924D01*
X0552025Y0015576D01*
X0553942Y0013658D01*
X0556291Y0012302D01*
X0558911Y0011600D01*
X0569423Y0011600D01*
X0572042Y0012302D01*
X0574391Y0013658D01*
X0576309Y0015576D01*
X0577665Y0017924D01*
X0578367Y0020544D01*
X0578367Y0023256D01*
X0577665Y0025876D01*
X0576309Y0028224D01*
X0574391Y0030142D01*
X0572042Y0031498D01*
X0571102Y0031750D01*
X0572042Y0032002D01*
X0574391Y0033358D01*
X0576309Y0035276D01*
X0577665Y0037624D01*
X0578367Y0040244D01*
X0578367Y0042956D01*
X0577665Y0045576D01*
X0576309Y0047924D01*
X0574391Y0049842D01*
X0572042Y0051198D01*
X0574478Y0049755D02*
X0592688Y0049755D01*
X0592688Y0048157D02*
X0576076Y0048157D01*
X0577097Y0046558D02*
X0592688Y0046558D01*
X0592688Y0044960D02*
X0577830Y0044960D01*
X0578258Y0043361D02*
X0592688Y0043361D01*
X0592688Y0041763D02*
X0578367Y0041763D01*
X0578345Y0040164D02*
X0592688Y0040164D01*
X0592688Y0038566D02*
X0577917Y0038566D01*
X0577285Y0036967D02*
X0592688Y0036967D01*
X0592688Y0035369D02*
X0576362Y0035369D01*
X0574803Y0033770D02*
X0592688Y0033770D01*
X0592688Y0032172D02*
X0572336Y0032172D01*
X0573644Y0030573D02*
X0592688Y0030573D01*
X0592688Y0028975D02*
X0575558Y0028975D01*
X0576798Y0027376D02*
X0592688Y0027376D01*
X0592688Y0025778D02*
X0577691Y0025778D01*
X0578119Y0024179D02*
X0592688Y0024179D01*
X0592688Y0022581D02*
X0578367Y0022581D01*
X0578367Y0020982D02*
X0592688Y0020982D01*
X0592688Y0019384D02*
X0578056Y0019384D01*
X0577584Y0017785D02*
X0592688Y0017785D01*
X0592688Y0016187D02*
X0576661Y0016187D01*
X0575321Y0014588D02*
X0592688Y0014588D01*
X0592688Y0012990D02*
X0573233Y0012990D01*
X0555100Y0012990D02*
X0414167Y0012990D01*
X0414167Y0014588D02*
X0553012Y0014588D01*
X0551672Y0016187D02*
X0414167Y0016187D01*
X0414167Y0017785D02*
X0550749Y0017785D01*
X0550278Y0019384D02*
X0414167Y0019384D01*
X0414167Y0020982D02*
X0549967Y0020982D01*
X0549967Y0022581D02*
X0414167Y0022581D01*
X0414167Y0024179D02*
X0550214Y0024179D01*
X0550642Y0025778D02*
X0414167Y0025778D01*
X0414167Y0027376D02*
X0551535Y0027376D01*
X0552775Y0028975D02*
X0414167Y0028975D01*
X0414167Y0030573D02*
X0554689Y0030573D01*
X0555997Y0032172D02*
X0414167Y0032172D01*
X0414167Y0033770D02*
X0553530Y0033770D01*
X0551971Y0035369D02*
X0414167Y0035369D01*
X0414167Y0036967D02*
X0551048Y0036967D01*
X0550416Y0038566D02*
X0414167Y0038566D01*
X0414167Y0040164D02*
X0549988Y0040164D01*
X0549967Y0041763D02*
X0414167Y0041763D01*
X0414167Y0043361D02*
X0550075Y0043361D01*
X0550504Y0044960D02*
X0414167Y0044960D01*
X0414167Y0046558D02*
X0551236Y0046558D01*
X0552257Y0048157D02*
X0414167Y0048157D01*
X0414167Y0049755D02*
X0553856Y0049755D01*
X0556872Y0051354D02*
X0414167Y0051354D01*
X0404167Y0040164D02*
X0194167Y0040164D01*
X0194167Y0038566D02*
X0404167Y0038566D01*
X0404167Y0036967D02*
X0194167Y0036967D01*
X0194167Y0035369D02*
X0404167Y0035369D01*
X0404167Y0033770D02*
X0194167Y0033770D01*
X0194167Y0032172D02*
X0404167Y0032172D01*
X0404167Y0030573D02*
X0194167Y0030573D01*
X0194167Y0028975D02*
X0404167Y0028975D01*
X0404167Y0027376D02*
X0194167Y0027376D01*
X0194167Y0025778D02*
X0404167Y0025778D01*
X0404167Y0024179D02*
X0194167Y0024179D01*
X0194167Y0022581D02*
X0404167Y0022581D01*
X0404167Y0020982D02*
X0194167Y0020982D01*
X0194167Y0019384D02*
X0404167Y0019384D01*
X0404167Y0017785D02*
X0194167Y0017785D01*
X0194167Y0016187D02*
X0404167Y0016187D01*
X0404167Y0014588D02*
X0194167Y0014588D01*
X0194167Y0012990D02*
X0404167Y0012990D01*
X0414167Y0011391D02*
X0592688Y0011391D01*
X0592688Y0009793D02*
X0414167Y0009793D01*
X0429397Y0064142D02*
X0449097Y0064142D01*
X0450439Y0062800D02*
X0457895Y0062800D01*
X0463167Y0068072D01*
X0463167Y0075528D01*
X0457895Y0080800D01*
X0450439Y0080800D01*
X0445167Y0075528D01*
X0445167Y0068072D01*
X0450439Y0062800D01*
X0447498Y0065740D02*
X0431035Y0065740D01*
X0432260Y0067339D02*
X0445900Y0067339D01*
X0445167Y0068937D02*
X0432922Y0068937D01*
X0433367Y0070536D02*
X0445167Y0070536D01*
X0445167Y0072134D02*
X0433367Y0072134D01*
X0433308Y0073733D02*
X0445167Y0073733D01*
X0445167Y0075332D02*
X0432645Y0075332D01*
X0432091Y0076930D02*
X0446569Y0076930D01*
X0448167Y0078529D02*
X0432753Y0078529D01*
X0433367Y0080127D02*
X0449766Y0080127D01*
X0458568Y0080127D02*
X0592688Y0080127D01*
X0592688Y0078529D02*
X0460166Y0078529D01*
X0461765Y0076930D02*
X0592688Y0076930D01*
X0592688Y0075332D02*
X0463167Y0075332D01*
X0463167Y0073733D02*
X0592688Y0073733D01*
X0592688Y0072134D02*
X0463167Y0072134D01*
X0463167Y0070536D02*
X0592688Y0070536D01*
X0592688Y0068937D02*
X0463167Y0068937D01*
X0462434Y0067339D02*
X0592688Y0067339D01*
X0592688Y0065740D02*
X0460835Y0065740D01*
X0459237Y0064142D02*
X0592688Y0064142D01*
X0592688Y0081726D02*
X0433367Y0081726D01*
X0433367Y0083324D02*
X0479915Y0083324D01*
X0480439Y0082800D02*
X0487895Y0082800D01*
X0493167Y0088072D01*
X0493167Y0095528D01*
X0487895Y0100800D01*
X0480439Y0100800D01*
X0475167Y0095528D01*
X0475167Y0088072D01*
X0480439Y0082800D01*
X0478316Y0084923D02*
X0432815Y0084923D01*
X0432153Y0086521D02*
X0476718Y0086521D01*
X0475167Y0088120D02*
X0432584Y0088120D01*
X0433246Y0089718D02*
X0475167Y0089718D01*
X0475167Y0091317D02*
X0433367Y0091317D01*
X0433367Y0092915D02*
X0475167Y0092915D01*
X0475167Y0094514D02*
X0432984Y0094514D01*
X0432322Y0096112D02*
X0475751Y0096112D01*
X0477349Y0097711D02*
X0432414Y0097711D01*
X0433076Y0099309D02*
X0478948Y0099309D01*
X0480439Y0102800D02*
X0487895Y0102800D01*
X0493167Y0108072D01*
X0493167Y0115528D01*
X0487895Y0120800D01*
X0480439Y0120800D01*
X0475167Y0115528D01*
X0475167Y0108072D01*
X0480439Y0102800D01*
X0479134Y0104105D02*
X0433154Y0104105D01*
X0433367Y0102506D02*
X0509467Y0102506D01*
X0509467Y0100908D02*
X0433367Y0100908D01*
X0432491Y0105703D02*
X0477535Y0105703D01*
X0475937Y0107302D02*
X0432245Y0107302D01*
X0432907Y0108900D02*
X0475167Y0108900D01*
X0475167Y0110499D02*
X0433367Y0110499D01*
X0433367Y0112097D02*
X0475167Y0112097D01*
X0475167Y0113696D02*
X0433323Y0113696D01*
X0432661Y0115294D02*
X0475167Y0115294D01*
X0476532Y0116893D02*
X0432076Y0116893D01*
X0432738Y0118491D02*
X0478130Y0118491D01*
X0479729Y0120090D02*
X0433367Y0120090D01*
X0433367Y0121688D02*
X0509467Y0121688D01*
X0509467Y0120090D02*
X0488605Y0120090D01*
X0490203Y0118491D02*
X0509467Y0118491D01*
X0509467Y0116893D02*
X0491802Y0116893D01*
X0493167Y0115294D02*
X0509467Y0115294D01*
X0509467Y0113696D02*
X0493167Y0113696D01*
X0493167Y0112097D02*
X0509467Y0112097D01*
X0509467Y0110499D02*
X0493167Y0110499D01*
X0493167Y0108900D02*
X0509467Y0108900D01*
X0509467Y0107302D02*
X0492396Y0107302D01*
X0490798Y0105703D02*
X0509467Y0105703D01*
X0509467Y0104105D02*
X0489199Y0104105D01*
X0489385Y0099309D02*
X0509467Y0099309D01*
X0509467Y0097711D02*
X0490984Y0097711D01*
X0492582Y0096112D02*
X0509467Y0096112D01*
X0509614Y0094514D02*
X0493167Y0094514D01*
X0493167Y0092915D02*
X0510167Y0092915D01*
X0510619Y0091317D02*
X0493167Y0091317D01*
X0493167Y0089718D02*
X0511282Y0089718D01*
X0512519Y0088120D02*
X0493167Y0088120D01*
X0491616Y0086521D02*
X0514187Y0086521D01*
X0524146Y0086521D02*
X0524187Y0086521D01*
X0534146Y0086521D02*
X0534187Y0086521D01*
X0544146Y0086521D02*
X0564187Y0086521D01*
X0562519Y0088120D02*
X0545814Y0088120D01*
X0547052Y0089718D02*
X0561282Y0089718D01*
X0560619Y0091317D02*
X0547714Y0091317D01*
X0548167Y0092915D02*
X0560167Y0092915D01*
X0560167Y0094514D02*
X0548167Y0094514D01*
X0548167Y0096112D02*
X0560167Y0096112D01*
X0560167Y0097711D02*
X0548167Y0097711D01*
X0548167Y0099309D02*
X0560167Y0099309D01*
X0560167Y0100908D02*
X0548167Y0100908D01*
X0547868Y0121688D02*
X0560465Y0121688D01*
X0560167Y0123287D02*
X0548167Y0123287D01*
X0548167Y0124885D02*
X0560167Y0124885D01*
X0560167Y0126484D02*
X0548167Y0126484D01*
X0548167Y0128082D02*
X0560167Y0128082D01*
X0560167Y0129681D02*
X0548167Y0129681D01*
X0548130Y0131279D02*
X0560204Y0131279D01*
X0560866Y0132878D02*
X0547468Y0132878D01*
X0546805Y0134476D02*
X0561528Y0134476D01*
X0563114Y0136075D02*
X0545220Y0136075D01*
X0542711Y0137673D02*
X0565622Y0137673D01*
X0572711Y0137673D02*
X0575622Y0137673D01*
X0579467Y0139272D02*
X0459423Y0139272D01*
X0457895Y0140800D02*
X0463167Y0135528D01*
X0463167Y0128072D01*
X0457895Y0122800D01*
X0450439Y0122800D01*
X0445167Y0128072D01*
X0445167Y0135528D01*
X0450439Y0140800D01*
X0457895Y0140800D01*
X0461021Y0137673D02*
X0515622Y0137673D01*
X0513114Y0136075D02*
X0462620Y0136075D01*
X0463167Y0134476D02*
X0511528Y0134476D01*
X0510866Y0132878D02*
X0463167Y0132878D01*
X0463167Y0131279D02*
X0510204Y0131279D01*
X0509861Y0129681D02*
X0463167Y0129681D01*
X0463167Y0128082D02*
X0509467Y0128082D01*
X0509467Y0126484D02*
X0461578Y0126484D01*
X0459980Y0124885D02*
X0509467Y0124885D01*
X0509467Y0123287D02*
X0458381Y0123287D01*
X0449952Y0123287D02*
X0433367Y0123287D01*
X0432830Y0124885D02*
X0448353Y0124885D01*
X0446755Y0126484D02*
X0432168Y0126484D01*
X0432568Y0128082D02*
X0445167Y0128082D01*
X0445167Y0129681D02*
X0433230Y0129681D01*
X0433367Y0131279D02*
X0445167Y0131279D01*
X0445167Y0132878D02*
X0433367Y0132878D01*
X0433000Y0134476D02*
X0445167Y0134476D01*
X0445714Y0136075D02*
X0432337Y0136075D01*
X0432399Y0137673D02*
X0447312Y0137673D01*
X0448911Y0139272D02*
X0433061Y0139272D01*
X0433367Y0140870D02*
X0579467Y0140870D01*
X0579467Y0142469D02*
X0433367Y0142469D01*
X0433169Y0144068D02*
X0579467Y0144068D01*
X0579467Y0145666D02*
X0432507Y0145666D01*
X0431630Y0147265D02*
X0579467Y0147265D01*
X0579467Y0148863D02*
X0430032Y0148863D01*
X0426974Y0150462D02*
X0579467Y0150462D01*
X0579467Y0152060D02*
X0418867Y0152060D01*
X0418867Y0153659D02*
X0579467Y0153659D01*
X0579467Y0155257D02*
X0418867Y0155257D01*
X0418867Y0156856D02*
X0579467Y0156856D01*
X0579467Y0158454D02*
X0418867Y0158454D01*
X0418867Y0160053D02*
X0579467Y0160053D01*
X0579467Y0161651D02*
X0418867Y0161651D01*
X0418867Y0163250D02*
X0579467Y0163250D01*
X0579467Y0164848D02*
X0418867Y0164848D01*
X0418867Y0166447D02*
X0579467Y0166447D01*
X0579204Y0168045D02*
X0418867Y0168045D01*
X0418867Y0169644D02*
X0577605Y0169644D01*
X0576007Y0171242D02*
X0418867Y0171242D01*
X0418867Y0172841D02*
X0574408Y0172841D01*
X0572810Y0174439D02*
X0418867Y0174439D01*
X0418867Y0176038D02*
X0571211Y0176038D01*
X0569613Y0177636D02*
X0418867Y0177636D01*
X0418867Y0179235D02*
X0568014Y0179235D01*
X0566416Y0180833D02*
X0418867Y0180833D01*
X0418867Y0182432D02*
X0564817Y0182432D01*
X0563218Y0184030D02*
X0418867Y0184030D01*
X0418867Y0185629D02*
X0561620Y0185629D01*
X0560021Y0187227D02*
X0418867Y0187227D01*
X0418867Y0188826D02*
X0558423Y0188826D01*
X0556824Y0190424D02*
X0418867Y0190424D01*
X0418867Y0192023D02*
X0555226Y0192023D01*
X0553627Y0193621D02*
X0418867Y0193621D01*
X0418867Y0195220D02*
X0552029Y0195220D01*
X0550430Y0196818D02*
X0418867Y0196818D01*
X0418867Y0198417D02*
X0548832Y0198417D01*
X0547233Y0200015D02*
X0418867Y0200015D01*
X0418867Y0201614D02*
X0545635Y0201614D01*
X0544036Y0203212D02*
X0418867Y0203212D01*
X0418867Y0204811D02*
X0542438Y0204811D01*
X0540839Y0206409D02*
X0418867Y0206409D01*
X0418867Y0208008D02*
X0539241Y0208008D01*
X0537642Y0209606D02*
X0418867Y0209606D01*
X0418867Y0211205D02*
X0536044Y0211205D01*
X0534445Y0212803D02*
X0418867Y0212803D01*
X0418867Y0214402D02*
X0532847Y0214402D01*
X0531248Y0216001D02*
X0418867Y0216001D01*
X0418867Y0217599D02*
X0529650Y0217599D01*
X0528051Y0219198D02*
X0418867Y0219198D01*
X0418867Y0220796D02*
X0526453Y0220796D01*
X0524854Y0222395D02*
X0418867Y0222395D01*
X0418867Y0223993D02*
X0523256Y0223993D01*
X0521657Y0225592D02*
X0418867Y0225592D01*
X0418867Y0227190D02*
X0520059Y0227190D01*
X0518460Y0228789D02*
X0418867Y0228789D01*
X0418867Y0230387D02*
X0516862Y0230387D01*
X0515263Y0231986D02*
X0418867Y0231986D01*
X0418867Y0233584D02*
X0513665Y0233584D01*
X0512066Y0235183D02*
X0418867Y0235183D01*
X0418867Y0236781D02*
X0510468Y0236781D01*
X0508869Y0238380D02*
X0418867Y0238380D01*
X0418867Y0239978D02*
X0507271Y0239978D01*
X0505672Y0241577D02*
X0418867Y0241577D01*
X0418867Y0243175D02*
X0504074Y0243175D01*
X0502475Y0244774D02*
X0418867Y0244774D01*
X0418867Y0246372D02*
X0500877Y0246372D01*
X0499278Y0247971D02*
X0418867Y0247971D01*
X0418867Y0249569D02*
X0497680Y0249569D01*
X0496081Y0251168D02*
X0418867Y0251168D01*
X0418867Y0252766D02*
X0494483Y0252766D01*
X0492884Y0254365D02*
X0418867Y0254365D01*
X0418867Y0255963D02*
X0491285Y0255963D01*
X0489687Y0257562D02*
X0418867Y0257562D01*
X0418867Y0259160D02*
X0488088Y0259160D01*
X0486490Y0260759D02*
X0418867Y0260759D01*
X0418867Y0262357D02*
X0484891Y0262357D01*
X0483293Y0263956D02*
X0418867Y0263956D01*
X0418867Y0265554D02*
X0481694Y0265554D01*
X0494744Y0279941D02*
X0592688Y0279941D01*
X0592688Y0281539D02*
X0493145Y0281539D01*
X0492390Y0282295D02*
X0492390Y0282295D01*
X0491547Y0283138D02*
X0592688Y0283138D01*
X0592688Y0284737D02*
X0489948Y0284737D01*
X0486494Y0286335D02*
X0592688Y0286335D01*
X0592688Y0278342D02*
X0496342Y0278342D01*
X0497941Y0276744D02*
X0592688Y0276744D01*
X0592688Y0275145D02*
X0499539Y0275145D01*
X0501138Y0273547D02*
X0592688Y0273547D01*
X0592688Y0271948D02*
X0502736Y0271948D01*
X0504335Y0270350D02*
X0592688Y0270350D01*
X0592688Y0268751D02*
X0505933Y0268751D01*
X0507532Y0267153D02*
X0592688Y0267153D01*
X0592688Y0265554D02*
X0578157Y0265554D01*
X0577042Y0266198D02*
X0579391Y0264842D01*
X0581309Y0262924D01*
X0582665Y0260576D01*
X0583367Y0257956D01*
X0583367Y0255244D01*
X0582665Y0252624D01*
X0581309Y0250276D01*
X0579391Y0248358D01*
X0577042Y0247002D01*
X0576102Y0246750D01*
X0577042Y0246498D01*
X0579391Y0245142D01*
X0581309Y0243224D01*
X0582665Y0240876D01*
X0583367Y0238256D01*
X0583367Y0235544D01*
X0582665Y0232924D01*
X0581309Y0230576D01*
X0579391Y0228658D01*
X0577042Y0227302D01*
X0574423Y0226600D01*
X0563911Y0226600D01*
X0561291Y0227302D01*
X0558942Y0228658D01*
X0557025Y0230576D01*
X0555669Y0232924D01*
X0554967Y0235544D01*
X0554967Y0238256D01*
X0555669Y0240876D01*
X0557025Y0243224D01*
X0558942Y0245142D01*
X0561291Y0246498D01*
X0562231Y0246750D01*
X0561291Y0247002D01*
X0558942Y0248358D01*
X0557025Y0250276D01*
X0555669Y0252624D01*
X0554967Y0255244D01*
X0554967Y0257956D01*
X0555669Y0260576D01*
X0557025Y0262924D01*
X0558942Y0264842D01*
X0561291Y0266198D01*
X0563911Y0266900D01*
X0574423Y0266900D01*
X0577042Y0266198D01*
X0580277Y0263956D02*
X0592688Y0263956D01*
X0592688Y0262357D02*
X0581636Y0262357D01*
X0582559Y0260759D02*
X0592688Y0260759D01*
X0592688Y0259160D02*
X0583044Y0259160D01*
X0583367Y0257562D02*
X0592688Y0257562D01*
X0592688Y0255963D02*
X0583367Y0255963D01*
X0583131Y0254365D02*
X0592688Y0254365D01*
X0592688Y0252766D02*
X0582703Y0252766D01*
X0581824Y0251168D02*
X0592688Y0251168D01*
X0592688Y0249569D02*
X0580602Y0249569D01*
X0578720Y0247971D02*
X0592688Y0247971D01*
X0592688Y0246372D02*
X0577260Y0246372D01*
X0579759Y0244774D02*
X0592688Y0244774D01*
X0592688Y0243175D02*
X0581337Y0243175D01*
X0582260Y0241577D02*
X0592688Y0241577D01*
X0592688Y0239978D02*
X0582905Y0239978D01*
X0583334Y0238380D02*
X0592688Y0238380D01*
X0592688Y0236781D02*
X0583367Y0236781D01*
X0583270Y0235183D02*
X0592688Y0235183D01*
X0592688Y0233584D02*
X0582841Y0233584D01*
X0582123Y0231986D02*
X0592688Y0231986D01*
X0592688Y0230387D02*
X0581120Y0230387D01*
X0579522Y0228789D02*
X0592688Y0228789D01*
X0592688Y0227190D02*
X0576625Y0227190D01*
X0563480Y0211205D02*
X0592688Y0211205D01*
X0592688Y0212803D02*
X0561881Y0212803D01*
X0560282Y0214402D02*
X0592688Y0214402D01*
X0592688Y0216001D02*
X0558684Y0216001D01*
X0557085Y0217599D02*
X0592688Y0217599D01*
X0592688Y0219198D02*
X0555487Y0219198D01*
X0553888Y0220796D02*
X0592688Y0220796D01*
X0592688Y0222395D02*
X0552290Y0222395D01*
X0550691Y0223993D02*
X0592688Y0223993D01*
X0592688Y0225592D02*
X0549093Y0225592D01*
X0547494Y0227190D02*
X0561708Y0227190D01*
X0558812Y0228789D02*
X0545896Y0228789D01*
X0544297Y0230387D02*
X0557213Y0230387D01*
X0556211Y0231986D02*
X0542699Y0231986D01*
X0541100Y0233584D02*
X0555492Y0233584D01*
X0555063Y0235183D02*
X0539502Y0235183D01*
X0537903Y0236781D02*
X0554967Y0236781D01*
X0555000Y0238380D02*
X0536305Y0238380D01*
X0534706Y0239978D02*
X0555428Y0239978D01*
X0556073Y0241577D02*
X0533108Y0241577D01*
X0531509Y0243175D02*
X0556996Y0243175D01*
X0558574Y0244774D02*
X0529911Y0244774D01*
X0528312Y0246372D02*
X0561073Y0246372D01*
X0559613Y0247971D02*
X0526714Y0247971D01*
X0525115Y0249569D02*
X0557731Y0249569D01*
X0556510Y0251168D02*
X0523517Y0251168D01*
X0521918Y0252766D02*
X0555631Y0252766D01*
X0555202Y0254365D02*
X0520320Y0254365D01*
X0518721Y0255963D02*
X0554967Y0255963D01*
X0554967Y0257562D02*
X0517123Y0257562D01*
X0515524Y0259160D02*
X0555289Y0259160D01*
X0555774Y0260759D02*
X0513926Y0260759D01*
X0512327Y0262357D02*
X0556697Y0262357D01*
X0558056Y0263956D02*
X0510729Y0263956D01*
X0509130Y0265554D02*
X0560176Y0265554D01*
X0565078Y0209606D02*
X0592688Y0209606D01*
X0592688Y0208008D02*
X0566677Y0208008D01*
X0568275Y0206409D02*
X0592688Y0206409D01*
X0592688Y0204811D02*
X0569874Y0204811D01*
X0571472Y0203212D02*
X0592688Y0203212D01*
X0592688Y0201614D02*
X0573071Y0201614D01*
X0574669Y0200015D02*
X0592688Y0200015D01*
X0592688Y0198417D02*
X0576268Y0198417D01*
X0577866Y0196818D02*
X0592688Y0196818D01*
X0592688Y0195220D02*
X0579465Y0195220D01*
X0581063Y0193621D02*
X0592688Y0193621D01*
X0592688Y0192023D02*
X0582662Y0192023D01*
X0584260Y0190424D02*
X0592688Y0190424D01*
X0592688Y0188826D02*
X0585859Y0188826D01*
X0587457Y0187227D02*
X0592688Y0187227D01*
X0592688Y0185629D02*
X0589056Y0185629D01*
X0590654Y0184030D02*
X0592688Y0184030D01*
X0592688Y0182432D02*
X0592253Y0182432D01*
X0535622Y0137673D02*
X0532711Y0137673D01*
X0525622Y0137673D02*
X0522711Y0137673D01*
X0490017Y0084923D02*
X0582326Y0084923D01*
X0584282Y0083324D02*
X0488419Y0083324D01*
X0574146Y0086521D02*
X0574187Y0086521D01*
X0399467Y0172841D02*
X0307018Y0172841D01*
X0310055Y0174439D02*
X0399467Y0174439D01*
X0399467Y0176038D02*
X0311653Y0176038D01*
X0312582Y0177636D02*
X0399467Y0177636D01*
X0399467Y0179235D02*
X0313244Y0179235D01*
X0313535Y0180833D02*
X0399467Y0180833D01*
X0399467Y0182432D02*
X0313535Y0182432D01*
X0313383Y0184030D02*
X0399467Y0184030D01*
X0399467Y0185629D02*
X0312721Y0185629D01*
X0312413Y0187227D02*
X0399467Y0187227D01*
X0399467Y0188826D02*
X0313075Y0188826D01*
X0313535Y0190424D02*
X0399467Y0190424D01*
X0399467Y0192023D02*
X0313535Y0192023D01*
X0313535Y0193621D02*
X0399467Y0193621D01*
X0399467Y0195220D02*
X0312890Y0195220D01*
X0312244Y0196818D02*
X0399467Y0196818D01*
X0399467Y0198417D02*
X0312906Y0198417D01*
X0313535Y0200015D02*
X0399467Y0200015D01*
X0399467Y0201614D02*
X0313535Y0201614D01*
X0313535Y0203212D02*
X0399467Y0203212D01*
X0399467Y0204811D02*
X0313060Y0204811D01*
X0312398Y0206409D02*
X0399467Y0206409D01*
X0399467Y0208008D02*
X0312736Y0208008D01*
X0313398Y0209606D02*
X0399467Y0209606D01*
X0399467Y0211205D02*
X0313535Y0211205D01*
X0313535Y0212803D02*
X0399467Y0212803D01*
X0399467Y0214402D02*
X0313229Y0214402D01*
X0312567Y0216001D02*
X0399467Y0216001D01*
X0399467Y0217599D02*
X0312567Y0217599D01*
X0313229Y0219198D02*
X0399467Y0219198D01*
X0399467Y0220796D02*
X0313535Y0220796D01*
X0313535Y0222395D02*
X0399467Y0222395D01*
X0399467Y0223993D02*
X0313399Y0223993D01*
X0312737Y0225592D02*
X0399467Y0225592D01*
X0399467Y0227190D02*
X0312398Y0227190D01*
X0313060Y0228789D02*
X0399467Y0228789D01*
X0399467Y0230387D02*
X0313535Y0230387D01*
X0313535Y0231986D02*
X0399467Y0231986D01*
X0399467Y0233584D02*
X0313535Y0233584D01*
X0312906Y0235183D02*
X0399467Y0235183D01*
X0399467Y0236781D02*
X0312244Y0236781D01*
X0310836Y0238380D02*
X0399467Y0238380D01*
X0399467Y0239978D02*
X0308904Y0239978D01*
X0303535Y0241577D02*
X0399467Y0241577D01*
X0399467Y0243175D02*
X0303535Y0243175D01*
X0303075Y0244774D02*
X0399467Y0244774D01*
X0399467Y0246372D02*
X0302413Y0246372D01*
X0301245Y0247971D02*
X0399467Y0247971D01*
X0399467Y0249569D02*
X0299646Y0249569D01*
X0313535Y0150462D02*
X0351037Y0150462D01*
X0348219Y0148863D02*
X0313091Y0148863D01*
X0312428Y0147265D02*
X0346620Y0147265D01*
X0345022Y0145666D02*
X0312706Y0145666D01*
X0313368Y0144068D02*
X0343423Y0144068D01*
X0341825Y0142469D02*
X0313535Y0142469D01*
X0313535Y0140870D02*
X0340226Y0140870D01*
X0328911Y0139272D02*
X0313260Y0139272D01*
X0312598Y0137673D02*
X0327312Y0137673D01*
X0325714Y0136075D02*
X0312536Y0136075D01*
X0313198Y0134476D02*
X0325167Y0134476D01*
X0325167Y0132878D02*
X0313535Y0132878D01*
X0313535Y0131279D02*
X0325167Y0131279D01*
X0184167Y0017785D02*
X0058163Y0017785D01*
X0056564Y0016187D02*
X0184167Y0016187D01*
X0184167Y0014588D02*
X0054966Y0014588D01*
X0053367Y0012990D02*
X0184167Y0012990D01*
X0184167Y0011391D02*
X0051768Y0011391D01*
X0050170Y0009793D02*
X0184167Y0009793D01*
X0079231Y0112097D02*
X0079102Y0112097D01*
X0069231Y0112097D02*
X0069102Y0112097D01*
X0058950Y0121688D02*
X0039383Y0121688D01*
X0040981Y0123287D02*
X0057352Y0123287D01*
X0078204Y0142469D02*
X0080129Y0142469D01*
X0583475Y0407822D02*
X0592688Y0407822D01*
X0592688Y0409420D02*
X0585849Y0409420D01*
X0587448Y0411019D02*
X0592688Y0411019D01*
X0592688Y0412617D02*
X0588197Y0412617D01*
X0588859Y0414216D02*
X0592688Y0414216D01*
X0592688Y0415814D02*
X0589110Y0415814D01*
X0589110Y0417413D02*
X0592688Y0417413D01*
X0592688Y0419011D02*
X0589013Y0419011D01*
X0588351Y0420610D02*
X0592688Y0420610D01*
X0592688Y0422208D02*
X0587689Y0422208D01*
X0586222Y0423807D02*
X0592688Y0423807D01*
X0592688Y0425405D02*
X0584374Y0425405D01*
X0585388Y0479755D02*
X0592688Y0479755D01*
X0592688Y0481353D02*
X0586700Y0481353D01*
X0587623Y0482952D02*
X0592688Y0482952D01*
X0592688Y0484550D02*
X0588074Y0484550D01*
X0588367Y0486149D02*
X0592688Y0486149D01*
X0592688Y0487747D02*
X0588367Y0487747D01*
X0588101Y0489346D02*
X0592688Y0489346D01*
X0592688Y0490944D02*
X0587673Y0490944D01*
X0586760Y0492543D02*
X0592688Y0492543D01*
X0592688Y0494141D02*
X0585492Y0494141D01*
X0583529Y0495740D02*
X0592688Y0495740D01*
X0592688Y0497339D02*
X0582452Y0497339D01*
X0584870Y0498937D02*
X0592688Y0498937D01*
X0592688Y0500536D02*
X0586401Y0500536D01*
X0587324Y0502134D02*
X0592688Y0502134D01*
X0592688Y0503733D02*
X0587935Y0503733D01*
X0588363Y0505331D02*
X0592688Y0505331D01*
X0592688Y0506930D02*
X0588367Y0506930D01*
X0588240Y0508528D02*
X0592688Y0508528D01*
X0592688Y0510127D02*
X0587812Y0510127D01*
X0587059Y0511725D02*
X0592688Y0511725D01*
X0592688Y0513324D02*
X0586009Y0513324D01*
X0584411Y0514922D02*
X0592688Y0514922D01*
X0592688Y0516521D02*
X0581212Y0516521D01*
D17*
X0484167Y0276800D02*
X0409167Y0276800D01*
X0409167Y0141800D01*
X0409167Y0121800D01*
X0409167Y0101800D01*
X0409167Y0081800D01*
X0419167Y0081800D01*
X0419167Y0101800D02*
X0409167Y0101800D01*
X0409167Y0121800D02*
X0419167Y0121800D01*
X0419167Y0141800D02*
X0409167Y0141800D01*
X0519167Y0126800D02*
X0519167Y0111800D01*
X0589167Y0111800D01*
X0589167Y0091800D01*
X0589167Y0111800D02*
X0589167Y0126800D01*
X0589167Y0171800D01*
X0484167Y0276800D01*
X0409167Y0276800D02*
X0189167Y0276800D01*
X0189167Y0136800D01*
X0189167Y0116800D01*
X0189167Y0096800D01*
X0189167Y0076800D01*
X0174167Y0076800D01*
X0174167Y0096800D02*
X0189167Y0096800D01*
X0189167Y0116800D02*
X0174167Y0116800D01*
X0174167Y0136800D02*
X0189167Y0136800D01*
X0189167Y0276800D02*
X0154067Y0276800D01*
X0519167Y0111800D02*
X0519167Y0096800D01*
D18*
X0389167Y0101800D02*
X0304167Y0101800D01*
X0294167Y0101800D02*
X0284167Y0101800D01*
X0279167Y0096800D01*
X0279167Y0081800D01*
X0274167Y0076800D01*
X0209167Y0076800D01*
X0209167Y0096800D02*
X0254167Y0096800D01*
X0279167Y0121800D01*
X0294167Y0121800D01*
X0304167Y0121800D02*
X0334167Y0121800D01*
X0354167Y0141800D01*
X0389167Y0141800D01*
X0389167Y0121800D02*
X0349167Y0121800D01*
X0339167Y0111800D01*
X0304167Y0111800D01*
X0294167Y0131800D02*
X0274167Y0131800D01*
X0259167Y0116800D01*
X0209167Y0116800D01*
X0209167Y0136800D02*
X0239167Y0136800D01*
X0259167Y0156800D01*
X0274167Y0156800D01*
X0279167Y0151800D01*
X0294167Y0151800D01*
X0304167Y0081800D02*
X0389167Y0081800D01*
X0264167Y0341800D02*
X0264167Y0541800D01*
X0279167Y0526800D02*
X0279167Y0441800D01*
X0064167Y0231800D02*
X0064167Y0131800D01*
X0064167Y0101800D02*
X0064167Y0036800D01*
X0044167Y0016800D01*
X0034367Y0016800D01*
X0034167Y0017000D01*
X0034167Y0036700D02*
X0034167Y0101800D01*
X0034167Y0131800D02*
X0034167Y0232000D01*
X0034167Y0251700D02*
X0044267Y0251700D01*
X0064167Y0231800D01*
D19*
X0279167Y0441800D03*
X0279167Y0526800D03*
M02*
