%
M48
M72
T01C0.02362
T02C0.03200
T03C0.03937
T04C0.05200
%
T01
X279167Y441800
X279167Y526800
T02
X264167Y541800
X214167Y541800
X359167Y406800
X334167Y386800
X359167Y356800
X334167Y336800
X389167Y386800
X389167Y396800
X389167Y406800
X389167Y416800
X389167Y426800
X389167Y436800
X389167Y446800
X389167Y456800
X419167Y456800
X419167Y446800
X419167Y436800
X419167Y426800
X419167Y416800
X419167Y406800
X419167Y396800
X419167Y386800
X479167Y411800
X479167Y451800
X429167Y541800
X429167Y581800
X264167Y341800
X214167Y341800
X264167Y196800
X239167Y176800
X264167Y146800
X239167Y126800
X239167Y106800
X264167Y86800
X239167Y56800
X264167Y36800
X209167Y76800
X209167Y86800
X209167Y96800
X209167Y106800
X209167Y116800
X209167Y126800
X209167Y136800
X209167Y146800
X179167Y146800
X179167Y136800
X179167Y126800
X179167Y116800
X179167Y106800
X179167Y96800
X179167Y86800
X179167Y76800
X154167Y86800
X119167Y106800
X119167Y126800
X84167Y131800
X74167Y131800
X64167Y131800
X54167Y131800
X44167Y131800
X34167Y131800
X24167Y131800
X14167Y131800
X14167Y101800
X24167Y101800
X34167Y101800
X44167Y101800
X54167Y101800
X64167Y101800
X74167Y101800
X84167Y101800
X119167Y56800
X154167Y36800
X154167Y146800
X119167Y176800
X154167Y196800
X334167Y181800
X359167Y161800
X389167Y141800
X389167Y131800
X389167Y121800
X389167Y111800
X389167Y101800
X389167Y91800
X389167Y81800
X389167Y71800
X419167Y71800
X419167Y81800
X419167Y91800
X419167Y101800
X419167Y111800
X419167Y121800
X419167Y131800
X419167Y141800
X454167Y131800
X484167Y111800
X484167Y91800
X519167Y96800
X529167Y96800
X539167Y96800
X549167Y96800
X559167Y96800
X569167Y96800
X579167Y96800
X589167Y96800
X589167Y126800
X579167Y126800
X569167Y126800
X559167Y126800
X549167Y126800
X539167Y126800
X529167Y126800
X519167Y126800
X484167Y161800
X454167Y181800
X359167Y111800
X359167Y91800
X334167Y71800
X359167Y41800
X334167Y21800
X334167Y131800
X454167Y71800
X484167Y41800
X454167Y21800
T03
X304167Y51800
X304167Y61800
X294167Y61800
X294167Y51800
X294167Y71800
X304167Y71800
X304167Y81800
X304167Y91800
X294167Y91800
X294167Y81800
X294167Y101800
X304167Y101800
X304167Y111800
X304167Y121800
X294167Y121800
X294167Y111800
X294167Y131800
X304167Y131800
X304167Y141800
X294167Y141800
X294167Y151800
X304167Y151800
X304167Y161800
X304167Y171800
X294167Y171800
X294167Y161800
X294167Y181800
X304167Y181800
X304167Y191800
X304167Y201800
X294167Y201800
X294167Y191800
X294167Y211800
X304167Y211800
X304167Y221800
X294167Y221800
X294167Y231800
X304167Y231800
X304167Y241800
X294167Y241800
X294167Y366800
X304167Y366800
X304167Y376800
X294167Y376800
X294167Y386800
X304167Y386800
X304167Y396800
X304167Y406800
X294167Y406800
X294167Y396800
X294167Y416800
X304167Y416800
X304167Y426800
X294167Y426800
X294167Y436800
X304167Y436800
X304167Y446800
X304167Y456800
X294167Y456800
X294167Y446800
X294167Y466800
X304167Y466800
X304167Y476800
X304167Y486800
X294167Y486800
X294167Y476800
X294167Y496800
X304167Y496800
X304167Y506800
X294167Y506800
X294167Y516800
X304167Y516800
X304167Y526800
X304167Y536800
X294167Y536800
X294167Y526800
X294167Y546800
X304167Y546800
X304167Y556800
X294167Y556800
X454167Y546800
X484167Y546800
X504167Y546800
X524167Y546800
X524167Y576800
X504167Y576800
X484167Y576800
X454167Y576800
X509167Y446800
X539167Y446800
X559167Y446800
X579167Y446800
X579167Y416800
X559167Y416800
X539167Y416800
X509167Y416800
T04
X34167Y17000
X34167Y36700
X34167Y232000
X34167Y251700
X134367Y276800
X154067Y276800
X219167Y387000
X219167Y406700
X219167Y472000
X219167Y491700
X454367Y341800
X474067Y341800
X574167Y347000
X574167Y366700
X569167Y256600
X569167Y236900
X564167Y41600
X564167Y21900
X574167Y487000
X574167Y506700
X574167Y551900
X574167Y571600
M30
