G75*
%MOIN*%
%OFA0B0*%
%FSLAX25Y25*%
%IPPOS*%
%LPD*%
%AMOC8*
5,1,8,0,0,1.08239X$1,22.5*
%
%ADD10C,0.06000*%
%ADD11OC8,0.06000*%
%ADD12C,0.06737*%
%ADD13C,0.08600*%
%ADD14C,0.07887*%
%ADD15R,0.04762X0.04762*%
D10*
X0014167Y0099200D02*
X0014167Y0104400D01*
X0024167Y0104400D02*
X0024167Y0099200D01*
X0034167Y0099200D02*
X0034167Y0104400D01*
X0044167Y0104400D02*
X0044167Y0099200D01*
X0054167Y0099200D02*
X0054167Y0104400D01*
X0064167Y0104400D02*
X0064167Y0099200D01*
X0074167Y0099200D02*
X0074167Y0104400D01*
X0084167Y0104400D02*
X0084167Y0099200D01*
X0084167Y0129200D02*
X0084167Y0134400D01*
X0074167Y0134400D02*
X0074167Y0129200D01*
X0064167Y0129200D02*
X0064167Y0134400D01*
X0054167Y0134400D02*
X0054167Y0129200D01*
X0044167Y0129200D02*
X0044167Y0134400D01*
X0034167Y0134400D02*
X0034167Y0129200D01*
X0024167Y0129200D02*
X0024167Y0134400D01*
X0014167Y0134400D02*
X0014167Y0129200D01*
X0173967Y0126800D02*
X0179167Y0126800D01*
X0179167Y0116800D02*
X0173967Y0116800D01*
X0173967Y0106800D02*
X0179167Y0106800D01*
X0179167Y0096800D02*
X0173967Y0096800D01*
X0173967Y0086800D02*
X0179167Y0086800D01*
X0179167Y0076800D02*
X0173967Y0076800D01*
X0209167Y0076800D02*
X0214367Y0076800D01*
X0214367Y0086800D02*
X0209167Y0086800D01*
X0209167Y0096800D02*
X0214367Y0096800D01*
X0214367Y0106800D02*
X0209167Y0106800D01*
X0209167Y0116800D02*
X0214367Y0116800D01*
X0214367Y0126800D02*
X0209167Y0126800D01*
X0209167Y0136800D02*
X0214367Y0136800D01*
X0214367Y0146800D02*
X0209167Y0146800D01*
X0179167Y0146800D02*
X0173967Y0146800D01*
X0173967Y0136800D02*
X0179167Y0136800D01*
X0383967Y0131800D02*
X0389167Y0131800D01*
X0389167Y0141800D02*
X0383967Y0141800D01*
X0383967Y0121800D02*
X0389167Y0121800D01*
X0389167Y0111800D02*
X0383967Y0111800D01*
X0383967Y0101800D02*
X0389167Y0101800D01*
X0389167Y0091800D02*
X0383967Y0091800D01*
X0383967Y0081800D02*
X0389167Y0081800D01*
X0389167Y0071800D02*
X0383967Y0071800D01*
X0419167Y0071800D02*
X0424367Y0071800D01*
X0424367Y0081800D02*
X0419167Y0081800D01*
X0419167Y0091800D02*
X0424367Y0091800D01*
X0424367Y0101800D02*
X0419167Y0101800D01*
X0419167Y0111800D02*
X0424367Y0111800D01*
X0424367Y0121800D02*
X0419167Y0121800D01*
X0419167Y0131800D02*
X0424367Y0131800D01*
X0424367Y0141800D02*
X0419167Y0141800D01*
X0519167Y0129400D02*
X0519167Y0124200D01*
X0529167Y0124200D02*
X0529167Y0129400D01*
X0539167Y0129400D02*
X0539167Y0124200D01*
X0549167Y0124200D02*
X0549167Y0129400D01*
X0559167Y0129400D02*
X0559167Y0124200D01*
X0569167Y0124200D02*
X0569167Y0129400D01*
X0579167Y0129400D02*
X0579167Y0124200D01*
X0589167Y0124200D02*
X0589167Y0129400D01*
X0589167Y0099400D02*
X0589167Y0094200D01*
X0579167Y0094200D02*
X0579167Y0099400D01*
X0569167Y0099400D02*
X0569167Y0094200D01*
X0559167Y0094200D02*
X0559167Y0099400D01*
X0549167Y0099400D02*
X0549167Y0094200D01*
X0539167Y0094200D02*
X0539167Y0099400D01*
X0529167Y0099400D02*
X0529167Y0094200D01*
X0519167Y0094200D02*
X0519167Y0099400D01*
X0424367Y0386800D02*
X0419167Y0386800D01*
X0419167Y0396800D02*
X0424367Y0396800D01*
X0424367Y0406800D02*
X0419167Y0406800D01*
X0419167Y0416800D02*
X0424367Y0416800D01*
X0424367Y0426800D02*
X0419167Y0426800D01*
X0419167Y0436800D02*
X0424367Y0436800D01*
X0424367Y0446800D02*
X0419167Y0446800D01*
X0419167Y0456800D02*
X0424367Y0456800D01*
X0389167Y0456800D02*
X0383967Y0456800D01*
X0383967Y0446800D02*
X0389167Y0446800D01*
X0389167Y0436800D02*
X0383967Y0436800D01*
X0383967Y0426800D02*
X0389167Y0426800D01*
X0389167Y0416800D02*
X0383967Y0416800D01*
X0383967Y0406800D02*
X0389167Y0406800D01*
X0389167Y0396800D02*
X0383967Y0396800D01*
X0383967Y0386800D02*
X0389167Y0386800D01*
X0479167Y0409200D02*
X0479167Y0414400D01*
X0479167Y0449200D02*
X0479167Y0454400D01*
X0429167Y0539200D02*
X0429167Y0544400D01*
X0429167Y0579200D02*
X0429167Y0584400D01*
D11*
X0264167Y0541800D03*
X0214167Y0541800D03*
X0359167Y0406800D03*
X0334167Y0386800D03*
X0359167Y0356800D03*
X0334167Y0336800D03*
X0264167Y0341800D03*
X0214167Y0341800D03*
X0264167Y0196800D03*
X0239167Y0176800D03*
X0264167Y0146800D03*
X0239167Y0126800D03*
X0239167Y0106800D03*
X0264167Y0086800D03*
X0239167Y0056800D03*
X0264167Y0036800D03*
X0334167Y0021800D03*
X0359167Y0041800D03*
X0334167Y0071800D03*
X0359167Y0091800D03*
X0359167Y0111800D03*
X0334167Y0131800D03*
X0359167Y0161800D03*
X0334167Y0181800D03*
X0454167Y0181800D03*
X0484167Y0161800D03*
X0454167Y0131800D03*
X0484167Y0111800D03*
X0484167Y0091800D03*
X0454167Y0071800D03*
X0484167Y0041800D03*
X0454167Y0021800D03*
X0154167Y0036800D03*
X0119167Y0056800D03*
X0154167Y0086800D03*
X0119167Y0106800D03*
X0119167Y0126800D03*
X0154167Y0146800D03*
X0119167Y0176800D03*
X0154167Y0196800D03*
D12*
X0294167Y0191800D03*
X0304167Y0191800D03*
X0304167Y0201800D03*
X0294167Y0201800D03*
X0294167Y0211800D03*
X0304167Y0211800D03*
X0304167Y0221800D03*
X0294167Y0221800D03*
X0294167Y0231800D03*
X0304167Y0231800D03*
X0304167Y0241800D03*
X0294167Y0241800D03*
X0294167Y0181800D03*
X0304167Y0181800D03*
X0304167Y0171800D03*
X0304167Y0161800D03*
X0294167Y0161800D03*
X0294167Y0171800D03*
X0294167Y0151800D03*
X0304167Y0151800D03*
X0304167Y0141800D03*
X0304167Y0131800D03*
X0294167Y0131800D03*
X0294167Y0141800D03*
X0294167Y0121800D03*
X0304167Y0121800D03*
X0304167Y0111800D03*
X0294167Y0111800D03*
X0294167Y0101800D03*
X0304167Y0101800D03*
X0304167Y0091800D03*
X0304167Y0081800D03*
X0294167Y0081800D03*
X0294167Y0091800D03*
X0294167Y0071800D03*
X0304167Y0071800D03*
X0304167Y0061800D03*
X0304167Y0051800D03*
X0294167Y0051800D03*
X0294167Y0061800D03*
X0294167Y0366800D03*
X0304167Y0366800D03*
X0304167Y0376800D03*
X0294167Y0376800D03*
X0294167Y0386800D03*
X0304167Y0386800D03*
X0304167Y0396800D03*
X0304167Y0406800D03*
X0294167Y0406800D03*
X0294167Y0396800D03*
X0294167Y0416800D03*
X0304167Y0416800D03*
X0304167Y0426800D03*
X0294167Y0426800D03*
X0294167Y0436800D03*
X0304167Y0436800D03*
X0304167Y0446800D03*
X0304167Y0456800D03*
X0294167Y0456800D03*
X0294167Y0446800D03*
X0294167Y0466800D03*
X0304167Y0466800D03*
X0304167Y0476800D03*
X0304167Y0486800D03*
X0294167Y0486800D03*
X0294167Y0476800D03*
X0294167Y0496800D03*
X0304167Y0496800D03*
X0304167Y0506800D03*
X0294167Y0506800D03*
X0294167Y0516800D03*
X0304167Y0516800D03*
X0304167Y0526800D03*
X0304167Y0536800D03*
X0294167Y0536800D03*
X0294167Y0526800D03*
X0294167Y0546800D03*
X0304167Y0546800D03*
X0304167Y0556800D03*
X0294167Y0556800D03*
D13*
X0038067Y0017000D02*
X0030267Y0017000D01*
X0030267Y0036700D02*
X0038067Y0036700D01*
X0038067Y0232000D02*
X0030267Y0232000D01*
X0030267Y0251700D02*
X0038067Y0251700D01*
X0134367Y0272900D02*
X0134367Y0280700D01*
X0154067Y0280700D02*
X0154067Y0272900D01*
X0215267Y0387000D02*
X0223067Y0387000D01*
X0223067Y0406700D02*
X0215267Y0406700D01*
X0215267Y0472000D02*
X0223067Y0472000D01*
X0223067Y0491700D02*
X0215267Y0491700D01*
X0454367Y0345700D02*
X0454367Y0337900D01*
X0474067Y0337900D02*
X0474067Y0345700D01*
X0565267Y0256600D02*
X0573067Y0256600D01*
X0573067Y0236900D02*
X0565267Y0236900D01*
X0570267Y0347000D02*
X0578067Y0347000D01*
X0578067Y0366700D02*
X0570267Y0366700D01*
X0570267Y0487000D02*
X0578067Y0487000D01*
X0578067Y0506700D02*
X0570267Y0506700D01*
X0570267Y0551900D02*
X0578067Y0551900D01*
X0578067Y0571600D02*
X0570267Y0571600D01*
X0568067Y0041600D02*
X0560267Y0041600D01*
X0560267Y0021900D02*
X0568067Y0021900D01*
D14*
X0559167Y0416800D03*
X0579167Y0416800D03*
X0579167Y0446800D03*
X0559167Y0446800D03*
X0539167Y0446800D03*
X0539167Y0416800D03*
X0509167Y0416800D03*
X0509167Y0446800D03*
X0504167Y0546800D03*
X0524167Y0546800D03*
X0524167Y0576800D03*
X0504167Y0576800D03*
X0484167Y0576800D03*
X0484167Y0546800D03*
X0454167Y0546800D03*
X0454167Y0576800D03*
D15*
X0279167Y0526800D03*
X0279167Y0441800D03*
M02*
